<svg id="avatar-svg" transform="translate(-40, 0)" width="380" height="380" class="path1" viewBox="0 0 700 700" fill="none" stroke="black" strokewidth="0.8" strokelinecap="round" strokelinejoin="round" xmlns="http://www.w3.org/2000/svg">
        <style>
          @media (prefers-reduced-motion){.path1{animation:none!important;stroke-dasharray:unset!important}}@media print{.path1{animation:none!important;stroke-dasharray:unset!important}}@keyframes grow{0%{stroke-dashoffset:1px;stroke-dasharray:0 1000px;opacity:0;fill-opacity:0}10%{opacity:1;fill-opacity:0}60%{stroke-dasharray:1000px 0;fill-opacity:1;stroke-opacity:0}to{stroke-dasharray:1000px 0;fill-opacity:1;stroke-opacity:0}}.path1 g g path{stroke-dashoffset:1px;stroke-dasharray:1000px 0;animation:grow 7s linear forwards;transform-origin:center;stroke:#a2a0a0;stroke-width:10px;animation-delay:0s}
        </style>
        <g>
          <g>
            <g transform="translate(0, 550)">
    <!-- Generator: Sketch 62 (91390) - https://sketch.com -->
    <title>body/mono/Blazer Black Tee</title>
    <desc>Created with Sketch.</desc>
    <g id="body/mono/Blazer-Black-Tee" stroke="none" stroke-width="1" fill="none" fill-rule="evenodd">
        <path d="M735.5557,227.4311 C721.6747,161.6691 672.4462,110.6393 606.2382,85.2183 C593.511715,78.0202542 581.175188,47.1344458 564.071541,41.4781328 C561.329824,40.5714251 565.657383,47.7873642 564.071541,48.2183 C558.415081,49.7553838 552.077171,49.9158903 545.831904,44.365067 C534.670211,34.4445006 531.168486,5.46126669 524.382121,-7.638195 C488.591121,-76.724195 399.2287,-49.6929 387.2567,26.6801 C378.90907,32.1209948 367.108607,36.9139984 358.022001,41.2984194 C348.665224,45.8132011 340.434796,56.7485003 330.792249,60.6580966 C322.188649,64.146449 308.012387,61.6752413 299.342989,64.7163092 C259.468912,78.7034139 225.696784,96.3526332 199.2197,132.1121 C193.6407,139.6541 187.3517,148.9261 182.2747,156.5451 C156.1007,186.6761 137.9207,220.4481 121.1767,256.6811 C74.3307,363.0321 61.5887,480.7861 50.1567,595.3721 C50.4167,615.4211 37.1127,671.0151 56.7897,680.6271 C55.6137,681.8461 56.0397,684.2951 58.2217,684.2741 C108.1147,683.7701 157.8917,688.2351 207.0107,696.9161 C230.7097,701.1051 254.2817,706.8491 278.4217,707.7931 C328.5327,707.4471 378.4637,699.0501 428.5087,706.9961 C488.670929,706.9961 561.786485,705.24306 628.716211,702.670144 C691.268626,700.265501 754.156241,705.69641 815.9337,695.0591 C820.8237,694.2851 823.2117,688.3211 822.1867,684.0471 C814.9387,657.6371 811.3807,630.4551 807.3137,603.4241 C808.1237,586.0861 806.6747,567.9861 800.2607,551.8371 C783.5027,442.8191 762.0137,334.5121 735.5557,227.4311 Z" id="ðŸŽ¨-Background" fill="#FFFFFF"/>
        <path d="M715.3684,370.7279 C714.0484,377.1379 712.1984,383.5479 709.7384,389.6189 C707.3684,395.4779 703.7984,400.7279 701.3394,406.5179 C701.0094,407.2979 700.4694,407.8879 699.8184,408.3379 L700.021275,409.9129 L700.021275,409.9129 L700.2084,411.4879 C701.434971,422.116471 702.814359,432.715655 704.009024,443.342757 L704.5894,448.6589 C706.9384,470.8479 710.6484,492.9279 713.5284,515.0579 C716.3484,536.7279 719.2194,558.3979 722.2884,580.0379 C725.4584,602.3479 728.6884,624.6279 732.4584,646.8479 C734.050067,656.232067 735.711178,665.608594 737.441733,674.977483 L738.7784,682.1479 C752.5384,685.4579 756.2984,704.6379 742.2884,711.7179 C735.9294,714.9179 727.7594,714.1479 722.5184,709.1189 C717.072159,703.877789 716.846073,694.426068 715.582089,687.327168 L714.364434,680.73046 C705.25311,631.126876 697.34536,580.9519 693.6484,530.6479 C692.6984,517.6589 691.8984,504.6589 691.3784,491.6479 C690.884317,479.4104 691.120435,467.17374 690.931372,454.93561 L690.8684,451.5979 C690.5794,438.5479 690.8184,425.5179 691.1584,412.4679 C691.1984,410.8779 691.2684,409.2879 691.3484,407.6879 C690.8894,407.1479 690.5584,406.5079 690.4194,405.8879 L690.2384,405.0679 C689.7884,402.9579 690.2984,400.4879 691.9194,398.9779 C692.6184,390.0879 693.5384,381.2079 693.7884,372.3279 C693.8084,371.5979 694.8584,371.6189 694.9194,372.3279 C695.5094,379.8879 696.6884,387.4679 697.8684,395.0379 C705.4584,388.9379 711.0684,378.8779 714.3784,370.4579 C714.6184,369.8479 715.5094,370.0679 715.3684,370.7279 Z M535.7882,17.3073 C537.0482,23.0673 539.5382,28.2383 542.8782,33.0483 C544.4692,35.3483 546.2782,37.4883 548.4482,39.2783 C550.3092,40.8073 552.4292,41.8073 554.4082,43.1383 C557.2882,42.6873 560.2982,43.7783 562.3182,45.8973 L561.9992,42.7983 C561.8982,41.7983 563.5592,41.5983 563.7492,42.5673 C572.497825,86.6889667 580.476828,130.839104 587.383444,175.279992 L590.410835,194.905769 L593.259399,213.330245 C597.989063,244.031936 602.564015,274.721374 606.0092,305.6473 C610.5992,346.9183 614.4582,388.2983 617.2782,429.7373 C620.1082,471.4683 621.8492,513.2273 623.0892,555.0383 C623.3982,565.5783 623.7292,576.1083 624.0482,586.6473 L626.184231,574.046628 C628.316012,561.4433 630.40645,548.8283 632.1982,536.1683 C638.6282,490.8583 643.7692,445.2273 646.2782,399.5283 C648.5792,357.7083 647.8092,315.0583 637.1692,274.3173 C634.4882,264.0673 631.2082,253.9773 627.2492,244.1473 C623.4082,234.5883 618.1692,225.7273 614.0382,216.3083 C609.2382,205.3483 607.7982,195.0083 610.2692,183.2083 C612.4292,172.9283 616.2192,163.2583 616.8982,152.6783 C618.1692,133.0383 611.7782,114.0173 602.7492,96.8283 C600.3682,92.2983 597.8582,87.8283 595.2382,83.3973 C587.3092,70.0083 578.3682,57.1073 569.0892,44.7383 C568.5892,44.0783 569.6482,43.3483 570.1892,43.8883 C578.6482,52.2483 587.8982,60.4683 595.5092,69.5983 C599.2082,74.0383 602.8182,78.5673 606.2382,83.2183 C643.7592,89.4883 675.9992,112.8573 698.0382,143.7183 C723.0482,178.7383 735.6982,220.8883 745.0592,262.3973 C755.4692,308.5283 764.2492,355.0783 773.5992,401.4373 C783.2782,449.4083 792.9082,497.3783 802.6482,545.3383 C807.4882,569.1473 812.3292,592.9583 817.1582,616.7783 C819.6082,628.8383 822.1792,640.8683 824.8682,652.8883 C826.2492,659.0483 827.7292,665.1983 829.0092,671.3783 C830.4482,678.3483 829.1082,682.8073 824.3892,687.9283 C822.6482,689.8283 819.8982,689.7983 817.7382,688.7883 L817.062965,688.470366 L816.410344,688.155257 C813.737583,686.841723 811.642131,685.480576 809.9792,682.5573 C808.1482,679.3483 807.8582,675.7883 807.2292,672.2183 C806.0682,665.6473 804.9192,659.0783 803.7592,652.4983 C802.02595,642.6583 800.141387,632.846425 798.223216,623.036941 L788.59945,574.01405 C786.0332,560.9428 783.4632,547.8728 780.8782,534.8083 C771.6482,488.0883 762.4082,441.3783 753.1692,394.6683 C744.2982,349.8173 736.4482,304.6583 726.3492,260.0673 L725.775021,257.555221 L725.191082,255.046498 C716.16044,216.606182 703.542783,179.42205 680.6482,146.8483 C663.0282,121.7983 638.5592,99.4283 609.7382,88.1073 C611.7692,91.0283 613.7192,94.0083 615.5792,97.0483 C627.2592,116.1283 635.7882,138.7783 633.7882,161.4983 C632.8092,172.5983 628.5892,183.5083 628.9882,194.6983 C629.3582,204.6383 635.5092,213.3683 639.7592,222.0173 C649.4082,241.6183 656.3892,262.4483 660.8892,283.8173 C669.9192,326.7273 669.8892,370.8783 666.7782,414.4373 C663.3982,461.7883 656.9792,509.1283 649.6692,556.0173 C645.9192,580.0673 640.9292,603.9183 637.1082,627.9283 C635.2192,639.7673 632.6482,651.5783 630.3982,663.3583 L629.325867,668.986337 C628.725496,672.109732 628.102595,675.223045 627.383089,678.303299 L626.9392,680.1473 L626.9392,680.4773 C626.9192,682.7483 626.2982,684.6283 625.2982,686.1283 C623.9292,690.5173 622.2292,694.7983 619.9692,698.9083 C618.8092,701.0083 617.1282,702.1873 615.2982,702.6183 C613.4582,706.8283 609.2882,710.0673 604.3092,710.048547 L538.8182,709.7983 C500.7782,709.6473 462.7382,709.3973 424.6982,709.1873 C415.0992,709.1383 405.5092,708.9583 395.9192,708.7083 C386.9292,708.4583 378.3092,707.3783 369.4192,706.2583 C359.3782,704.9983 353.9392,697.8883 355.4392,687.8583 C355.7692,685.6473 356.1282,683.4483 356.4692,681.2483 C354.4692,681.9083 352.0892,681.5983 350.4792,680.0283 L348.969756,678.551028 C346.877397,676.481146 345.00601,674.448586 343.6792,671.6873 C342.3092,668.8483 341.1982,665.8483 339.9882,662.9483 C337.3782,656.7083 334.8392,650.4483 332.3682,644.1583 C327.4192,631.5783 322.4692,618.9483 317.8682,606.2373 C308.7592,581.0673 300.6982,555.5173 293.6892,529.6783 C281.1892,483.5783 272.1482,436.5883 266.4482,389.1783 L265.085418,377.87879 L264.689166,374.541048 C262.527675,356.165431 260.708577,337.504547 261.5682,319.1683 C262.0992,307.6873 263.8782,296.1183 268.1692,285.3973 C272.1282,275.5083 278.2382,267.0483 284.0482,258.2083 L284.713058,257.187877 L285.381472,256.142578 C290.46261,248.113366 294.505635,239.71906 294.7082,229.9683 C294.913497,220.073165 292.030736,210.443099 288.80753,201.179423 L288.004202,198.894816 L287.465033,197.3827 C280.608045,178.236875 272.80465,159.3618 275.3782,138.5283 C279.1792,107.8483 297.7782,83.1183 321.1792,64.0483 C300.3682,68.1683 279.7692,76.3073 261.5892,86.6283 C240.1182,98.8283 220.7882,114.9283 204.1182,133.0983 C172.6182,167.4373 150.1282,208.6383 131.7192,251.1783 C112.4482,295.6983 98.1582,342.3483 87.3892,389.6083 C76.5592,437.1383 69.3092,485.4283 64.3582,533.9083 C61.8892,558.0383 59.9482,582.2273 58.3392,606.4283 C57.5192,618.8283 56.8992,631.2483 55.9392,643.6283 C54.9792,655.9983 54.5482,668.5573 51.5282,680.5983 C50.1182,686.2083 40.6082,686.7783 39.5892,680.5983 C37.3277294,666.796535 37.9597483,652.52375 38.590905,638.547985 L38.6482,637.2783 C39.2692,623.3583 40.0792,609.4483 41.0382,595.5383 C42.9992,567.1083 45.6182,538.7183 49.0382,510.4183 C61.0282,411.0783 83.1392,312.2583 126.5092,221.5783 C146.9292,178.8683 173.1392,137.3683 209.5992,106.5283 C226.9582,91.8573 246.5282,80.1473 267.6182,71.6683 C286.4792,64.0783 305.6392,60.4883 325.6792,60.4983 C335.7292,52.7983 346.5192,46.0883 357.2982,40.3573 C357.9482,40.0083 358.6282,40.8483 358.0892,41.3883 C357.8092,41.6583 357.5382,41.9373 357.2592,42.1983 C358.4792,42.2783 359.7382,42.8483 360.8682,44.0383 C364.8292,48.1873 368.1692,53.3783 371.1582,58.7673 C375.7082,64.4483 380.0482,70.3173 384.5892,75.9373 C391.8582,84.9373 399.2982,93.8073 406.8292,102.6073 C419.476568,117.396668 432.535893,131.906015 446.154269,145.831792 L448.4292,148.1473 C455.4882,155.2983 462.6392,163.8573 470.9882,169.5173 L471.433962,169.813803 C474.956478,172.108706 477.45436,172.5255 480.4582,169.0983 C483.189129,165.9783 485.462205,162.358198 487.798657,158.918551 L488.3392,158.1283 C500.2692,140.7983 511.3292,122.8283 521.3392,104.3283 C525.901927,95.9092091 530.24234,87.3678041 534.36044,78.7318838 L535.5892,76.1383 C537.8292,71.3783 540.2592,66.7083 542.1082,61.8073 C542.5382,60.6583 542.9582,59.5083 543.3682,58.3683 C537.0682,54.2383 532.1892,45.2983 530.4192,38.2983 C528.5792,31.0283 529.5092,23.5673 532.7882,16.9183 C533.4082,15.6683 535.4882,15.9773 535.7882,17.3073 Z M225.000123,312.7375 C224.1283,340.3785 223.5993,368.0485 222.2983,395.6685 L221.8493,405.0975 C223.8783,407.3585 225.0683,409.9675 224.1183,413.5485 C223.7493,414.9185 222.6583,416.1585 221.2983,416.6185 L220.874286,425.385375 C218.944411,464.830129 216.682093,504.192983 212.5483,543.5385 C207.3783,592.7785 201.3983,641.9375 195.4293,691.0885 C194.5793,698.0485 189.7383,703.5675 182.2083,702.5485 C174.5893,701.5175 171.4993,694.8875 172.4993,687.9775 C176.4293,660.8685 180.2083,633.7375 183.5193,606.5385 L187.289211,575.549661 C192.016433,536.812569 196.854826,498.081447 202.4293,459.4675 C204.7593,443.3285 207.1793,427.1985 209.6083,411.0675 L208.7593,409.9675 C205.2883,405.4585 201.6983,401.0485 198.1483,396.6085 C191.3293,388.0485 184.5993,379.5575 178.3493,370.5975 C178.0383,370.1475 178.6693,369.4875 179.1183,369.8285 C187.8783,376.2985 196.1693,383.2175 204.5093,390.2485 L211.8093,396.4275 C216.0093,368.5575 220.1693,340.6775 223.8783,312.7375 C223.9693,312.0385 225.0193,311.9875 225.000123,312.7375 Z M351.0092,48.2183 C345.7382,53.1873 340.3492,58.0483 335.0382,62.9883 L333.092886,64.8063705 L331.156569,66.632809 C321.822935,75.4840025 312.880442,84.6976939 305.4292,95.2783 C291.7492,114.7083 283.5992,138.3973 289.2882,162.1183 C294.0092,181.7673 304.8392,199.5783 307.7492,219.7183 C309.2082,229.8083 308.4992,239.9483 304.6982,249.4773 C300.8182,259.1983 294.6182,267.5283 289.0482,276.2983 C276.9482,295.3583 275.2982,316.2783 276.4992,338.3583 C277.7592,361.4183 280.4082,384.4873 283.6792,407.3383 C290.2982,453.6383 300.2782,499.4583 313.4882,544.3283 C320.0992,566.7983 327.9082,588.7883 335.6792,610.8683 C339.5482,621.8583 344.0592,632.5883 348.7082,643.2673 C351.1582,648.8883 353.6692,654.4773 356.2192,660.0573 C355.2782,652.1783 355.2782,644.0883 354.8182,636.2583 C354.1582,625.0383 353.3182,613.8383 352.5482,602.6283 C350.9792,579.8783 349.5792,557.1083 348.3292,534.3383 C343.8992,453.1383 340.6392,371.8683 340.8782,290.5383 C340.9992,249.8683 341.8292,209.1983 343.5792,168.5673 C344.3996,149.433967 345.98832,130.318927 347.424189,111.212424 L347.7292,107.1183 C348.9992,89.9683 350.5192,72.7783 353.1282,55.7783 C352.355756,54.0351889 351.685237,52.2699543 351.18758,50.4594193 L351.0092,49.7783 L351.1392,49.7983 C351.0192,49.2673 350.9792,48.7383 351.0092,48.2183 Z M396.5894,-21.6619 C396.6984,-22.1319 397.3684,-22.0919 397.4884,-21.6619 C400.4584,-11.6619 399.4084,-0.6619 396.8494,9.3981 C395.4694,14.8481 393.5094,20.1381 391.1394,25.2381 L390.31003,27.0228656 C388.279392,31.3662726 385.992945,35.8414333 382.0384,38.5481 C380.3894,39.6781 377.4384,39.7481 375.7884,38.5481 L374.946919,37.9095815 C374.8084,37.8014333 374.671733,37.6914333 374.5384,37.5781 C372.9994,36.2881 372.2384,33.4381 372.9484,31.5581 C374.7784,26.7081 378.9294,23.1481 381.7984,18.8281 C384.3394,14.9881 386.5894,10.9381 388.4584,6.7281 C392.4884,-2.3819 394.2984,-12.0519 396.5894,-21.6619 Z" id="ðŸ–-Ink" fill="#000000"/>
    </g>
</g><g transform="translate(200, 50)">
    <!-- Generator: Sketch 62 (91390) - https://sketch.com -->
    <title>head/mono/Bangs 2</title>
    <desc>Created with Sketch.</desc>
    <g id="head/mono/Bangs-2" stroke="none" stroke-width="1" fill="none" fill-rule="evenodd">
        <path d="M389.5309,161.6855 C329.3989,121.8825 208.9309,126.2055 142.7369,150.5915 C78.1489,171.0745 55.5359,228.1495 44.8119,289.8125 C31.7769,359.1155 33.5289,459.0185 127.2629,457.8095 C140.4409,464.1825 155.0399,466.9465 168.6749,472.2245 C187.3369,478.6765 205.6349,486.1665 224.5719,491.8175 C261.8699,503.8295 303.3739,502.7845 338.7549,485.2075 C358.302308,475.76506 366.393069,461.060213 379.176408,445.391243 C416.366531,399.806056 435.079833,334.567807 433.4039,276.6045 C430.4629,235.7895 423.7119,188.5415 389.5309,161.6855 Z" id="ðŸŽ¨-Background" fill="#FFFFFF"/>
        <path d="M465.6238,329.6952 C459.4538,291.3952 457.7438,252.4452 449.6638,214.4452 C442.0638,178.6862 427.8538,144.8952 403.0238,117.6352 C380.8038,93.2452 352.0738,75.3352 321.2338,63.9852 C261.1538,41.8752 192.0538,46.8752 133.9338,72.6862 C79.5338,96.8352 36.1438,141.5152 10.8538,195.1352 C-5.5762,229.9752 -13.8362,267.0152 -17.5062,305.2452 C-21.5762,347.7152 -22.0162,390.6252 -23.6762,433.2452 C-23.8762,438.5052 -24.1662,443.7652 -24.2362,449.0262 C-24.3162,454.7852 -21.9862,459.8352 -20.0862,465.1952 C-19.9562,465.5752 -19.7662,465.9362 -19.5362,466.2762 C-20.9662,466.4552 -22.3962,466.6652 -23.8262,466.8952 C-25.4262,467.1452 -25.3562,469.7452 -23.8262,470.0552 C-10.8762,472.6952 2.4338,473.0652 15.6038,473.7152 C29.2538,474.3952 42.9238,474.7662 56.5938,475.2252 C69.9238,475.6752 83.2538,476.1252 96.5838,476.5752 C103.5838,476.8152 110.5838,477.0552 117.5838,477.2852 C120.9138,477.3952 124.2438,477.5162 127.5838,477.6252 C129.2438,477.6862 130.9138,477.7342 132.5738,477.7952 C133.9238,477.8352 136.1238,478.6952 136.2638,477.7052 C136.5138,477.8562 136.7838,477.9842 137.0738,478.0752 C137.3938,478.2452 137.7038,478.4452 138.0038,478.6652 C139.6338,479.7852 142.1038,479.6452 143.7538,478.6652 C143.9038,478.5752 144.0638,478.4752 144.2238,478.3752 C145.4538,477.6452 146.3138,476.5852 146.7938,475.3852 C153.6338,483.6452 165.7438,474.3652 158.7438,465.6252 C154.9838,460.9252 117.5838,345.6952 133.0638,257.9152 L195.1438,249.6952 C202.710467,248.928533 213.5338,247.781867 227.6138,246.2552 C231.060467,235.008533 233.277133,227.5752 234.2638,223.9552 C234.3738,223.5552 234.4838,223.1452 234.6038,222.7452 C236.0838,225.3562 237.5738,227.9552 239.0738,230.5552 L246.7338,246.1252 C322.107133,244.8652 369.0338,244.2952 387.5138,244.4152 C387.9838,244.4152 390.2138,278.1152 389.2038,292.9552 C387.1638,322.7552 384.9938,352.5352 381.9738,382.2552 C380.04628,401.285639 375.400261,419.948515 368.479319,437.488282 C357.546563,465.1952 325.804325,491.530499 294.8538,491.530499 C275.588137,491.530499 232.0538,475.9272 225.7138,472.7762 C219.3738,469.6252 215.59607,478.2252 221.3738,481.6652 C233.077576,488.633506 265.339302,503.4152 294.8538,503.4152 C337.716649,503.4152 370.0738,462.7452 374.0438,456.9152 C413.0738,454.7762 452.9938,455.7652 491.9738,459.6352 C495.2438,459.9552 498.0638,456.0152 497.0138,453.0052 C483.0138,412.9362 472.3638,371.6062 465.6238,329.6952 Z" id="ðŸ–-Ink" fill="#000000"/>
    </g>
</g><g transform="translate(320, 250)"><g>
    <!-- Generator: Sketch 62 (91390) - https://sketch.com -->
    <title>face/Calm</title>
    <desc>Created with Sketch.</desc>
    <g id="face/Calm" stroke="none" stroke-width="1" fill="none" fill-rule="evenodd">
        <path d="M171.041749,240.15887 C163.675125,242.292501 155.767928,242.483273 148.258906,240.279784 C141.4481,238.280984 134.454927,233.882403 129.442325,228.062017 C124.989403,222.891504 122.105494,216.608051 122.218765,209.900917 C122.23165,209.134907 122.505549,208.495522 122.926888,207.999233 C123.380478,207.464958 124.014007,207.098085 124.692682,206.938847 C125.390651,206.775083 126.128513,206.833141 126.756813,207.118539 C127.325595,207.376901 127.812904,207.815736 128.117618,208.457126 C128.887965,209.469087 129.655321,210.466061 130.425688,211.435384 C136.619652,219.083686 142.618023,224.799426 151.931921,226.849502 C156.985367,227.962038 162.032458,227.4687 166.663343,225.771293 C171.620483,223.954301 176.101584,220.7596 179.613092,216.671419 C181.200004,214.823854 183.073535,214.069743 184.905526,214.057068 C186.981571,214.042704 189.033559,215.007378 190.57944,216.549217 C192.09898,218.064783 193.116434,220.124293 193.208649,222.278695 C193.289584,224.169532 192.672753,226.144647 191.031753,227.906756 C185.626535,233.711247 178.621333,237.963558 171.041749,240.15887 Z M170.814304,144.367155 C178.365682,148.9572 189.871664,159.660291 181.748119,171.039573 C172.185929,181.073062 158.418535,169.568982 151.634201,164.366134 C145.343449,160.333898 138.275437,170.704507 144.112,175.412823 C193.135736,211.708059 213.030606,145.567387 174.633685,138.970386 C170.406047,138.243425 168.835891,142.947174 170.814304,144.367155 Z M100.174958,124.170086 C97.7478949,122.617925 94.8928863,122.085145 91.7287079,123.524696 C89.2560287,124.649136 84.9192282,128.39769 81.9011027,133.325394 C79.8363008,136.696603 78.3721211,140.651472 78.6769434,144.770947 C78.7477349,145.727649 78.3942255,146.433054 77.8366311,146.954624 C77.3962557,147.366548 76.7601476,147.669274 76.0129997,147.763908 C75.3786744,147.844253 74.6686661,147.771772 74.0913555,147.591587 C72.9931588,147.248829 72.4119407,146.536464 72.1929489,145.954883 C70.0797393,140.342792 70.9901323,134.080043 73.3585073,128.429944 C76.5547725,120.804793 82.3592783,114.41778 86.1622145,112.358526 C92.669833,108.833475 100.346995,108.671236 106.863929,112.262379 C112.411467,115.318853 115.880218,120.253414 119.330136,125.2834 C120.06351,126.352661 120.791391,127.414081 121.543672,128.456831 C123.05132,130.546275 123.201386,132.618559 122.617532,134.395557 C121.970727,136.36415 120.32151,138.025511 118.259199,138.894957 C116.353068,139.69856 114.140756,139.811681 112.183119,138.985995 C110.529381,138.288488 109.0117,136.92878 108.051384,134.621701 C106.434021,130.736299 103.739338,126.449586 100.174958,124.170086 L100.174958,124.170086 Z M223.440775,132.814369 C221.778563,133.680468 220.478145,133.941602 218.634261,133.389159 C217.614596,133.082886 216.606823,132.495899 215.817824,131.706899 C215.035882,130.924958 214.471712,129.952552 214.252419,128.873803 C213.713072,126.211477 212.256412,123.719368 210.18061,122.094757 C208.406384,120.706172 206.16691,119.97019 203.68291,120.385402 C201.002485,120.832856 198.448729,122.551933 196.689869,124.578687 C196.102007,125.256875 195.641205,126.027105 195.177941,126.792136 C194.311333,128.22283 193.469024,129.552694 192.273843,130.603376 C191.82079,131.003129 191.138107,131.28 190.476901,131.28 C190.208169,131.28 189.935444,131.236271 189.675563,131.155276 C187.007679,128.47758 186.494623,126.446273 186.580635,124.431485 C186.670832,122.318684 187.503809,120.179493 188.849905,118.183565 C192.007516,113.501608 198.002761,109.662839 202.048399,108.79334 C207.588873,107.602708 213.091225,109.031983 217.502758,112.126467 C222.041966,115.310509 225.405508,120.254035 226.454161,125.825144 C226.706431,127.166899 226.599231,128.615171 226.088238,129.870886 C225.588922,131.097909 224.71878,132.148831 223.440775,132.814369 Z M112.394258,74.2526486 C109.069304,77.4921444 105.133931,77.9939318 101.152655,78.4402385 C98.9405594,78.6905522 97.1746454,78.8923401 95.4369094,79.2844431 C90.6605649,80.3626109 85.9393099,81.9864477 81.6319378,84.3250848 C77.1292738,86.7698547 72.2223932,89.7182412 68.6922598,93.4953513 C67.8528342,94.3941678 67.061542,95.3372855 66.2691444,96.2824677 C65.5465882,97.1443561 64.8505415,97.9741006 64.1169766,98.7741419 C63.2745284,99.6930924 62.474532,100.656215 61.6787885,101.616822 C61.1867388,102.427379 61.0895404,102.626735 60.9904523,102.834265 C60.8413425,103.146109 60.6678954,103.495099 60.4697946,103.869494 C60.1984889,104.382242 59.8807027,104.94353 59.5478797,105.452422 C58.9941378,106.382586 58.6970103,106.638799 58.44026,106.753401 C58.0142242,106.943142 57.6101892,107.036611 57.2182099,106.985995 C56.8506749,106.938536 56.5044166,106.762013 56.1624818,106.47304 C54.4554262,105.030757 53.951973,102.663788 54.003574,100.151245 C54.0818781,96.3384852 55.4881691,92.117066 56.7845563,89.5220553 C59.7989145,83.4923568 63.9794222,77.2240967 69.0062346,72.7238372 C74.7422821,67.5868727 81.0177087,63.6979271 88.2256814,61.0181785 C92.7050141,59.3522788 97.8912946,57.8231463 102.771356,58.0162973 C106.284021,58.1553272 109.63736,59.1994956 112.406688,61.8070554 C114.107217,63.4077623 114.923517,65.6846039 114.923517,67.9598329 C114.923517,70.2803828 114.075698,72.6146356 112.394258,74.2526486 Z M230.202983,103.917581 C229.991535,104.264137 229.698869,104.50296 229.373218,104.646395 C229.031839,104.796759 228.650729,104.840068 228.284999,104.778443 C227.920889,104.717091 227.574779,104.552038 227.300232,104.299793 C227.037084,104.058021 226.836702,103.737376 226.747103,103.344559 C224.539595,93.6490336 220.253164,86.4354186 211.104309,81.7836507 C206.603851,79.4952872 201.428751,78.0413484 196.529682,76.8821344 C195.106038,76.5452379 193.601743,76.3269526 192.086825,76.1057581 C187.338965,75.4125185 182.556847,74.6185951 179.461645,70.7808275 C177.596631,68.4690944 176.81391,65.5126371 177.256458,62.8088302 C177.67314,60.2630482 179.160769,57.9287462 181.865031,56.529874 C188.597516,53.048922 196.963943,56.4646469 203.762668,59.3743755 C204.266993,59.5902173 204.762058,59.8021006 205.246454,60.0065439 C211.895078,62.8129721 217.958974,66.5173942 222.943608,71.815137 C226.89868,76.0180237 230.563109,82.2312248 232.038949,88.62289 C233.266795,93.9405248 232.978088,99.3690991 230.202983,103.917581 Z" id="ðŸ–-Ink" fill="#000000"/>
    </g>
</g></g><g transform="translate(210, 310)"><g>
    <!-- Generator: Sketch 62 (91390) - https://sketch.com -->
    <title>accessories/* None</title>
    <desc>Created with Sketch.</desc>
    <g id="accessories/*-None" stroke="none" stroke-width="1" fill="none" fill-rule="evenodd"/>
</g></g>
          </g>
        </g>
      </svg>