<svg id="avatar-svg" transform="translate(-40, 0)" width="32" height="32" class="path1" viewBox="0 0 700 700" fill="none" stroke="black" strokewidth="0.8" strokelinecap="round" strokelinejoin="round" xmlns="http://www.w3.org/2000/svg">
        <style>
          @media (prefers-reduced-motion){.path1{animation:none!important;stroke-dasharray:unset!important}}@media print{.path1{animation:none!important;stroke-dasharray:unset!important}}@keyframes grow{0%{stroke-dashoffset:1px;stroke-dasharray:0 1000px;opacity:0;fill-opacity:0}10%{opacity:1;fill-opacity:0}60%{stroke-dasharray:1000px 0;fill-opacity:1;stroke-opacity:0}to{stroke-dasharray:1000px 0;fill-opacity:1;stroke-opacity:0}}.path1 g g path{stroke-dashoffset:1px;stroke-dasharray:1000px 0;animation:grow 7s linear forwards;transform-origin:center;stroke:#a2a0a0;stroke-width:10px;animation-delay:0s}
        </style>
        <g>
          <g>
            <g transform="translate(0, 550)">
    <!-- Generator: Sketch 62 (91390) - https://sketch.com -->
    <title>body/mono/Coffee</title>
    <desc>Created with Sketch.</desc>
    <g id="body/mono/Coffee" stroke="none" stroke-width="1" fill="none" fill-rule="evenodd">
        <path d="M394.2068,3.1729 C418.8918,-15.6241 480.8648,-24.0771 507.2108,-5.9781 C533.2328,12.1969 536.069638,41.5883634 548.195638,68.6263634 C559.636638,63.2313634 578.530229,70.9579 581.847229,81.5739 C585.961229,86.5809 586.145998,100.64826 588.982998,107.37926 C712.424998,127.02826 731.1658,223.2669 746.0238,332.5249 C765.6798,443.3939 810.3008,554.0209 790.9298,668.1069 C793.4538,671.7589 795.4438,675.3089 797.2838,679.5249 C801.6928,687.0269 796.0138,697.6459 787.1208,697.2349 C775.6098,696.2239 764.2128,694.8439 752.6478,694.4129 C720.588061,693.299509 688.499044,693.432257 656.427132,693.839725 L652.0538,693.8969 C490.4208,695.9089 328.7968,699.8739 167.1568,700.925422 C161.2928,700.9339 158.4218,695.6749 159.2048,690.4869 C160.7818,680.0419 162.2448,669.5919 163.7718,659.1419 C125.5398,669.2399 84.8958,671.7809 46.7718,660.2039 C44.1048,657.4869 52.9858,658.9599 54.3948,658.5469 C19.3088,634.5719 29.7868,584.0649 32.8948,547.6869 C52.2208,423.0359 59.0338,285.1179 133.7028,178.7509 C166.0058,135.3429 213.3648,100.9749 267.7838,93.2419 L269.293546,93.035189 C285.20561,90.9135419 302.939462,90.2301 316.8518,81.5739 C332.499012,69.0825922 339.166888,46.0019623 355.628414,45.7858969 C361.064093,45.7145511 368.45859,52.5910741 376.4158,57.2599 C377.009823,46.9892609 382.544791,38.321766 383.766848,30.3584013 L383.865773,29.6773877 C385.140963,20.3932047 383.394545,12.0403975 394.2068,3.1729 Z M659.495079,335.818126 C624.804348,311.718621 535.191382,323.827673 533.139925,325.177149 C528.622925,328.148149 526.6778,328.4109 524.2348,332.2689 C521.8228,332.5889 519.4128,332.9209 517.0048,333.2629 C512.1738,334.8409 515.7538,340.7829 521.3338,338.6629 C517.977551,353.137197 527.854675,363.430879 531.7868,377.740285 C533.063533,382.386449 531.83288,390.742646 531.7868,395.4899 C532.168125,401.5428 538.86033,408.69252 537.744968,414.765135 C533.779665,436.354329 512.261625,457.414218 521.3338,478.351088 C527.3438,490.176088 545.4198,496.2059 557.4378,500.2259 C582.3368,509.7819 625.721011,499.866088 640.188011,478.351088 C647.904493,466.875308 656.844395,437.927628 661.445395,428.948628 L662.465187,414.705045 C664.980126,379.298227 667.217186,341.182641 659.495079,335.818126 Z" id="ðŸŽ¨-Background" fill="#FFFFFF"/>
        <path d="M349.5843,43.698 C351.9793,41.577 355.5233,44.242 354.0013,47.107 C350.5813,53.546 347.0733,59.647 342.4833,65.339 C339.7003,68.79 336.7193,72.054 333.6983,75.282 C341.4513,81.989 348.1003,90.316 354.3793,98.12 C362.4083,108.101 369.9993,118.505 379.0123,127.638 C387.901066,136.645191 397.729531,142.941527 409.613343,147.140145 L412.013503,147.973798 C423.95171,152.164877 436.71117,157.824783 443.4403,169.128 C444.7673,171.357 442.0953,174.111 439.8493,172.72 C428.1563,165.48 414.4173,164.024 401.6893,159.24 C389.3943,154.619 378.6763,147.507 369.2063,138.43 C359.7523,129.368 351.8143,119.058 343.5343,108.966 C335.3463,98.987 326.5303,90.464 316.8453,82.021 C301.899774,92.075386 284.83982,96.4503321 267.492758,100.747282 L265.5993,101.216 C248.2313,105.516 230.9563,110.51 214.6623,117.998 C200.2963,124.599 186.1663,132.482 174.4643,143.224 C162.0423,154.624 152.3743,169.184 143.5253,183.423 C123.7313,215.279 109.8153,250.179 97.5643,285.503 C84.8223,322.245 74.1643,359.723 65.5603,397.646 C61.1843,416.936 57.6303,436.363 54.7093,455.926 C53.3033,465.348 52.0543,474.79 50.9573,484.253 C49.7863,494.358 49.5173,504.754 46.4173,514.47 C45.0883,518.634 41.9503,520.362 38.8093,520.215 L38.171324,528.193768 C37.32534,538.83172 36.5367,549.473 36.2703,560.177 C35.828387,577.975 36.0287575,595.721764 37.3089886,613.482053 L37.4903,615.904 C38.4963,628.866 40.7443,643.43 50.4913,652.921 C60.5853,662.751 76.1083,665.842 89.7133,666.019 C121.4003,666.432 151.9023,651.46 179.9423,638.325 C208.8203,624.798 236.9093,609.783 264.3253,593.499 C278.2873,585.206 292.0983,576.637 305.7333,567.818 C312.4243,563.489 319.0683,559.087 325.6623,554.614 C329.4393,552.052 333.0183,549.243 336.8633,546.97 C334.9793,545.216 334.1383,542.458 335.7163,540.05 C324.6013,530.402 319.9753,513.185 319.4343,499.254 C318.9973,488.009 320.6523,476.796 321.9583,465.657 C322.6173,460.04 323.4313,454.433 324.2763,448.841 C324.6103,446.632 324.8653,444.269 325.2553,441.937 C295.2423,458.43 264.3883,473.118 232.7173,486.167 C216.4833,492.856 200.0413,498.87 183.3723,504.381 L179.993754,505.492615 C164.199838,510.662498 148.028033,515.546133 131.7003,518.502 C130.8273,518.66 130.1183,517.371 131.0503,516.96 C146.9623,509.939 163.4253,504.017 179.5763,497.551 L182.2303,496.47 L182.2303,496.47 C181.9253,496.453 181.6093,496.411 181.2793,496.332 C171.8073,494.046 162.4093,490.523 153.1193,487.557 C144.4973,484.804 134.8103,483.075 126.7513,478.919 C126.1313,478.599 126.4783,477.737 127.0823,477.696 C136.1403,477.068 145.9733,479.708 154.8543,481.261 L158.190596,481.845403 C163.779578,482.830889 169.492633,483.890333 175.0543,485.272 C175.2553,483.409 176.2963,481.538 177.7773,480.441 C194.0743,468.372 192.4193,443.996 194.1623,426.021 L195.454789,412.675974 C197.728212,389.320741 200.1333,365.96864 203.7873,342.788 C203.9823,341.55 205.8973,341.905 205.9053,343.074 C206.093762,371.808615 203.924605,400.411019 202.837356,429.100794 L202.668999,433.807256 C202.067921,451.510045 201.596835,469.892326 190.4473,483.514 C192.0063,482.603 194.1143,482.603 195.3773,484.105 C196.9293,485.952 197.8253,488.026 197.7973,490.061 C207.8723,485.837 217.9033,481.503 227.8853,477.081 C259.9783,462.863 291.3983,446.952 321.9873,429.736 C325.2793,427.883 328.4083,429.339 330.0363,431.782 L330.271263,431.748296 C330.310522,431.743 330.3503,431.739 330.3913,431.738 L330.6243,431.728 C330.6333,431.728 330.6423,431.729 330.6503,431.729 C334.9563,429.363 340.8223,431.048 344.5173,434.499 C344.6263,434.603 344.7193,434.715 344.8163,434.825 C349.4943,432.725 353.8623,429.89 357.8263,426.297 C365.9383,418.945 372.8093,409.854 378.7993,400.738 C389.8303,383.948 399.2003,365.277 414.1013,351.456 C426.2083,340.227 441.2183,333.236 456.9653,328.847 C456.8993,328.387 457.0753,327.897 457.3933,327.571 C458.2023,326.742 458.7793,326.455 459.8243,326.958 C459.9073,326.999 459.9573,327.055 459.9913,327.115 L461.527917,324.489527 C462.366661,323.064925 463.227921,321.629931 463.5263,321.253 C465.3143,319.002 467.1543,316.768 469.0223,314.581 C472.1893,310.878 475.7983,307.224 479.9773,304.656 C489.1273,299.035 498.7463,302.216 508.1533,305.288 C513.8373,307.145 519.5023,309.062 525.1763,310.947 L525.7616,311.138131 C529.99246,312.49748 534.9433,313.686489 536.8353,318.169 C537.5843,319.943 537.7003,321.784 537.3513,323.57 C577.5353,313.351 622.1673,318.046 661.3803,330.042 C662.8853,330.502 664.3883,331.74 664.7053,333.366 C669.1983,356.407 671.1993,380.036 669.1663,403.47 C667.4123,423.698 662.9303,443.521 654.4843,462.04 L654.004113,463.085607 C646.066578,480.248109 633.4862,501.40478 614.2733,506.784 C602.6723,510.032 589.8413,508.117 578.0093,507.522 C566.5103,506.943 554.7563,506.859 543.3663,505.051 C533.2223,503.441 524.3343,498.894 518.0653,490.646 C512.6573,483.53 509.8093,474.93 507.4763,466.375 C506.4083,466.715 505.3473,467.076 504.3033,467.485 C499.8963,469.206 496.1623,471.984 492.7863,475.253 C485.6573,482.157 480.1273,490.542 472.6683,497.13 C465.9163,503.094 458.2223,507.732 449.9693,511.298 C432.868005,518.687159 414.522263,521.640055 396.432913,525.556153 L395.1713,525.831 C381.5533,528.819 367.6533,532.488 355.6333,539.578 C355.3983,541.665 354.4473,543.629 352.9233,544.915 C355.0433,546.906 355.9413,550.059 354.0783,553.017 C348.874428,561.275468 339.9108,565.974382 331.863759,571.255698 L331.3403,571.601 C323.4243,576.849 315.4393,581.993 307.3893,587.032 C291.0243,597.278 274.3173,606.96 257.3743,616.216 C230.1233,631.103 202.2873,645.146 173.9473,657.884 C175.6483,666.2525 175.026761,674.881591 176.305274,683.305961 L176.5013,684.508 C177.047467,687.6342 176.309707,690.250193 174.156139,692.292749 L173.9283,692.502 L173.9323,692.474 L173.7303,692.659 L173.662783,692.715551 L173.6853,692.698 C173.43705,692.92525 173.180925,693.13675 172.919878,693.318156 L172.5873,693.532 L172.5873,693.532 C170.513078,694.792519 167.842603,694.778003 165.718856,693.665257 L165.4763,693.532 L165.0683,693.298 C162.2623,691.684 160.3273,687.685 161.4913,684.508 C164.3523,676.7 165.4333,668.367 168.0753,660.507 L165.9793,661.444 L165.9793,661.444 L163.216737,662.64807 C133.338807,675.567808 100.15047,686.4476 67.5963,677.64 C53.2123,673.747 39.7683,665.513 32.5713,652.092 C25.4893,638.886 24.4883,623.552 24.1123,608.862 C23.6483,590.731 24.6203,572.323 27.0113,554.348 C28.6163,542.282 30.5573,529.988 33.5513,518.047 C32.0113,516.688 30.8793,514.739 30.5803,512.325 C29.1673,500.92 31.6403,489.063 33.1543,477.717 C34.6333,466.639 36.2673,455.583 38.1153,444.561 C41.8463,422.302 46.1813,400.09 51.2283,378.092 C60.2103,338.941 72.0713,300.486 86.3513,262.95 L87.6018394,259.680376 C100.797312,225.371633 116.075685,191.794169 137.3503,161.654 C147.5273,147.234 158.2853,134.16 172.6653,123.769 C186.1373,114.033 201.3333,107.023 217.0153,101.665 C232.7143,96.303 248.8503,92.71 265.2713,90.475 C281.9483,88.205 299.5513,86.813 315.1083,79.973 C313.1403,76.445 314.8293,71.682 318.1413,69.494 C329.2873,62.13 339.5943,52.55 349.5843,43.698 Z M706.39,363.9193 C706.857,363.2103 707.966,363.6583 707.761,364.4973 C702.34,386.7063 697.251,408.9603 693.928,431.5933 C687.929424,472.442995 689.03284,513.826137 689.523222,554.977967 L689.548,557.1063 C689.8,579.2723 690.15,601.4403 690.883,623.5973 C691.253,634.7953 691.985,646.1033 691.587,657.3073 C691.37,663.3853 689.75,669.1343 689.176,675.1393 C688.673,680.3903 689.121,685.7223 689.372,690.9803 C689.54,694.4763 684.38,694.3273 684.029,690.9803 L683.5802,686.651143 C682.997148,681.172482 682.2765,675.7273 680.481,670.4833 C678.322,664.1763 677.286,657.9823 676.537,651.3603 C675.38975,641.212988 674.879551,630.964011 674.43677,620.745319 L674.134,613.6773 C672.285023,570.973067 672.349829,528.068489 675.343194,485.408985 L675.562,482.3623 C678.526,442.0383 683.669,398.4693 706.39,363.9193 Z M590.8351,109.7726 C589.4191,109.1906 589.9151,107.0496 591.4831,107.4226 L594.334651,108.102798 C615.229225,113.107507 635.744578,118.529904 655.2471,127.8426 C674.7621,137.1606 691.2841,151.0716 704.4121,168.1776 C729.9321,201.4286 740.5371,241.8386 748.9091,282.2106 C758.2131,327.0716 766.6841,372.0966 776.0691,416.9436 L777.811874,425.297338 C786.495885,467.066944 794.69485,508.860225 800.7361,551.1246 L801.170066,554.189934 C807.262253,597.651439 810.926686,642.617887 804.2791,686.1926 C802.9641,694.8136 788.6181,692.6666 789.1791,684.1496 C790.7991,659.5266 791.9591,635.0326 790.8381,610.3546 C789.7161,585.6716 787.4011,561.0966 783.9501,536.6296 C781.04595,516.0393 776.716753,495.70531 772.8856,475.278678 L772.2851,472.0526 C769.0771,454.679 765.7699,437.32268 762.469996,419.965208 L757.538635,393.977279 C750.14761,355.06424 742.612,316.1171 734.0971,277.4486 L733.591791,275.173222 C725.258966,237.971086 712.974,199.0017 687.9791,169.4596 C662.6141,139.4786 626.3031,124.3796 590.8351,109.7726 Z M498.6681,504.3703 C499.2781,503.0113 501.4121,503.1603 502.0681,504.3703 C504.638467,509.112767 504.924117,515.166259 505.410018,520.520039 L505.4611,521.0713 C506.0791,527.6043 506.6261,534.1593 506.9611,540.7133 C507.5961,553.1523 507.9001,565.5753 507.8611,578.0303 C507.8211,590.7943 507.5641,603.5433 506.8761,616.2883 L506.689393,619.703366 C506.061312,630.779011 505.007892,643.132885 499.7451,652.8153 C497.8321,656.3363 492.6291,655.3013 491.5211,651.7413 C487.8911,640.0853 489.7551,626.2653 490.6861,614.3273 L491.409037,605.012159 C492.124912,595.695988 492.8076,586.3763 493.3491,577.0493 C494.0911,564.2883 494.7031,551.5163 495.2921,538.7493 C495.483433,534.602633 495.690322,530.454633 495.908915,526.307967 L496.2451,520.0893 C496.5321,514.8873 496.5081,509.1793 498.6681,504.3703 Z M90.520319,520.889811 L92.1272601,519.337537 C97.0602589,514.510056 103.294067,507.0751 110.5866,507.5362 C113.4946,507.7202 115.3476,510.1342 114.7446,512.9952 C113.4566,519.1112 107.2176,522.2852 102.7266,526.0192 C97.8066,530.1082 93.1696,534.4792 88.5416,538.8922 C84.4358222,542.805089 80.487279,546.829385 76.6334628,550.979136 L75.1926,552.5412 C73.8111846,554.048646 63.9740741,562.946343 65.0376855,565.254867 L65.0956,565.3582 C65.3916,565.8002 64.8986,566.4082 64.4076,566.2532 C60.1596,564.9112 60.4246,561.2702 62.0306,557.5812 C65.1166,550.4932 70.5206,543.9362 75.2396,537.8832 C79.94585,531.844763 85.0396977,526.222048 90.520319,520.889811 L90.520319,520.889811 Z M514.0613,343.137 C510.7763,335.373 498.6753,335.536 491.8053,336 C474.5053,337.169 455.7873,341.546 440.3943,349.632 C424.435654,358.015015 413.685956,371.447017 404.067359,386.299751 L403.6173,386.997 C394.2423,401.57 385.2133,418.821 370.5333,428.841 C363.0563,433.946 354.3253,438.607 345.2533,440.626 C344.6303,441.721 343.6213,442.588 342.2983,442.903 L341.68329,443.043736 C339.099483,443.614225 335.085377,444.245538 331.6183,443.868 C331.6413,445.564 331.6233,447.247 331.6663,448.854 C331.7883,453.459 331.8403,458.084 331.8403,462.692 C331.8423,472.347 331.3233,482.021 331.7263,491.675 C332.0833,500.214 333.2893,509.136 337.3893,516.769 C340.3963,522.369 344.3653,526.075 349.1563,529.613 C360.9423,522.43 374.2693,518.052 387.7953,514.76 C404.1533,510.779 420.9023,508.122 436.8883,502.724 C444.5823,500.125 451.9793,496.724 458.6813,492.105 C465.7943,487.2 471.2273,480.564 476.8173,474.073 L477.691047,473.064521 C483.395913,466.521746 489.620763,460.261098 497.6833,456.714 C504.6263,453.658 513.7773,453.114 519.8483,448.386 C523.0223,445.912 523.2883,442.322 523.6223,438.646 C519.7343,439.202 515.6183,438.311 511.7433,437.857 L509.735612,437.621348 C506.071401,437.185994 502.491454,436.707462 498.8843,435.775 C498.2143,435.602 498.2143,434.592 498.8843,434.419 C503.1473,433.318 507.3723,432.849 511.7433,432.337 L512.769954,432.208968 C516.724241,431.690379 520.88058,430.90768 524.7593,431.778 C525.4553,429.13 526.4603,426.602 527.8703,424.07 C529.8493,420.513 533.5943,416.48 534.1003,412.325 C534.2513,411.084 533.9623,409.621 533.3773,408.524 L533.175659,408.150069 C532.929843,407.708444 532.638522,407.264333 532.2123,406.989 C532.1653,407.044 532.0653,407.107 531.8483,407.175 C528.8633,408.115 526.2593,406.654 524.8773,404.402 C519.0103,405.13 512.6073,404.885 507.1053,405.128 L501.542325,405.397068 C495.5982,405.669584 489.384024,405.788897 483.7983,404.588 C483.0183,404.421 482.7823,403.123 483.5633,402.789 C490.4303,399.852 498.7603,398.915 506.1123,397.787 C510.2183,397.156 514.3543,396.676 518.4723,396.121 C521.2143,395.751 524.1243,395.14 526.9653,394.993 C534.0883,386.126 530.2503,372.138 520.3373,368.32 C516.7263,369.907 513.4793,368.984 509.5343,368.645 C505.5963,368.307 501.6483,368.078 497.6943,368.095 C489.7713,368.13 481.3753,370.214 473.5293,369.317 C472.2533,369.17 471.0673,367.472 472.3363,366.436 C478.342278,361.534935 486.949614,359.936904 494.57324,358.892455 L496.1533,358.681 C498.7093,358.346 501.8173,357.857 505.0413,357.566 C505.7703,356.144 507.0783,355.069 509.0433,354.802 C509.6273,354.722 510.2143,354.675 510.8003,354.625 L510.7913,354.567 L510.7913,354.567 C515.5833,354.337 515.3753,346.243 514.0613,343.137 Z M185.9923,494.562 C185.907633,494.692667 185.814967,494.817111 185.716374,494.936815 L185.5643,495.113 L186.3523,494.793 L185.9923,494.562 L185.9923,494.562 Z M597.6833,325.788 C577.5133,323.621 557.3143,324.078 537.0843,324.66 C535.4663,329.952 529.8343,334.462 524.3773,334.632 C528.6513,341.137 529.0923,349.941 526.0953,356.84 C532.4583,359.373 537.9403,363.923 541.2683,370.403 C545.8833,379.386 545.2793,389.382 540.7183,397.684 C544.6113,401.208 546.9083,406.931 546.6783,412.325 C546.4213,418.34 542.8363,423.478 539.8573,428.458 C536.6383,433.844 536.5303,438.586 535.5413,444.618 C534.0943,453.446 528.1403,458.8 520.4793,462.144 L520.886571,463.745955 C522.861686,471.434052 525.319148,479.546217 530.9643,485.168 C538.226173,492.400349 549.49185,492.333069 559.086377,492.791381 L559.5493,492.814 C568.3349,493.2532 577.11666,493.76792 585.899188,494.265488 L592.4863,494.634 C602.5983,495.19 612.3093,495.257 620.5643,488.572 C634.0413,477.66 643.2803,459.601 649.1283,443.614 C661.4023,410.058 661.5493,373.233 655.9153,338.285 C637.0203,332.195 617.4153,327.908 597.6833,325.788 Z M429.944515,381.459366 L430.0928,381.4702 C434.2458,381.9442 437.0988,385.3072 438.1148,389.2962 C439.5908,395.0942 438.8668,400.3362 442.4178,405.5702 C446.0708,410.9522 448.3168,415.2612 448.8478,421.9102 C449.0658,424.6462 448.9658,427.3752 449.5748,430.0532 L450.016391,431.929466 C450.485333,433.930127 450.869035,435.857141 450.6358,438.0052 C450.4228,439.9642 449.4688,441.4902 447.5038,442.1182 C441.1008,444.1662 436.1568,439.4482 434.5028,433.4812 C433.0738,428.3272 434.9818,422.1852 432.9658,417.3452 C431.8488,414.6622 429.7888,412.4182 428.6248,409.7172 C427.4718,407.0402 426.8928,404.2432 426.7078,401.3332 C426.3568,395.8292 431.2248,389.2162 428.5088,384.2292 C427.930455,383.1652 428.585442,381.427202 429.944515,381.459366 Z M344.8918,324.6613 C349.2278,323.7803 354.1468,321.7613 358.4228,323.4393 C360.6208,324.3033 361.7068,326.9833 359.8498,328.8463 C356.625629,332.078243 351.939707,332.258346 347.59704,333.020452 L347.2148,333.0893 C342.0798,334.0393 336.9358,334.9403 331.7848,335.7943 C322.0938,337.3993 312.3798,338.8183 302.6318,340.0243 C292.6198,341.2633 282.5798,342.3663 272.5258,343.1963 L268.633582,343.515639 C260.140796,344.194851 251.3038,344.707167 242.9708,343.4063 C241.7598,343.2173 241.9548,341.4543 242.9708,341.1453 C252.0998,338.3823 262.1138,337.6413 271.5518,336.4723 C281.5858,335.2273 291.6028,333.9123 301.5938,332.3523 C311.5688,330.7943 321.5308,329.1223 331.4558,327.2743 C335.9418,326.4403 340.4208,325.5693 344.8918,324.6613 Z M501.3463,315.79 C497.5413,314.443 493.3553,312.447 489.2323,313.115 C482.1223,314.267 475.7943,321.194 470.1663,325.756 L472.992185,325.206725 C487.451519,322.427664 506.599488,319.433875 518.7373,328.627 C518.7683,328.574 518.7923,328.521 518.8273,328.468 C519.8073,326.98 520.9423,325.819 522.1813,324.546 C522.299633,324.434333 522.414189,324.319 522.526856,324.201778 L523.1953,323.49 L521.666392,322.960359 C518.391631,321.80282 514.512083,320.308045 513.898792,320.089861 L513.8563,320.075 C509.6813,318.661 505.5013,317.263 501.3463,315.79 Z M382.5446,12.7157 C381.9496,5.0627 393.8606,5.1257 394.4506,12.7157 C395.7376,29.2857 392.0086,45.6987 383.9826,60.2257 C383.9236,60.3317 383.8586,60.4257 383.7966,60.5257 C388.8166,63.1377 393.8936,65.6437 399.0836,67.8837 C405.7226,70.7497 412.4866,73.3597 419.3716,75.5737 C425.5996,77.5777 433.2726,78.3687 438.5086,82.5387 C449.5496,91.3307 445.4016,109.5767 443.2776,121.4037 L442.946234,123.270733 C441.888661,129.356762 441.123763,135.60077 443.6896,141.4417 C446.4296,147.6807 451.9706,152.3087 456.9136,156.7727 L457.911959,157.677922 C462.290998,161.667159 467.294671,166.5147 470.5066,171.9227 C473.4386,165.8607 477.4356,160.9067 481.6616,155.3297 C484.6766,151.3497 482.5306,150.0377 480.3646,146.1497 C478.2796,142.4077 477.2616,138.4187 477.9136,134.1497 C479.1166,126.2657 485.4176,120.5707 491.6896,116.2917 C499.0966,111.2407 507.3636,107.4987 515.0206,102.7997 C530.7546,93.1457 546.0776,82.1077 559.8826,69.8487 C560.2636,69.5097 560.9236,69.9537 560.6186,70.4167 C549.7136,87.0037 536.9266,101.3367 521.2116,113.5027 C514.839412,118.435825 508.145545,122.527837 501.406854,126.829303 L499.469499,128.072505 C496.763819,129.82522 493.388979,132.167734 492.1656,135.1517 C490.9346,138.1527 493.5596,140.4187 494.9726,142.9047 C499.45957,150.799245 497.294783,158.165181 491.97534,164.860177 L491.7276,165.1687 C486.4416,171.6827 482.4356,177.7407 480.5196,186.0627 C476.402769,203.939479 482.136994,222.560543 488.13954,239.343188 L488.3766,240.0047 C491.6236,249.0507 495.0746,258.0307 497.8956,267.2217 L498.671797,269.762648 C501.227815,278.21932 503.320873,286.560064 500.4536,295.2537 C499.4786,298.2107 495.4456,298.9097 493.7706,296.1267 C487.8616,286.3127 486.3886,274.5027 482.6846,263.7127 C479.0746,253.1967 474.9296,242.8707 471.4426,232.3117 C466.9526,218.7167 463.9476,204.0827 465.5786,189.8227 C465.5306,189.7397 465.4776,189.6617 465.4376,189.5737 L464.294623,187.073577 C461.177877,180.303853 458.167573,174.391646 452.4996,168.9957 C446.5876,163.3667 440.1706,158.3837 435.5186,151.5697 C425.413965,136.768502 431.663225,120.303516 432.883754,104.119673 L433.023413,102.13512 C433.245125,98.774925 433.366627,94.2083216 431.1716,91.8827 C428.7026,89.2647 422.9126,88.5967 419.6366,87.4377 C411.1706,84.4417 402.8276,80.9507 394.8816,76.7587 C387.3176,72.7687 379.9906,68.3607 373.1686,63.1967 L369.710851,60.5954674 C364.255233,56.4791083 358.598071,51.9839941 354.9416,46.3807 C354.5196,45.7357 355.2366,44.6947 356.0006,45.0037 C362.1046,47.4807 367.6816,51.4207 373.3926,54.8487 C373.4816,54.6397 373.5846,54.4287 373.7016,54.2167 C380.7676,41.4287 383.6736,27.2607 382.5446,12.7157 Z M577.528,100.3309 C579.96,93.6619 591.044,94.1769 590.602,102.1009 C590.263103,108.188486 587.67848,113.683178 585.315244,119.21053 L585.063,119.8029 C582.623,125.5619 579.805,130.9689 576.433,136.2469 C569.99,146.3369 562.443,155.7009 554.382,164.5379 C547.074,172.5499 537.482,177.4489 526.429,176.6349 C521.772,176.2919 517.071,175.1069 512.99,172.7809 C508.143,170.0169 502.879,161.7179 496.695,163.7279 C496.097,163.9219 495.539,163.0459 496.056,162.6309 C503.195,156.8819 511.298,165.7959 518.133,167.9439 C528.432,171.1789 539.001,167.6019 545.63,159.2759 C552.551,150.5829 558.921,140.8499 564.738,131.3849 C567.692,126.5789 570.387,121.5909 572.715,116.4499 C575.064,111.2609 575.598,105.6219 577.528,100.3309 Z M560.9267,59.2885 C560.6267,58.3675 561.7707,57.4915 562.5797,58.0175 C567.2707,61.0715 571.3357,65.1065 575.6627,68.6435 C580.4637,72.5675 585.2997,76.4115 590.2107,80.1965 C597.3697,85.7155 589.0667,95.8755 582.7647,89.8465 C574.1407,81.5995 564.6957,70.8155 560.9267,59.2885 Z M535.1716,27.009 C537.07735,19.66023 548.348936,22.690719 546.706351,29.9536228 L546.6526,30.175 C543.54154,42.1716988 547.972408,54.3850804 557.431304,62.1624497 L557.7796,62.445 C563.7636,67.234 555.2856,75.606 549.3606,70.863 C536.4256,60.511 531.0446,42.926 535.1716,27.009 Z" id="ðŸ–-Ink" fill="#000000"/>
    </g>
</g><g transform="translate(200, 50)">
    <!-- Generator: Sketch 62 (91390) - https://sketch.com -->
    <title>head/mono/Short 5</title>
    <desc>Created with Sketch.</desc>
    <g id="head/mono/Short-5" stroke="none" stroke-width="1" fill="none" fill-rule="evenodd">
        <path d="M242.041161,75.2596156 C298.821805,75.2596156 357.551668,119.271611 378.365264,147.356837 C395.864342,170.969555 405.286153,277.745152 405.286153,349.905008 C405.286153,364.996849 413.614596,393.445968 411.184129,407.881894 C402.277902,460.781042 363.475367,505.14576 286.676873,505.14576 C209.87838,505.14576 154.814935,474.704319 97.7325351,392.972519 C70.0358893,392.972519 56.6129701,371.732631 56.4152532,338.213866 C56.2871511,315.868022 65.1995229,300.630067 83.1523686,292.5 C76.7512999,204.313833 81.6113554,148.741029 97.7325351,125.781589 C121.914305,91.3424282 185.260516,75.2596156 242.041161,75.2596156 Z" id="ðŸŽ¨-Background" fill="#FFFFFF"/>
        <path d="M218.1465,56.5559 C253.9965,52.9259 289.1265,55.9759 324.4565,62.2869 C327.1565,62.7759 328.6865,64.5469 329.2555,66.6759 C345.8965,67.4359 362.5565,68.6569 379.1755,69.5669 C385.2065,69.8969 388.6255,75.8559 385.8755,81.2369 C385.3265,82.3059 384.7555,83.3459 384.1755,84.3859 L384.90416,84.145677 C389.903636,82.5418162 395.304128,81.751086 400.1755,84.2969 C406.3755,87.5369 408.8065,94.6859 407.4365,101.2659 C407.0855,102.9459 406.4965,104.5559 405.8265,106.1269 C407.1865,106.0369 408.5565,106.0669 409.9165,106.2469 C417.1565,107.2069 422.5365,112.7569 422.9165,120.1469 C423.4765,131.3059 416.2865,142.6269 407.8165,150.6159 C409.0455,153.1469 409.5165,156.1269 409.0055,159.1469 C407.9855,165.1169 403.5875,168.6919 398.4895,171.0239 C400.6155,177.7749 401.6205,184.8329 401.0275,192.0459 C400.8295,194.4539 398.7235,196.4429 396.5005,196.9309 C404.7865,219.7449 408.9805,244.2389 411.9965,268.1059 C414.1465,285.0869 415.2065,302.1669 415.3355,319.2759 C415.398611,327.000344 415.271302,334.73348 414.947253,342.459154 L414.8165,345.3559 C414.4165,353.7069 414.3965,362.4759 412.8965,370.7369 C418.0165,379.4459 420.0765,390.2569 420.9465,400.0159 C422.0265,412.0959 420.3165,424.5559 416.5055,436.0469 C402.1255,479.4659 358.7265,506.8659 315.1355,513.9869 C274.7865,520.5769 228.0965,511.7069 204.5165,475.0559 C204.1465,474.4759 204.9365,473.9969 205.3965,474.3769 C222.2665,488.0959 241.8355,494.2159 263.0965,497.1959 C299.8565,502.3369 341.1755,493.6159 370.6755,470.4969 C384.8355,459.3969 395.0455,443.2369 399.5365,425.8459 C401.8265,416.9569 402.6165,407.6859 401.7155,398.5369 C400.7955,389.2569 396.6865,381.3369 394.0965,372.5669 C393.2265,369.6059 394.1465,366.8559 395.9565,364.8969 C396.4655,357.7759 397.6665,350.5959 398.1255,343.4969 C398.6355,335.4259 398.9465,327.3559 399.0565,319.2759 C399.2665,302.5159 398.5665,285.7259 397.1565,269.0369 C394.5765,238.4759 387.7265,208.6569 383.7065,178.3559 C382.217833,179.690867 380.0844,180.239031 377.848178,179.072708 L377.6165,178.9459 L376.3965,178.2469 C376.3265,178.2469 376.2465,178.2569 376.1755,178.2659 C367.8265,179.0769 359.1665,177.9169 351.1665,175.4259 C342.7955,172.8269 335.0265,168.8269 328.0855,163.4969 C326.7665,170.1859 326.2155,176.9459 326.2065,183.7659 C326.1965,188.0259 321.6865,190.2369 318.1065,188.4169 C302.2365,180.3559 287.0765,171.0669 272.6865,160.6269 C271.0055,169.2369 269.3265,177.8459 267.6355,186.4659 C266.9865,189.7869 262.7555,191.1269 260.0455,189.5469 C249.2665,183.2759 239.9565,175.0669 232.3765,165.3059 C230.863167,168.1999 229.345389,171.093456 227.817241,173.980641 L225.5165,178.3059 C223.2465,182.5559 220.2065,187.2569 215.2365,188.6159 C209.9765,190.0559 205.5855,186.6469 203.8165,181.8859 C203.2765,180.4069 202.7765,178.8859 202.3165,177.3559 C197.8355,187.5869 192.7765,197.5869 187.0565,207.1269 C178.4765,221.4359 168.1755,234.1859 157.9065,247.2659 C154.7865,251.2369 149.4465,247.4459 149.0165,243.5869 C148.7665,241.3169 148.5565,239.0369 148.3755,236.7659 C142.3915,248.8419 136.1475,260.8049 129.3445,272.4209 L130.3185,276.2379 L130.3185,276.2379 C133.1255,287.5159 135.4565,298.8739 137.9905,310.2119 C138.8085,313.8699 136.8645,319.0999 132.5905,319.7229 C127.4845,320.4669 122.6535,323.0759 117.4235,321.2809 C111.7205,319.3229 110.5935,314.3939 107.9015,309.7219 C107.3645,308.7909 106.7395,307.9359 106.0675,307.1239 L105.8965,307.3459 L105.8965,307.3459 C105.4765,307.8969 104.4765,307.2969 104.7265,306.6669 L105.0195,305.9389 L105.0195,305.9389 C102.7065,303.4839 99.9385,301.4359 97.3935,299.2329 C91.3455,298.2139 84.5425,299.3299 80.3755,301.7869 C70.8855,307.3859 66.5265,318.9259 66.4365,329.5369 C66.3265,341.9569 70.1755,355.9169 76.6755,366.5369 C79.5365,371.2069 83.4565,375.4259 88.6355,377.4969 C93.7765,379.5559 99.3465,378.9169 104.5765,380.8559 C108.0365,382.1469 110.1665,385.9869 108.0765,389.4659 C107.9365,389.7069 107.7765,389.9259 107.6255,390.1569 L109.181019,392.221381 C110.250944,393.651456 111.3665,395.182567 112.4065,396.7759 C115.0665,399.8369 117.8665,402.7869 120.5765,405.7969 C125.5855,411.3459 130.4465,417.0469 135.3755,422.6759 C140.0265,427.9869 144.9465,432.9759 150.0165,437.8859 C154.8065,442.5369 160.7865,446.4459 165.1865,451.4069 C169.4655,456.2469 170.6265,464.6959 163.5855,467.4969 C155.796208,470.60315 148.900566,463.323034 143.657071,458.469499 L143.4365,458.2659 C133.8245,449.4209 125.1445,439.3129 118.2515,428.1839 C111.4235,432.8319 101.5475,433.2759 94.7485,428.6289 C91.1705,426.1839 88.4255,422.0749 87.0915,417.6049 C85.8335,417.8869 84.5765,418.0519 83.3505,418.0329 C82.7195,418.3989 82.0865,418.7549 81.4465,419.0869 C76.3755,421.7259 70.1465,420.5469 67.8265,414.9359 C65.7138913,409.84227 67.8908578,404.057449 69.7937681,399.149752 L70.1865,398.1359 C71.2665,395.3369 72.4565,392.2869 73.9365,389.4169 C69.8165,386.3169 66.2955,382.4659 63.3165,378.0869 C53.3065,363.3369 48.3065,341.7659 50.5165,324.1669 C51.8465,313.5469 56.8355,302.5469 65.0055,295.3859 L64.7065,294.6059 L64.7065,294.6059 C62.4165,288.7969 60.3355,282.9659 58.9865,276.8269 C57.4065,269.6469 56.6355,262.2069 55.9365,254.8969 C54.4565,239.4569 54.8565,223.6669 56.8265,208.2869 C60.5265,179.3369 69.9065,150.9169 86.5565,126.8269 C81.8355,121.1759 78.0965,114.5259 80.0455,106.8769 C80.9365,103.3659 82.9655,100.0369 86.0265,98.0259 C87.7155,96.9169 89.7265,96.7469 91.4165,95.8269 L91.9246563,95.5471104 C92.6669844,95.1139329 92.0991765,95.1598412 91.6565,93.1469 C89.9065,85.1059 91.3565,77.3369 100.2065,74.6669 C108.5365,72.1569 116.4165,77.4869 121.3465,83.8369 C134.2465,74.6859 151.2465,69.8969 166.1965,65.8269 C183.1965,61.2159 200.6355,58.3369 218.1465,56.5559 Z M78.8069,326.2562 C78.7459,319.7062 84.9559,315.6662 91.0669,316.7372 C95.1702571,317.451271 98.5933031,319.90018 101.807624,322.431371 L103.374768,323.671291 C107.288878,326.74416 111.782567,330.056933 114.1159,334.4072 C117.5359,340.8272 110.3069,349.4662 103.5569,344.9662 C98.9265667,341.8632 95.95861,336.891311 92.921411,332.272642 L92.6069,331.7962 C91.2269,329.7262 90.0169,327.5262 88.1259,325.8662 L87.7174162,325.508484 C87.0959496,324.978762 86.4285364,324.495291 85.6259,324.2662 C84.0775129,323.821039 81.2095629,324.444452 80.526766,326.287794 L80.4659,326.4762 C80.2159,327.4072 78.8169,327.2062 78.8069,326.2562 Z" id="ðŸ–-Ink" fill="#000000"/>
    </g>
</g><g transform="translate(320, 250)"><g>
    <!-- Generator: Sketch 62 (91390) - https://sketch.com -->
    <title>face/Calm</title>
    <desc>Created with Sketch.</desc>
    <g id="face/Calm" stroke="none" stroke-width="1" fill="none" fill-rule="evenodd">
        <path d="M171.041749,240.15887 C163.675125,242.292501 155.767928,242.483273 148.258906,240.279784 C141.4481,238.280984 134.454927,233.882403 129.442325,228.062017 C124.989403,222.891504 122.105494,216.608051 122.218765,209.900917 C122.23165,209.134907 122.505549,208.495522 122.926888,207.999233 C123.380478,207.464958 124.014007,207.098085 124.692682,206.938847 C125.390651,206.775083 126.128513,206.833141 126.756813,207.118539 C127.325595,207.376901 127.812904,207.815736 128.117618,208.457126 C128.887965,209.469087 129.655321,210.466061 130.425688,211.435384 C136.619652,219.083686 142.618023,224.799426 151.931921,226.849502 C156.985367,227.962038 162.032458,227.4687 166.663343,225.771293 C171.620483,223.954301 176.101584,220.7596 179.613092,216.671419 C181.200004,214.823854 183.073535,214.069743 184.905526,214.057068 C186.981571,214.042704 189.033559,215.007378 190.57944,216.549217 C192.09898,218.064783 193.116434,220.124293 193.208649,222.278695 C193.289584,224.169532 192.672753,226.144647 191.031753,227.906756 C185.626535,233.711247 178.621333,237.963558 171.041749,240.15887 Z M170.814304,144.367155 C178.365682,148.9572 189.871664,159.660291 181.748119,171.039573 C172.185929,181.073062 158.418535,169.568982 151.634201,164.366134 C145.343449,160.333898 138.275437,170.704507 144.112,175.412823 C193.135736,211.708059 213.030606,145.567387 174.633685,138.970386 C170.406047,138.243425 168.835891,142.947174 170.814304,144.367155 Z M100.174958,124.170086 C97.7478949,122.617925 94.8928863,122.085145 91.7287079,123.524696 C89.2560287,124.649136 84.9192282,128.39769 81.9011027,133.325394 C79.8363008,136.696603 78.3721211,140.651472 78.6769434,144.770947 C78.7477349,145.727649 78.3942255,146.433054 77.8366311,146.954624 C77.3962557,147.366548 76.7601476,147.669274 76.0129997,147.763908 C75.3786744,147.844253 74.6686661,147.771772 74.0913555,147.591587 C72.9931588,147.248829 72.4119407,146.536464 72.1929489,145.954883 C70.0797393,140.342792 70.9901323,134.080043 73.3585073,128.429944 C76.5547725,120.804793 82.3592783,114.41778 86.1622145,112.358526 C92.669833,108.833475 100.346995,108.671236 106.863929,112.262379 C112.411467,115.318853 115.880218,120.253414 119.330136,125.2834 C120.06351,126.352661 120.791391,127.414081 121.543672,128.456831 C123.05132,130.546275 123.201386,132.618559 122.617532,134.395557 C121.970727,136.36415 120.32151,138.025511 118.259199,138.894957 C116.353068,139.69856 114.140756,139.811681 112.183119,138.985995 C110.529381,138.288488 109.0117,136.92878 108.051384,134.621701 C106.434021,130.736299 103.739338,126.449586 100.174958,124.170086 L100.174958,124.170086 Z M223.440775,132.814369 C221.778563,133.680468 220.478145,133.941602 218.634261,133.389159 C217.614596,133.082886 216.606823,132.495899 215.817824,131.706899 C215.035882,130.924958 214.471712,129.952552 214.252419,128.873803 C213.713072,126.211477 212.256412,123.719368 210.18061,122.094757 C208.406384,120.706172 206.16691,119.97019 203.68291,120.385402 C201.002485,120.832856 198.448729,122.551933 196.689869,124.578687 C196.102007,125.256875 195.641205,126.027105 195.177941,126.792136 C194.311333,128.22283 193.469024,129.552694 192.273843,130.603376 C191.82079,131.003129 191.138107,131.28 190.476901,131.28 C190.208169,131.28 189.935444,131.236271 189.675563,131.155276 C187.007679,128.47758 186.494623,126.446273 186.580635,124.431485 C186.670832,122.318684 187.503809,120.179493 188.849905,118.183565 C192.007516,113.501608 198.002761,109.662839 202.048399,108.79334 C207.588873,107.602708 213.091225,109.031983 217.502758,112.126467 C222.041966,115.310509 225.405508,120.254035 226.454161,125.825144 C226.706431,127.166899 226.599231,128.615171 226.088238,129.870886 C225.588922,131.097909 224.71878,132.148831 223.440775,132.814369 Z M112.394258,74.2526486 C109.069304,77.4921444 105.133931,77.9939318 101.152655,78.4402385 C98.9405594,78.6905522 97.1746454,78.8923401 95.4369094,79.2844431 C90.6605649,80.3626109 85.9393099,81.9864477 81.6319378,84.3250848 C77.1292738,86.7698547 72.2223932,89.7182412 68.6922598,93.4953513 C67.8528342,94.3941678 67.061542,95.3372855 66.2691444,96.2824677 C65.5465882,97.1443561 64.8505415,97.9741006 64.1169766,98.7741419 C63.2745284,99.6930924 62.474532,100.656215 61.6787885,101.616822 C61.1867388,102.427379 61.0895404,102.626735 60.9904523,102.834265 C60.8413425,103.146109 60.6678954,103.495099 60.4697946,103.869494 C60.1984889,104.382242 59.8807027,104.94353 59.5478797,105.452422 C58.9941378,106.382586 58.6970103,106.638799 58.44026,106.753401 C58.0142242,106.943142 57.6101892,107.036611 57.2182099,106.985995 C56.8506749,106.938536 56.5044166,106.762013 56.1624818,106.47304 C54.4554262,105.030757 53.951973,102.663788 54.003574,100.151245 C54.0818781,96.3384852 55.4881691,92.117066 56.7845563,89.5220553 C59.7989145,83.4923568 63.9794222,77.2240967 69.0062346,72.7238372 C74.7422821,67.5868727 81.0177087,63.6979271 88.2256814,61.0181785 C92.7050141,59.3522788 97.8912946,57.8231463 102.771356,58.0162973 C106.284021,58.1553272 109.63736,59.1994956 112.406688,61.8070554 C114.107217,63.4077623 114.923517,65.6846039 114.923517,67.9598329 C114.923517,70.2803828 114.075698,72.6146356 112.394258,74.2526486 Z M230.202983,103.917581 C229.991535,104.264137 229.698869,104.50296 229.373218,104.646395 C229.031839,104.796759 228.650729,104.840068 228.284999,104.778443 C227.920889,104.717091 227.574779,104.552038 227.300232,104.299793 C227.037084,104.058021 226.836702,103.737376 226.747103,103.344559 C224.539595,93.6490336 220.253164,86.4354186 211.104309,81.7836507 C206.603851,79.4952872 201.428751,78.0413484 196.529682,76.8821344 C195.106038,76.5452379 193.601743,76.3269526 192.086825,76.1057581 C187.338965,75.4125185 182.556847,74.6185951 179.461645,70.7808275 C177.596631,68.4690944 176.81391,65.5126371 177.256458,62.8088302 C177.67314,60.2630482 179.160769,57.9287462 181.865031,56.529874 C188.597516,53.048922 196.963943,56.4646469 203.762668,59.3743755 C204.266993,59.5902173 204.762058,59.8021006 205.246454,60.0065439 C211.895078,62.8129721 217.958974,66.5173942 222.943608,71.815137 C226.89868,76.0180237 230.563109,82.2312248 232.038949,88.62289 C233.266795,93.9405248 232.978088,99.3690991 230.202983,103.917581 Z" id="ðŸ–-Ink" fill="#000000"/>
    </g>
</g></g><g transform="translate(210, 310)"><g>
    <!-- Generator: Sketch 62 (91390) - https://sketch.com -->
    <title>accessories/Glasses 5</title>
    <desc>Created with Sketch.</desc>
    <g id="accessories/Glasses-5" stroke="none" stroke-width="1" fill="none" fill-rule="evenodd">
        <path d="M367.0895,74.4323 C364.2615,82.1283 359.9575,90.1403 354.6945,96.6173 C333.4005,114.6493 312.7095,104.6653 302.2035,80.2263 C298.2115,62.9553 308.8105,44.3513 320.0415,31.6463 C336.2615,15.3893 362.7325,23.9213 370.1905,43.2473 C370.6435,45.7513 370.9175,48.2493 371.0485,50.7393 C370.8935,58.8303 369.9185,65.7453 367.0895,73.4323 M162.4095,58.9113 C190.4615,25.5443 242.9415,23.7603 241.6025,75.1153 C235.5765,140.1193 134.1055,124.1643 162.4095,58.9113 Z M375.9125,31.0763 C374.9295,29.4113 373.8385,27.8003 372.6475,26.2593 C372.2075,25.9973 371.9545,23.6733 370.3365,23.5013 C348.7095,-0.3577 310.7165,13.1793 296.9885,36.9533 C294.4815,39.9593 292.4365,43.4783 290.9285,47.1963 C277.4025,44.7153 261.6335,45.1973 249.0535,50.3063 C236.5795,17.7343 198.8145,14.8263 173.9275,28.7433 C158.4485,36.3563 148.4115,52.2993 133.3575,61.0573 C97.9685,63.6043 59.9875,55.6753 25.2375,64.5523 C-2.1685,70.2503 20.7415,84.1273 25.3375,74.8663 C58.1005,65.1863 96.9155,73.3663 130.9325,71.1853 C134.4695,77.1683 141.2525,82.0643 148.0125,81.8553 C155.3135,146.5763 249.6975,135.8443 252.9535,78.3113 C256.6465,72.4723 261.2395,66.8843 267.8135,63.2463 C270.3305,62.7253 272.7615,62.0483 274.9835,61.0003 C278.7815,60.4643 284.6335,62.0743 288.1275,65.2363 C300.0965,137.0523 369.0515,128.6883 381.3745,65.7743 C381.6195,65.5243 382.3045,64.5863 382.8305,63.0813 C387.0485,57.5043 397.3745,55.4313 395.7245,46.0163 C394.2555,36.5993 382.3635,36.7113 375.9125,31.0763 Z" id="ðŸ–-Ink" fill="#000000"/>
    </g>
</g></g>
          </g>
        </g>
      </svg>