<svg id="avatar-svg" transform="translate(-40, 0)" width="32" height="32" class="path1" viewBox="0 0 700 700" fill="none" stroke="black" strokewidth="0.8" strokelinecap="round" strokelinejoin="round" xmlns="http://www.w3.org/2000/svg">
        <style>
          @media (prefers-reduced-motion){.path1{animation:none!important;stroke-dasharray:unset!important}}@media print{.path1{animation:none!important;stroke-dasharray:unset!important}}@keyframes grow{0%{stroke-dashoffset:1px;stroke-dasharray:0 1000px;opacity:0;fill-opacity:0}10%{opacity:1;fill-opacity:0}60%{stroke-dasharray:1000px 0;fill-opacity:1;stroke-opacity:0}to{stroke-dasharray:1000px 0;fill-opacity:1;stroke-opacity:0}}.path1 g g path{stroke-dashoffset:1px;stroke-dasharray:1000px 0;animation:grow 7s linear forwards;transform-origin:center;stroke:#a2a0a0;stroke-width:10px;animation-delay:0s}
        </style>
        <g>
          <g>
            <g transform="translate(0, 550)">
    <!-- Generator: Sketch 62 (91390) - https://sketch.com -->
    <title>body/mono/Polo and Sweater</title>
    <desc>Created with Sketch.</desc>
    <g id="body/mono/Polo-and-Sweater" stroke="none" stroke-width="1" fill="none" fill-rule="evenodd">
        <path d="M96.774,708.912 C158.006,710.626 215.848408,712.517 276.962408,708.912 C374.758408,702.863 661.757117,713.767 724.841691,708.912 C729.602357,708.545618 745.9749,713.767 746.3159,708.912 C749.0889,675.105 750.8869,333.067949 742.6479,309.533347 C734.4089,285.998745 693.7409,172.865 641.9219,120.111 C627.4729,105.859 605.485074,100.338495 593.339074,83.868495 C582.866591,65.9089912 583.680172,55.3680846 573.3379,45.9191204 C568.849889,41.8187584 558.265416,40.1564644 550.4005,34.465 C542.4925,26.606 549.9799,9.306 546.7339,-1.638 C540.0439,-28.964 515.3969,-46.495 488.4579,-50.626 C451.015862,-59.5851549 411.488142,-51.1144369 393.55346,-21.7036342 C386.877676,-10.7561205 390.430456,2.55066604 382.2199,20.093 C382.8059,33.35 367.3289,36.553 358.0779,41.806 L339.706297,60.3733548 C283.106297,92.2193548 216.5229,109.416 166.9299,152.202 C124.7659,194.975 82.8279,244.413 64.1199,302.283 C60.2469,318.052 58.9829,334.35 57.3779,350.463 C52.7959,397.551 40.0369,443.254 29.0569,489.121 C16.5369,546.91 4.86623419,608.255159 21.7402342,666.591159 C26.6052342,678.938159 85.699,708.335 96.774,708.912 Z" id="ðŸŽ¨-Background" fill="#FFFFFF"/>
        <path d="M390.3095,-16.995 C390.7995,-18.596 392.9105,-18.146 393.0705,-16.625 C394.6605,-1.545 392.6605,14.215 390.7405,29.195 C389.8205,36.425 389.2895,43.945 387.8895,51.074 C387.7095,51.835 387.5395,52.604 387.3795,53.365 C387.8395,54.184 389.2005,55.104 389.8495,55.734 L392.672463,58.4787037 L398.3295,63.955 C409.4005,74.675 420.4695,85.404 431.5395,96.125 L447.7895,111.875 C453.3605,117.274 459.6905,122.445 464.5795,128.465 C467.2305,131.734 467.8295,135.744 465.2195,139.244 C463.9295,140.974 461.6105,142.234 459.2595,142.494 C460.1795,143.774 460.8895,145.224 461.3395,146.835 C462.2595,150.115 458.9405,154.144 455.4105,152.774 C451.4005,151.234 448.0895,148.474 444.0095,147.154 C439.8895,145.814 435.4105,145.555 431.1395,146.274 C429.1795,146.604 427.2595,147.095 425.3895,147.715 C445.4005,156.925 467.0495,162.215 489.1295,162.974 C493.6295,163.125 498.1205,163.064 502.5895,162.765 C510.1105,162.274 517.5795,161.135 524.9195,159.295 C530.6905,157.845 536.4005,156.024 541.9405,153.824 C544.6605,152.744 547.3495,151.555 549.9505,150.205 L550.178201,150.070242 C550.766171,149.70276 561.631019,143.540978 561.8205,142.615 C562.009981,141.689022 562.009981,141.366446 561.656463,140.560348 C561.420784,140.022949 560.976033,139.569022 560.322209,139.198568 C556.96516,137.763719 553.487423,136.428231 549.8205,136.404 C541.3795,136.354 532.1695,142.595 525.1905,146.845 C517.5205,151.515 510.4695,156.974 503.0895,162.035 C502.9195,162.154 502.7305,162.205 502.5495,162.205 C501.7705,162.205 501.0495,161.244 501.5495,160.494 C506.838875,152.706219 513.977987,146.221981 521.44583,140.560348 L524.45499,138.304691 C531.294582,133.20409 539.2945,127.555102 547.6105,126.324 C557.7995,124.824 568.4405,131.175 577.5305,134.894 L593.6295,141.484 C596.4995,142.654 599.6205,143.654 602.5095,144.984 L595.763004,123.875072 C592.39206,113.31944 589.0299,102.761 585.7005,92.195 L585.054461,90.1250125 C581.73794,79.3997475 578.693136,68.2428788 573.1695,58.445 C571.8495,56.095 570.3395,53.885 568.8495,51.654 C567.2995,49.345 566.7195,46.795 564.7705,44.734 C560.9105,40.644 555.3795,38.244 550.0995,36.675 C548.8095,36.295 549.1905,34.595 550.4005,34.465 C555.818887,33.8940323 560.985349,35.1577159 565.88176,37.4430873 L567.916852,38.413709 C572.54701,40.60439 577.0615,42.6419 580.4995,46.574 C588.33882,55.55412 592.409967,66.8609936 596.15007,78.0191716 L597.1505,81.015 C598.5495,80.555 608.0595,83.455 609.2495,84.144 C644.9005,99.215 672.3605,127.274 692.4405,160.154 C714.4405,196.184 726.4195,237.354 736.3095,278.095 C739.3615,290.668 742.2805,303.28 745.0845,315.92 C732.5915,320.727 719.3135,323.242 707.6185,330.014 C703.1635,332.593 707.1875,339.509 711.6555,336.922 C722.6095,330.58 735.0865,328.237 746.8115,323.783 C753.1685,353.046 758.8235,382.469 763.5595,412.015 C778.1105,502.695 787.2995,594.854 786.7195,686.774 C786.7095,688.805 786.1105,691.074 784.9995,693.024 C785.6505,692.705 786.1605,692.324 786.4505,691.865 C790.1395,686.074 799.3895,691.445 795.6795,697.265 L795.137688,698.108453 C792.353704,702.40074 789.754742,705.680364 784.8605,708.104 C779.9295,710.545 774.5895,710.955 769.1505,711.095 C750.6605,711.582 732.1575,711.899 713.6485,712.127 C711.1105,692.329 710.0785,672.342 706.5815,652.66 C705.6825,647.599 697.9715,649.744 698.8675,654.787 C702.2445,673.793 703.3255,693.087 705.6825,712.223 C666.1125,712.649 626.5205,712.654 586.9805,712.765 C533.3955,712.9225 479.817391,712.811266 426.234783,712.780996 L403.2705,712.774 C341.3705,712.774 279.4695,712.574 217.5705,712.164 L202.8495,712.06 C196.9935,677.539 193.0075,642.723 192.9335,607.643 C192.9225,602.496 184.9225,602.486 184.9335,607.643 C185.0075,642.684 188.9495,677.504 194.7515,712.015 C180.0955,711.951 165.4465,712.004 150.7895,712.524 L143.329459,712.789776 C128.403541,713.300755 113.4475,713.615571 98.5495,712.425 C82.0095,711.095 65.2805,708.055 50.4505,700.265 C43.7715,696.75 37.8905,692.257 32.8645,686.974 C37.9735,684.002 43.1555,681.151 48.1045,677.913 C52.3955,675.105 48.3925,668.176 44.0665,671.006 C38.7335,674.496 33.1275,677.535 27.6365,680.763 C23.6605,675.457 20.3975,669.568 17.9195,663.215 C14.0095,653.184 12.4995,642.394 11.1895,631.774 C9.6405,619.265 8.9995,606.654 8.9995,594.055 C8.9995,567.555 11.7895,541.135 15.6805,514.955 C19.4013696,489.874043 24.3198875,464.995287 29.5188924,440.195335 L30.2295,436.814 C35.3595,412.434 40.2495,387.984 46.1295,363.774 C51.5665,341.387 57.8495,319.105 65.3375,297.254 C72.0025,301.375 78.9775,304.98 85.5385,309.273 C89.8595,312.101 93.8725,305.177 89.5765,302.366 C82.5765,297.785 75.1105,293.978 68.0465,289.502 C76.4195,266.104 86.2475,243.252 98.0305,221.365 C121.6295,177.535 153.4305,138.324 194.1605,109.385 C214.5495,94.904 236.9195,83.055 260.4105,74.434 C284.3605,65.635 309.1795,60.814 334.5595,58.835 C335.284206,58.7775882 335.690905,59.4483149 335.661211,60.0684981 L335.6505,60.184 L336.6505,60.345 C337.0205,57.835 337.7805,55.404 339.2305,53.175 C342.5305,48.095 348.7895,44.835 353.7895,41.715 L354.974956,40.9775012 C360.923723,37.2902734 367.20175,33.6578125 374.1205,32.365 C374.3605,32.324 374.5095,32.574 374.3495,32.765 C369.786891,37.9962174 363.952525,41.993189 358.60546,46.4178326 L357.376407,47.4426841 C352.945141,51.089487 346.764167,55.2284444 346.5995,61.324 C346.4105,68.505 347.8795,75.974 348.4105,83.135 C348.9405,90.274 349.3095,97.404 349.4995,104.564 C350.1905,130.215 349.3605,155.875 347.0895,181.425 L357.128906,174.703594 C372.752683,164.245038 388.428324,153.815765 404.4295,144.024 C414.1105,138.095 424.9905,133.024 436.5895,133.255 C439.8395,133.314 443.5095,133.785 447.0305,134.785 C443.2405,131.195 439.6105,127.375 435.9005,123.765 C429.7895,117.814 423.6795,111.865 417.5705,105.925 L399.953375,88.7645 L382.3295,71.604 C376.8705,66.274 370.4695,61.365 371.0495,52.965 C371.5205,46.265 374.9295,39.595 377.2595,33.135 C377.5895,32.205 377.8895,31.285 378.1695,30.375 C382.8705,14.755 385.5395,-1.436 390.3095,-16.995 Z M618.0005,653.199 C614.3565,649.553 608.6985,655.208 612.3445,658.855 L614.272296,660.774996 C617.492202,663.987266 620.684282,667.298327 622.912598,671.26933 L623.2395,671.87 C625.6405,676.426 632.5485,672.388 630.1465,667.832 C627.1775,662.201 622.4545,657.655 618.0005,653.199 Z M461.8685,652.17 C450.2675,649.955 439.0865,649.955 427.4855,652.17 C422.4345,653.135 424.5735,660.847 429.6125,659.885 C439.7585,657.947 449.5945,657.947 459.7415,659.885 C464.7725,660.845 466.9275,653.137 461.8685,652.17 Z M305.1965,571.53 C300.2045,570.265 298.0745,577.979 303.0705,579.244 L305.530124,579.861071 C313.891463,581.927314 321.854878,583.466889 330.5405,581.549 C335.499382,580.452618 333.494209,572.925857 328.610379,573.794732 L328.4135,573.834 C320.3765,575.609 312.9725,573.5 305.1965,571.53 Z M583.4415,519.567 C579.7475,515.976 574.0845,521.627 577.7845,525.223 C582.4015,529.713 587.8425,533.125 594.4365,533.307 C599.509634,533.448851 599.581471,525.687021 594.663481,525.318601 L594.4365,525.307 C590.0175,525.184 586.4965,522.538 583.4415,519.567 Z M112.6165,498.201 C117.2225,495.898 113.1755,488.996 108.5795,491.294 L80.9315,505.117 L80.9315,505.117 C76.3255,507.42 80.3725,514.324 84.9685,512.025 L112.6165,498.201 L112.6165,498.201 Z M658.9485,499.964 C653.7985,499.819 653.8025,507.819 658.9485,507.964 C663.7875,508.099 668.7465,509.932 673.0575,512.025 C677.6695,514.265 681.7305,507.369 677.0955,505.117 C671.4595,502.381 665.2725,500.14 658.9485,499.964 Z M400.6165,461.338 C404.8505,458.461 400.8525,451.525 396.5785,454.43 C390.746667,458.391833 385.462694,463.074625 379.723712,467.156618 L378.1465,468.254 C373.9125,471.131 377.9105,478.065 382.1845,475.162 C388.5455,470.839 394.2555,465.659 400.6165,461.338 Z M698.1165,403.194999 C692.9685,403.193 692.9605,411.193 698.1165,411.194999 L699.092643,411.192016 C703.341747,411.16813 707.820407,411.050753 711.771937,412.748895 L712.2255,412.953 C716.8575,415.135 720.9225,408.24 716.2635,406.046 C710.4705,403.318 704.4135,403.198 698.1165,403.194999 Z M253.836531,397.480105 L254.5085,397.228 C259.3185,395.501 257.2445,387.767 252.3815,389.515 C245.0535,392.148 239.3525,397.121 232.9955,401.437 C228.7595,404.314 232.7575,411.248 237.0325,408.346 C242.509879,404.625862 247.605979,399.915703 253.836531,397.480105 L253.836531,397.480105 Z M553.904988,376.667605 L554.9835,376.09 C559.5635,373.733 555.5205,366.828 550.9465,369.182 C547.315591,371.050182 544.0665,373.535719 540.504261,375.516147 L539.4255,376.094 C534.8465,378.45 538.8885,385.355 543.4635,383.002 C547.094409,381.132909 550.3435,378.647289 553.904988,376.667605 L553.904988,376.667605 Z M432.201229,299.179442 L431.3775,298.384 C427.6955,294.779 422.0345,300.432 425.7205,304.041 C434.926557,313.050943 445.810119,319.891776 456.789538,326.505563 L458.7865,327.706 C463.2115,330.361 467.2385,323.447 462.8245,320.798 L459.893806,319.036056 C450.132069,313.149339 440.484459,307.072702 432.201229,299.179442 L432.201229,299.179442 Z M210.8195,291.711 C213.921571,287.682953 207.175516,283.740847 204.022555,287.534221 L203.9115,287.673 C200.682324,291.865 196.850794,295.660156 192.846271,299.123496 L192.0935,299.769 C189.7095,301.797 185.3705,306.142 182.0215,306.428 C176.9295,306.861 176.8835,314.865 182.0215,314.428 C187.2035,313.987 191.6625,310.34 195.5775,307.215 C201.2755,302.668 206.3725,297.483 210.8195,291.711 Z M636.4325,262.568 C640.149767,259.076081 634.65897,253.518063 630.908142,256.792738 L630.7765,256.912 C623.8295,263.438 613.8365,265.189 604.8935,267.402 C599.8985,268.64 602.0145,276.356 607.0205,275.117 L611.094584,274.111127 C620.233457,271.830385 629.403389,269.174111 636.4325,262.568 Z M477.9965,212.107 C473.0045,210.838 470.8745,218.552 475.8705,219.821 C484.3555,221.977 492.3925,224.764 500.2575,228.634 C504.8615,230.898 508.9195,224.002 504.2955,221.726 C495.8335,217.562 487.1325,214.429 477.9965,212.107 Z M559.7194,43.4648 C559.5994,43.1048 559.9804,42.6948 560.3494,42.8238 C569.32734,46.17114 564.554697,57.9294684 561.765223,64.9680827 L561.2594,66.2548 C556.8894,77.5348 550.7804,88.5148 544.1204,98.6148 C537.1504,109.1848 529.4104,119.3048 521.0304,128.8048 C517.394844,132.929244 513.624178,136.93517 509.726828,140.821875 L508.2594,142.2738 C504.3204,146.1448 499.2404,152.9448 493.1294,152.1948 C486.5494,151.4038 482.8794,144.3748 487.6794,139.0348 C491.0704,135.2548 495.7704,132.2438 499.5594,128.8048 C503.3204,125.4038 506.9604,121.8948 510.5094,118.2848 C517.7704,110.8748 524.6504,103.0448 530.9404,94.7948 C537.023837,86.816675 542.845361,78.6179445 548.138827,70.0939638 L549.1904,68.3848 C553.2194,61.7548 562.5204,52.0048 559.7194,43.4648 Z M241.6405,127.263 C237.3785,124.349 233.3725,131.279 237.6025,134.17 C245.3805,139.486 252.2235,145.926 260.6425,150.298 C265.15019,152.639786 269.158975,145.929019 264.840239,143.477723 L264.6805,143.391 C256.2675,139.02 249.4145,132.575 241.6405,127.263 Z" id="ðŸ–-Ink" fill="#000000"/>
    </g>
</g><g transform="translate(200, 50)">
    <!-- Generator: Sketch 62 (91390) - https://sketch.com -->
    <title>head/mono/Short 4</title>
    <desc>Created with Sketch.</desc>
    <g id="head/mono/Short-4" stroke="none" stroke-width="1" fill="none" fill-rule="evenodd">
        <path d="M430.4052,143.8453 C430.0692,131.8873 412.6762,126.9223 407.6512,138.7653 C407.3392,139.0823 407.0002,139.3873 406.6822,139.6603 C408.2552,138.3113 404.9662,140.5433 404.4312,140.8193 C403.9732,141.0553 403.5052,141.2683 403.0382,141.4883 C399.8062,111.1943 388.8342,78.5363 360.4822,63.3303 C320.9382,44.1543 275.2452,40.4113 231.8622,42.3163 C209.8852,43.6203 184.5072,47.1343 164.9822,36.0163 C158.8982,32.5523 154.0212,27.0993 147.1462,24.9583 C125.4432,19.0873 115.5992,41.3733 118.5552,59.7003 C109.2982,59.7733 100.1152,64.8983 96.1202,73.3363 C93.7742,78.3303 93.8152,83.7193 91.7922,88.7313 C85.5852,101.4413 76.7042,110.5773 81.7252,125.9873 C72.8942,136.0363 77.9292,151.2493 85.0552,160.8703 C88.5742,165.8743 92.7652,170.6783 95.3432,176.2793 C97.8452,181.6423 94.0682,188.0023 91.9662,193.0863 C76.4262,229.9353 77.3142,270.5163 85.6762,308.9523 C68.8962,316.2333 63.8602,338.9933 74.8022,353.3243 C78.5672,358.3903 83.1602,360.2703 88.3692,363.3873 C94.9612,367.0153 89.5772,381.5473 91.6882,388.5653 C94.5562,405.6983 110.1562,416.2493 125.5812,405.1233 C135.3692,403.6423 143.2642,432.1213 150.3722,439.2693 C154.7512,445.0293 159.6132,450.2013 164.8992,454.9743 C180.6492,495.4993 261.3552,516.0493 301.2572,513.7033 C343.0422,509.3283 371.2312,473.8423 394.7032,442.3483 C406.7562,425.5673 414.5952,406.7853 417.4462,386.3003 C420.3102,365.7123 419.0572,345.0873 417.1212,324.4743 C413.0542,280.6783 406.6382,217.5823 402.4952,173.3133 C417.4672,172.0803 430.8592,159.3333 430.4052,143.8453 L430.4052,143.8453 Z" id="ðŸŽ¨-Background" fill="#FFFFFF"/>
        <path d="M104.0175,117.5142 C104.0035,117.5762 104.0245,117.6232 104.0385,117.6892 C104.0415,117.6702 104.0445,117.6602 104.0495,117.6372 C104.0375,117.5872 104.0285,117.5542 104.0175,117.5142" id="Fill-4" fill="#4F66AF"/>
        <path d="M104.0136,118.1509 C103.9586,118.0929 103.8806,118.0499 103.8026,117.9919 C103.8006,117.9939 103.7996,117.9959 103.7986,117.9979 C103.8716,118.0459 103.9416,118.1009 104.0136,118.1509" id="Fill-6" fill="#4F66AF"/>
        <path d="M428.0238,149.5043 C432.9418,145.4183 440.6888,149.1803 439.0228,155.9073 C437.2098,163.2333 429.3578,168.2393 422.8758,171.2493 C416.2038,174.3463 409.7048,174.9433 402.4258,174.6053 L402.3358,174.5853 L402.3358,174.5853 C404.3568,182.6883 405.5028,191.1113 407.0488,199.2633 C409.0108,209.6053 410.9408,219.9523 412.8418,230.3043 C414.6808,240.3103 417.0058,250.3293 418.4188,260.3853 C419.8438,270.5363 421.2118,280.6943 422.6118,290.8483 C424.948164,307.807391 426.834114,324.844168 428.822619,341.851944 L429.770369,349.90228 C431.761701,366.942155 433.365055,384.002573 429.5908,400.9593 C426.0538,416.8513 418.0858,431.6753 408.8438,444.9413 C399.7928,457.9313 389.6818,470.4213 378.5828,481.7203 C357.1738,503.5113 330.7738,520.9643 299.8178,524.2013 C286.4888,525.5953 272.2528,524.0443 259.7218,519.1993 L258.889738,518.874237 C246.205085,513.866032 230.671241,505.291031 227.3698,491.2193 C225.3428,482.5873 234.2378,475.8483 242.0368,479.9443 C245.650244,481.842633 248.367254,484.011235 251.333521,486.730632 L251.8598,487.2163 C254.2838,489.4673 255.2168,490.1593 258.0138,491.9203 C263.7508,495.5293 268.0508,497.2373 274.5668,498.8773 C286.5808,501.8993 299.5468,501.4213 311.7428,497.8473 C337.6368,490.2593 357.7248,470.4593 374.9338,450.6063 C384.2778,439.8253 393.1468,428.5163 399.9868,415.9513 C407.1638,402.7683 410.4768,388.9273 410.2778,373.9273 C410.0528,357.0023 407.7138,340.0113 406.1788,323.1663 C404.6148,305.9933 403.1688,288.8263 401.8948,271.6293 C400.701388,255.502241 400.586011,239.302546 400.168884,223.125256 L400.0868,220.0923 C399.8418,211.5043 399.6718,202.9133 399.4768,194.3233 C399.2838,185.7583 398.6058,177.0843 399.4878,168.5553 C399.5508,167.9343 400.3878,167.7773 400.5918,168.4053 C401.1118,170.0033 401.5668,171.6263 401.9968,173.2583 C402.0628,173.2083 402.1368,173.1633 402.2268,173.1323 C407.9308,171.1723 413.1838,167.2593 417.4638,163.0393 C421.5478,159.0123 423.6808,153.1133 428.0238,149.5043 Z M115.947,29.5068 C119.53,14.7908 135.654,11.5038 147.577,18.5908 C153.312,21.9988 157.904,26.9138 163.261,30.8198 C168.587,34.7038 174.473,37.8228 180.684,40.0258 C193.023,44.4018 206.039,45.9928 219.08,46.0498 C250.82,46.1888 281.911,37.2688 313.698,38.2638 C338.294,39.0338 364.4,46.3028 382.241,64.0828 C391.852,73.6608 398.045,85.9748 401.367,99.0478 C402.919615,105.157646 404.07687,111.415753 404.989777,117.659308 L405.213,119.2198 C405.724,122.8688 406.544,126.7318 406.62,130.4198 C406.689,133.7318 405.851,137.1978 405.397,140.4758 C404.44,147.3858 393.737,146.5988 392.199,140.4758 C388.697,126.5348 390.163,112.1468 385.883,98.2538 C382.088,85.9338 374.733,75.1618 364.076,67.7948 C319.117,36.7148 261.462,62.7418 211.926,60.3238 C199.819,59.7328 187.534,57.8618 176.114,53.6928 C170.225,51.5428 164.427,48.9208 159.088,45.6228 C154.196125,42.6031125 149.958156,38.8091086 145.429819,35.3177231 L143.432094,33.799409 C140.327715,31.4638296 135.043,27.8122918 131.911,30.9018 C130.548069,32.2466276 130.465608,35.2873529 130.490572,37.6093372 L130.506,38.6588 C130.648,48.5168 132.657,58.3568 128.968,67.8808 C127.285017,72.2249017 122.608161,74.9638313 118.159864,72.5037029 L117.93,72.3718 C108.52104,66.77434 96.1590387,78.0218587 103.386953,87.3303378 L103.612,87.6118 C107.678588,92.5539647 105.510505,101.257051 98.2321134,101.235307 L97.97,101.2308 C85.00199,100.82589 79.2484961,117.032695 90.4260925,124.114034 L90.77,124.3258 C99.845,129.7568 91.885,142.8138 82.584,138.3308 C83.372,138.7108 82.002,138.7058 81.218,139.7578 C80.465,140.7678 80.409,141.6418 80.588,142.9178 C81.131,146.7838 84.531,150.0418 87.285,152.4878 C93.541,158.0448 101.296,161.8818 109.287,164.2178 C141.297,173.5758 174.137,162.1288 205.325,155.2158 C237.84,148.0088 274.564,145.1058 302.92,165.5568 C303.257,165.7988 302.962,166.3398 302.589,166.1238 C282.239,154.3058 257.315,155.3548 235.07,160.1998 C205.9,166.5538 176.985,178.3808 147.11,181.4968 C155.497,196.3028 159.007,213.7898 156.767,230.7248 C155.224619,242.382467 150.585158,252.494452 145.105423,262.741733 L144.05969,264.694634 C139.173873,273.892684 135.389375,282.582092 135.329,293.2378 C135.27,303.8248 119.531,306.0568 116.863,295.7378 C110.806,272.3028 132.872,253.8438 141.875,234.5188 C149.57,217.9988 149.807,198.7378 143.58,181.8228 C136.554,182.3878 129.473,182.4468 122.321,181.8088 C116.178,181.2598 109.858,180.1528 103.698,178.4008 L101.233592,188.760624 C97.96876,202.55992 94.9438,216.35 94.027,230.6828 C93.352,241.2148 93.388,251.7988 94.415,262.3048 C95.303,271.3788 97.177,280.1298 99.084,288.9888 C100.72,291.1468 101.556,294.4498 101.096,297.0808 C111.716,300.1388 120.069,308.5188 123.121,319.6178 C123.307,320.2938 122.361,320.6738 122.007,320.0878 C114.766,308.0738 96.12,303.6528 84.325,311.5898 C73.061,319.1678 68.618,334.4678 74.994,346.5798 C78.3477436,352.94821 83.3201723,357.423566 89.7318297,360.505385 L91.0209807,361.110777 C94.3809643,362.700729 97.4652143,364.433443 99.626,367.6268 C102.429114,371.768771 102.523508,376.147211 102.258601,380.880303 L102.144053,382.798489 C101.96696,385.97116 101.927,389.2369 102.872,392.2888 L103.086722,392.967113 C103.335975,393.728615 103.598,394.399578 104.053,395.1268 C104.189,395.3428 105.465,396.5948 105.881,397.0478 L106.405,397.2058 L106.405,397.2058 L106.991,397.2298 L106.991,397.2298 C107.641087,397.239843 108.495418,396.95811 108.215117,397.153368 L108.291422,397.109687 C108.538047,396.956109 108.764922,396.793718 108.956047,396.649265 L109.319,396.3658 C110.168,395.1388 111.232,394.1248 112.537,393.3518 L113.784,392.7968 L113.784,392.7968 C117.023,389.3768 122.573,391.1738 124.895,394.5808 C126.566,397.0308 127.465,399.5218 127.539,401.9788 C127.8,401.5598 128.38,401.3308 128.749,401.7998 L130.950621,404.605233 C139.373939,415.367974 147.65232,426.19792 157.224,436.0088 C162.497,441.4148 168.169,446.4948 174.098,451.1738 C179.16,455.1688 188.762,459.0128 188.909,466.2898 C188.955,468.6518 187.278,470.3248 185.226,471.1268 C178.547514,473.735341 170.294704,464.861643 165.470936,460.543736 L165.077,460.1948 C159.173,455.0238 153.785,449.3478 148.813,443.2778 C139.156,431.4868 131.081,417.9158 127.522,402.9868 C127.355,405.5918 126.237,408.1448 124.061,410.5538 C121.164,413.7598 117.199,416.0078 112.964,416.9338 C103.369,419.0308 94.001,415.5778 88.292,407.5828 C83.4666667,400.823613 82.0459162,391.89857 82.6684988,383.73295 L82.7451982,382.753113 C82.8326886,381.443457 82.9441765,379.040447 83.283,378.0178 L80.262,376.3588 L80.262,376.3588 C76.558,374.3878 73.125,371.8038 70.044,368.9638 C57.661,357.5478 51.448,338.9948 57.109,322.7598 C60.65,312.6038 68.091,303.7668 77.619,299.1738 C76.0264737,295.493274 75.493903,291.122565 74.8929802,287.255451 L74.792,286.6158 C73.773,280.2718 72.92,273.8478 72.595,267.4278 C71.987,255.4378 72.726,243.3358 74.61,231.4848 C77.67,212.2358 84.005,191.8218 95.617,175.6738 C86.758,172.1558 78.604,167.0628 72.31,159.9908 C65.733,152.6008 61.54,142.0208 66.626,132.6358 C67.922,130.2438 69.611,128.2328 71.552,126.6358 C68.186,120.2798 67.097,112.7678 69.174,105.5878 C71.656,97.0038 78.395,90.3088 86.536,87.1828 C84.559,79.0498 86.175,70.3018 92.216,63.5238 C98.208,56.7998 107.513,54.3508 116.125,55.8878 C116.592,47.2378 113.869,38.0378 115.947,29.5068 Z M91.792,333.2066 C99.688,329.3426 109.046,329.9566 116.933,333.6186 L117.467393,333.872262 C126.078332,338.047828 137.48298,347.803763 134.746,358.1796 C133.144,364.2476 126.402,366.3196 121.174,363.7006 C116.807,361.5116 115.811,357.5986 113.62,353.6676 C112.071,350.8876 110.156,348.7146 107.907,346.4796 C103.166,341.7706 97.841,338.2726 91.792,335.4736 C90.92,335.0696 90.95,333.6196 91.792,333.2066 Z M290.7464,123.4773 C290.0064,123.1393 290.5434,121.9803 291.2884,122.1923 C311.1294,127.8583 329.6284,140.5763 340.6824,158.2293 C341.3564,159.3063 341.4594,161.0793 340.6824,162.1453 L340.324661,162.629103 C339.817658,163.290909 339.317463,163.779425 338.3644,163.9273 C336.5724,164.2053 335.0154,163.7383 333.9834,162.1453 C323.0934,145.3193 309.1414,131.8913 290.7464,123.4773 Z M423.5718,126.8091 C425.2528,123.9621 429.7098,124.5351 430.5968,127.7271 L430.725173,128.0049 C431.204254,129.093104 430.986319,129.315841 430.0928,128.7001 C432.3048,130.5221 433.3058,133.2361 432.6298,136.1541 C428.9778,151.9141 411.1268,163.1681 395.5648,161.6191 C394.2068,161.4841 394.0218,159.8151 395.2528,159.3171 C401.2398,156.8931 406.5538,152.9561 410.8268,148.1251 C414.9798,143.4291 416.7268,138.0561 418.9608,132.3851 C419.7988,130.2561 421.1028,128.7231 422.9398,127.8861 C423.1828,127.5501 423.3948,127.1921 423.5718,126.8091 Z M335.074609,116.681199 L335.1822,116.688 C343.1782,117.721 350.0952,121.667 355.7102,127.449 C361.1182,133.017 367.9432,142.205 367.3582,150.376 C366.9712,155.793 359.2692,158.89 356.3952,153.346 C354.6802,150.038 354.2912,146.412 353.0902,142.914 C351.9882,139.708 350.4662,136.664 348.6442,133.809 C344.8932,127.927 339.7352,122.944 334.4532,118.448 C333.835075,117.921875 334.265766,116.683988 335.074609,116.681199 L335.074609,116.681199 Z M129.9896,114.2807 C128.2166,112.5927 130.0606,109.7147 132.3156,110.2847 C144.2086,113.2957 155.9866,116.9577 168.3516,117.3217 C174.5276,117.5027 180.6686,117.0157 186.7866,116.2167 L189.884147,115.805366 C194.654984,115.182691 199.507779,114.693736 204.2236,115.6737 C207.3676,116.3267 207.9816,120.3767 206.0226,122.4897 C196.7716,132.4687 178.9276,131.5147 166.6586,129.8327 C153.3356,128.0047 139.8926,123.7147 129.9896,114.2807 Z M344.7547,83.1764 C343.9407,82.0474 345.3107,80.2654 346.6067,80.7664 C358.4257,85.3344 370.8127,97.2274 374.0687,109.6704 C374.9287,112.9574 370.7837,115.4394 368.3497,112.9994 C363.8137,108.4524 360.6117,103.0814 356.7777,97.9704 C352.9567,92.8754 348.4857,88.3504 344.7547,83.1764 Z M151.1019,88.7334 C150.1539,87.7864 151.1079,85.9004 152.4699,86.3824 C160.1649,89.1074 167.9179,91.4654 176.0019,92.7024 C184.2819,93.9684 192.6399,93.0064 200.9629,93.5194 C204.3299,93.7264 206.6229,98.9644 202.8799,100.5944 C186.2479,107.8354 163.6579,101.2694 151.1019,88.7334 Z M172.3486,72.4918 C171.0266,71.5138 171.7786,68.8298 173.5776,69.5788 C180.9056,72.6298 188.3166,73.3798 196.1806,73.0658 C199.0856,72.9488 199.6966,77.5138 196.8656,78.1298 C188.1726,80.0208 179.4526,77.7438 172.3486,72.4918 Z" id="ðŸ–-Ink" fill="#000000"/>
    </g>
</g><g transform="translate(320, 250)"><g>
    <!-- Generator: Sketch 62 (91390) - https://sketch.com -->
    <title>face/Driven</title>
    <desc>Created with Sketch.</desc>
    <g id="face/Driven" stroke="none" stroke-width="1" fill="none" fill-rule="evenodd">
        <path d="M178.871914,230.917268 C172.084992,233.585341 164.066433,234.215552 157.061098,231.942304 C150.362703,229.768113 144.28029,224.929412 140.599925,218.84408 C137.321901,213.424001 135.952932,206.991935 137.890254,200.579759 C137.982934,200.27284 138.283597,200.076561 138.573641,200 C140.158597,201.44297 141.137823,202.876119 142.116194,204.302267 C143.765639,206.706626 145.418747,209.086307 147.687997,211.141935 C150.989651,214.132462 155.438004,216.561321 159.852826,217.362336 C164.175422,218.148364 168.599466,217.453721 172.469952,215.384705 C174.823771,214.127392 176.726931,212.446046 178.611487,210.757233 C180.663611,208.918256 182.683221,207.051286 185.509504,206.012861 C187.774373,205.180558 190.153432,205.882876 191.981074,207.275134 C193.945418,208.77153 195.357973,211.113879 195.279663,213.562705 C195.158382,217.356749 193.497588,220.521617 191.087827,223.132749 C187.829983,226.662832 183.223603,229.206343 178.871914,230.917268 Z M170.814304,136.367155 C178.365682,140.9572 189.871664,151.660291 181.748119,163.039573 C172.185929,173.073062 158.418535,161.568982 151.634201,156.366134 C145.343449,152.333898 138.275437,162.704507 144.112,167.412823 C193.135736,203.708059 213.030606,137.567387 174.633685,130.970386 C170.406047,130.243425 168.835891,134.947174 170.814304,136.367155 Z M91.388,72.7683 C101.68,72.2763 110.75,76.8983 120.558,78.9983 C129.622,80.9403 138.552,79.7743 147.367,77.3043 C161.673,73.2953 167.587,95.1953 153.476,99.4633 C143.2,102.5713 132.38,102.7873 121.835,101.1853 C112.468,99.7613 104.616,95.2013 95.685,92.5463 C88.0204884,90.2689512 79.0041303,91.2154163 70.9099803,92.2875982 L67.768,92.7103 C63.098,93.3393 58.403,93.9703 53.779,94.8833 C49.767,95.6763 45.762,97.1273 41.667,97.2953 C41.202,97.3153 40.808,96.7113 41.101,96.3083 C45.8578889,89.7777222 55.0259896,84.6248116 62.3187464,81.1879671 L62.813,80.9563 C71.815,76.7593 81.365,73.2463 91.388,72.7683 Z M87.6173265,120.923881 L87.6160369,120.698595 C87.6300369,114.321808 91.344047,99.7622157 100.524157,99.7622157 C106.259134,99.7622157 109.740999,109.67102 110.343765,119.885575 L110.3647,120.302049 C110.630879,126.652574 108.888163,140.533717 100.524157,140.533717 C92.071637,140.533717 87.7042339,127.386546 87.6173265,120.923881 L87.6173265,120.923881 Z M222.772617,120.923881 L222.773907,120.698595 C222.759907,114.321808 219.045897,99.7622157 209.865787,99.7622157 C204.274184,99.7622157 200.824446,109.181773 200.096775,119.120207 L200.046179,119.885575 C199.684084,126.021693 201.313826,140.533717 209.865787,140.533717 C218.318307,140.533717 222.68571,127.386546 222.772617,120.923881 L222.772617,120.923881 Z M222.631889,65.001572 L223.2885,65.016 C234.0165,65.388 245.0515,71.743 247.9155,82.418 C248.0635,82.972 247.3805,83.345 246.9755,82.965 C238.154379,74.7062828 226.291005,82.5977143 217.457956,86.7341044 L214.213553,88.2329098 C202.826322,93.5306845 189.875019,99.7591481 177.2315,95.811 C171.2265,93.936 167.4125,87.766 169.1255,81.534 C170.64941,75.9890149 177.342493,71.3290091 183.139632,73.330419 L183.4025,73.426 C188.1125,75.2276667 193.90375,73.40225 198.768148,71.6025278 L202.76406,70.1019862 C209.189584,67.6637959 215.644819,64.9359718 222.631889,65.001572 L222.631889,65.001572 Z" id="ðŸ–-Ink" fill="#000000"/>
    </g>
</g></g><g transform="translate(210, 310)"><g>
    <!-- Generator: Sketch 62 (91390) - https://sketch.com -->
    <title>accessories/* None</title>
    <desc>Created with Sketch.</desc>
    <g id="accessories/*-None" stroke="none" stroke-width="1" fill="none" fill-rule="evenodd"/>
</g></g>
          </g>
        </g>
      </svg>