<svg id="avatar-svg" transform="translate(-40, 0)" width="380" height="380" class="path1" viewBox="0 0 700 700" fill="none" stroke="black" strokewidth="0.8" strokelinecap="round" strokelinejoin="round" xmlns="http://www.w3.org/2000/svg">
        <style>
          @media (prefers-reduced-motion){.path1{animation:none!important;stroke-dasharray:unset!important}}@media print{.path1{animation:none!important;stroke-dasharray:unset!important}}@keyframes grow{0%{stroke-dashoffset:1px;stroke-dasharray:0 1000px;opacity:0;fill-opacity:0}10%{opacity:1;fill-opacity:0}60%{stroke-dasharray:1000px 0;fill-opacity:1;stroke-opacity:0}to{stroke-dasharray:1000px 0;fill-opacity:1;stroke-opacity:0}}.path1 g g path{stroke-dashoffset:1px;stroke-dasharray:1000px 0;animation:grow 7s linear forwards;transform-origin:center;stroke:#a2a0a0;stroke-width:10px;animation-delay:0s}
        </style>
        <g>
          <g>
            <g transform="translate(0, 550)">
    <!-- Generator: Sketch 62 (91390) - https://sketch.com -->
    <title>body/mono/Blazer Black Tee</title>
    <desc>Created with Sketch.</desc>
    <g id="body/mono/Blazer-Black-Tee" stroke="none" stroke-width="1" fill="none" fill-rule="evenodd">
        <path d="M735.5557,227.4311 C721.6747,161.6691 672.4462,110.6393 606.2382,85.2183 C593.511715,78.0202542 581.175188,47.1344458 564.071541,41.4781328 C561.329824,40.5714251 565.657383,47.7873642 564.071541,48.2183 C558.415081,49.7553838 552.077171,49.9158903 545.831904,44.365067 C534.670211,34.4445006 531.168486,5.46126669 524.382121,-7.638195 C488.591121,-76.724195 399.2287,-49.6929 387.2567,26.6801 C378.90907,32.1209948 367.108607,36.9139984 358.022001,41.2984194 C348.665224,45.8132011 340.434796,56.7485003 330.792249,60.6580966 C322.188649,64.146449 308.012387,61.6752413 299.342989,64.7163092 C259.468912,78.7034139 225.696784,96.3526332 199.2197,132.1121 C193.6407,139.6541 187.3517,148.9261 182.2747,156.5451 C156.1007,186.6761 137.9207,220.4481 121.1767,256.6811 C74.3307,363.0321 61.5887,480.7861 50.1567,595.3721 C50.4167,615.4211 37.1127,671.0151 56.7897,680.6271 C55.6137,681.8461 56.0397,684.2951 58.2217,684.2741 C108.1147,683.7701 157.8917,688.2351 207.0107,696.9161 C230.7097,701.1051 254.2817,706.8491 278.4217,707.7931 C328.5327,707.4471 378.4637,699.0501 428.5087,706.9961 C488.670929,706.9961 561.786485,705.24306 628.716211,702.670144 C691.268626,700.265501 754.156241,705.69641 815.9337,695.0591 C820.8237,694.2851 823.2117,688.3211 822.1867,684.0471 C814.9387,657.6371 811.3807,630.4551 807.3137,603.4241 C808.1237,586.0861 806.6747,567.9861 800.2607,551.8371 C783.5027,442.8191 762.0137,334.5121 735.5557,227.4311 Z" id="ðŸŽ¨-Background" fill="#FFFFFF"/>
        <path d="M715.3684,370.7279 C714.0484,377.1379 712.1984,383.5479 709.7384,389.6189 C707.3684,395.4779 703.7984,400.7279 701.3394,406.5179 C701.0094,407.2979 700.4694,407.8879 699.8184,408.3379 L700.021275,409.9129 L700.021275,409.9129 L700.2084,411.4879 C701.434971,422.116471 702.814359,432.715655 704.009024,443.342757 L704.5894,448.6589 C706.9384,470.8479 710.6484,492.9279 713.5284,515.0579 C716.3484,536.7279 719.2194,558.3979 722.2884,580.0379 C725.4584,602.3479 728.6884,624.6279 732.4584,646.8479 C734.050067,656.232067 735.711178,665.608594 737.441733,674.977483 L738.7784,682.1479 C752.5384,685.4579 756.2984,704.6379 742.2884,711.7179 C735.9294,714.9179 727.7594,714.1479 722.5184,709.1189 C717.072159,703.877789 716.846073,694.426068 715.582089,687.327168 L714.364434,680.73046 C705.25311,631.126876 697.34536,580.9519 693.6484,530.6479 C692.6984,517.6589 691.8984,504.6589 691.3784,491.6479 C690.884317,479.4104 691.120435,467.17374 690.931372,454.93561 L690.8684,451.5979 C690.5794,438.5479 690.8184,425.5179 691.1584,412.4679 C691.1984,410.8779 691.2684,409.2879 691.3484,407.6879 C690.8894,407.1479 690.5584,406.5079 690.4194,405.8879 L690.2384,405.0679 C689.7884,402.9579 690.2984,400.4879 691.9194,398.9779 C692.6184,390.0879 693.5384,381.2079 693.7884,372.3279 C693.8084,371.5979 694.8584,371.6189 694.9194,372.3279 C695.5094,379.8879 696.6884,387.4679 697.8684,395.0379 C705.4584,388.9379 711.0684,378.8779 714.3784,370.4579 C714.6184,369.8479 715.5094,370.0679 715.3684,370.7279 Z M535.7882,17.3073 C537.0482,23.0673 539.5382,28.2383 542.8782,33.0483 C544.4692,35.3483 546.2782,37.4883 548.4482,39.2783 C550.3092,40.8073 552.4292,41.8073 554.4082,43.1383 C557.2882,42.6873 560.2982,43.7783 562.3182,45.8973 L561.9992,42.7983 C561.8982,41.7983 563.5592,41.5983 563.7492,42.5673 C572.497825,86.6889667 580.476828,130.839104 587.383444,175.279992 L590.410835,194.905769 L593.259399,213.330245 C597.989063,244.031936 602.564015,274.721374 606.0092,305.6473 C610.5992,346.9183 614.4582,388.2983 617.2782,429.7373 C620.1082,471.4683 621.8492,513.2273 623.0892,555.0383 C623.3982,565.5783 623.7292,576.1083 624.0482,586.6473 L626.184231,574.046628 C628.316012,561.4433 630.40645,548.8283 632.1982,536.1683 C638.6282,490.8583 643.7692,445.2273 646.2782,399.5283 C648.5792,357.7083 647.8092,315.0583 637.1692,274.3173 C634.4882,264.0673 631.2082,253.9773 627.2492,244.1473 C623.4082,234.5883 618.1692,225.7273 614.0382,216.3083 C609.2382,205.3483 607.7982,195.0083 610.2692,183.2083 C612.4292,172.9283 616.2192,163.2583 616.8982,152.6783 C618.1692,133.0383 611.7782,114.0173 602.7492,96.8283 C600.3682,92.2983 597.8582,87.8283 595.2382,83.3973 C587.3092,70.0083 578.3682,57.1073 569.0892,44.7383 C568.5892,44.0783 569.6482,43.3483 570.1892,43.8883 C578.6482,52.2483 587.8982,60.4683 595.5092,69.5983 C599.2082,74.0383 602.8182,78.5673 606.2382,83.2183 C643.7592,89.4883 675.9992,112.8573 698.0382,143.7183 C723.0482,178.7383 735.6982,220.8883 745.0592,262.3973 C755.4692,308.5283 764.2492,355.0783 773.5992,401.4373 C783.2782,449.4083 792.9082,497.3783 802.6482,545.3383 C807.4882,569.1473 812.3292,592.9583 817.1582,616.7783 C819.6082,628.8383 822.1792,640.8683 824.8682,652.8883 C826.2492,659.0483 827.7292,665.1983 829.0092,671.3783 C830.4482,678.3483 829.1082,682.8073 824.3892,687.9283 C822.6482,689.8283 819.8982,689.7983 817.7382,688.7883 L817.062965,688.470366 L816.410344,688.155257 C813.737583,686.841723 811.642131,685.480576 809.9792,682.5573 C808.1482,679.3483 807.8582,675.7883 807.2292,672.2183 C806.0682,665.6473 804.9192,659.0783 803.7592,652.4983 C802.02595,642.6583 800.141387,632.846425 798.223216,623.036941 L788.59945,574.01405 C786.0332,560.9428 783.4632,547.8728 780.8782,534.8083 C771.6482,488.0883 762.4082,441.3783 753.1692,394.6683 C744.2982,349.8173 736.4482,304.6583 726.3492,260.0673 L725.775021,257.555221 L725.191082,255.046498 C716.16044,216.606182 703.542783,179.42205 680.6482,146.8483 C663.0282,121.7983 638.5592,99.4283 609.7382,88.1073 C611.7692,91.0283 613.7192,94.0083 615.5792,97.0483 C627.2592,116.1283 635.7882,138.7783 633.7882,161.4983 C632.8092,172.5983 628.5892,183.5083 628.9882,194.6983 C629.3582,204.6383 635.5092,213.3683 639.7592,222.0173 C649.4082,241.6183 656.3892,262.4483 660.8892,283.8173 C669.9192,326.7273 669.8892,370.8783 666.7782,414.4373 C663.3982,461.7883 656.9792,509.1283 649.6692,556.0173 C645.9192,580.0673 640.9292,603.9183 637.1082,627.9283 C635.2192,639.7673 632.6482,651.5783 630.3982,663.3583 L629.325867,668.986337 C628.725496,672.109732 628.102595,675.223045 627.383089,678.303299 L626.9392,680.1473 L626.9392,680.4773 C626.9192,682.7483 626.2982,684.6283 625.2982,686.1283 C623.9292,690.5173 622.2292,694.7983 619.9692,698.9083 C618.8092,701.0083 617.1282,702.1873 615.2982,702.6183 C613.4582,706.8283 609.2882,710.0673 604.3092,710.048547 L538.8182,709.7983 C500.7782,709.6473 462.7382,709.3973 424.6982,709.1873 C415.0992,709.1383 405.5092,708.9583 395.9192,708.7083 C386.9292,708.4583 378.3092,707.3783 369.4192,706.2583 C359.3782,704.9983 353.9392,697.8883 355.4392,687.8583 C355.7692,685.6473 356.1282,683.4483 356.4692,681.2483 C354.4692,681.9083 352.0892,681.5983 350.4792,680.0283 L348.969756,678.551028 C346.877397,676.481146 345.00601,674.448586 343.6792,671.6873 C342.3092,668.8483 341.1982,665.8483 339.9882,662.9483 C337.3782,656.7083 334.8392,650.4483 332.3682,644.1583 C327.4192,631.5783 322.4692,618.9483 317.8682,606.2373 C308.7592,581.0673 300.6982,555.5173 293.6892,529.6783 C281.1892,483.5783 272.1482,436.5883 266.4482,389.1783 L265.085418,377.87879 L264.689166,374.541048 C262.527675,356.165431 260.708577,337.504547 261.5682,319.1683 C262.0992,307.6873 263.8782,296.1183 268.1692,285.3973 C272.1282,275.5083 278.2382,267.0483 284.0482,258.2083 L284.713058,257.187877 L285.381472,256.142578 C290.46261,248.113366 294.505635,239.71906 294.7082,229.9683 C294.913497,220.073165 292.030736,210.443099 288.80753,201.179423 L288.004202,198.894816 L287.465033,197.3827 C280.608045,178.236875 272.80465,159.3618 275.3782,138.5283 C279.1792,107.8483 297.7782,83.1183 321.1792,64.0483 C300.3682,68.1683 279.7692,76.3073 261.5892,86.6283 C240.1182,98.8283 220.7882,114.9283 204.1182,133.0983 C172.6182,167.4373 150.1282,208.6383 131.7192,251.1783 C112.4482,295.6983 98.1582,342.3483 87.3892,389.6083 C76.5592,437.1383 69.3092,485.4283 64.3582,533.9083 C61.8892,558.0383 59.9482,582.2273 58.3392,606.4283 C57.5192,618.8283 56.8992,631.2483 55.9392,643.6283 C54.9792,655.9983 54.5482,668.5573 51.5282,680.5983 C50.1182,686.2083 40.6082,686.7783 39.5892,680.5983 C37.3277294,666.796535 37.9597483,652.52375 38.590905,638.547985 L38.6482,637.2783 C39.2692,623.3583 40.0792,609.4483 41.0382,595.5383 C42.9992,567.1083 45.6182,538.7183 49.0382,510.4183 C61.0282,411.0783 83.1392,312.2583 126.5092,221.5783 C146.9292,178.8683 173.1392,137.3683 209.5992,106.5283 C226.9582,91.8573 246.5282,80.1473 267.6182,71.6683 C286.4792,64.0783 305.6392,60.4883 325.6792,60.4983 C335.7292,52.7983 346.5192,46.0883 357.2982,40.3573 C357.9482,40.0083 358.6282,40.8483 358.0892,41.3883 C357.8092,41.6583 357.5382,41.9373 357.2592,42.1983 C358.4792,42.2783 359.7382,42.8483 360.8682,44.0383 C364.8292,48.1873 368.1692,53.3783 371.1582,58.7673 C375.7082,64.4483 380.0482,70.3173 384.5892,75.9373 C391.8582,84.9373 399.2982,93.8073 406.8292,102.6073 C419.476568,117.396668 432.535893,131.906015 446.154269,145.831792 L448.4292,148.1473 C455.4882,155.2983 462.6392,163.8573 470.9882,169.5173 L471.433962,169.813803 C474.956478,172.108706 477.45436,172.5255 480.4582,169.0983 C483.189129,165.9783 485.462205,162.358198 487.798657,158.918551 L488.3392,158.1283 C500.2692,140.7983 511.3292,122.8283 521.3392,104.3283 C525.901927,95.9092091 530.24234,87.3678041 534.36044,78.7318838 L535.5892,76.1383 C537.8292,71.3783 540.2592,66.7083 542.1082,61.8073 C542.5382,60.6583 542.9582,59.5083 543.3682,58.3683 C537.0682,54.2383 532.1892,45.2983 530.4192,38.2983 C528.5792,31.0283 529.5092,23.5673 532.7882,16.9183 C533.4082,15.6683 535.4882,15.9773 535.7882,17.3073 Z M225.000123,312.7375 C224.1283,340.3785 223.5993,368.0485 222.2983,395.6685 L221.8493,405.0975 C223.8783,407.3585 225.0683,409.9675 224.1183,413.5485 C223.7493,414.9185 222.6583,416.1585 221.2983,416.6185 L220.874286,425.385375 C218.944411,464.830129 216.682093,504.192983 212.5483,543.5385 C207.3783,592.7785 201.3983,641.9375 195.4293,691.0885 C194.5793,698.0485 189.7383,703.5675 182.2083,702.5485 C174.5893,701.5175 171.4993,694.8875 172.4993,687.9775 C176.4293,660.8685 180.2083,633.7375 183.5193,606.5385 L187.289211,575.549661 C192.016433,536.812569 196.854826,498.081447 202.4293,459.4675 C204.7593,443.3285 207.1793,427.1985 209.6083,411.0675 L208.7593,409.9675 C205.2883,405.4585 201.6983,401.0485 198.1483,396.6085 C191.3293,388.0485 184.5993,379.5575 178.3493,370.5975 C178.0383,370.1475 178.6693,369.4875 179.1183,369.8285 C187.8783,376.2985 196.1693,383.2175 204.5093,390.2485 L211.8093,396.4275 C216.0093,368.5575 220.1693,340.6775 223.8783,312.7375 C223.9693,312.0385 225.0193,311.9875 225.000123,312.7375 Z M351.0092,48.2183 C345.7382,53.1873 340.3492,58.0483 335.0382,62.9883 L333.092886,64.8063705 L331.156569,66.632809 C321.822935,75.4840025 312.880442,84.6976939 305.4292,95.2783 C291.7492,114.7083 283.5992,138.3973 289.2882,162.1183 C294.0092,181.7673 304.8392,199.5783 307.7492,219.7183 C309.2082,229.8083 308.4992,239.9483 304.6982,249.4773 C300.8182,259.1983 294.6182,267.5283 289.0482,276.2983 C276.9482,295.3583 275.2982,316.2783 276.4992,338.3583 C277.7592,361.4183 280.4082,384.4873 283.6792,407.3383 C290.2982,453.6383 300.2782,499.4583 313.4882,544.3283 C320.0992,566.7983 327.9082,588.7883 335.6792,610.8683 C339.5482,621.8583 344.0592,632.5883 348.7082,643.2673 C351.1582,648.8883 353.6692,654.4773 356.2192,660.0573 C355.2782,652.1783 355.2782,644.0883 354.8182,636.2583 C354.1582,625.0383 353.3182,613.8383 352.5482,602.6283 C350.9792,579.8783 349.5792,557.1083 348.3292,534.3383 C343.8992,453.1383 340.6392,371.8683 340.8782,290.5383 C340.9992,249.8683 341.8292,209.1983 343.5792,168.5673 C344.3996,149.433967 345.98832,130.318927 347.424189,111.212424 L347.7292,107.1183 C348.9992,89.9683 350.5192,72.7783 353.1282,55.7783 C352.355756,54.0351889 351.685237,52.2699543 351.18758,50.4594193 L351.0092,49.7783 L351.1392,49.7983 C351.0192,49.2673 350.9792,48.7383 351.0092,48.2183 Z M396.5894,-21.6619 C396.6984,-22.1319 397.3684,-22.0919 397.4884,-21.6619 C400.4584,-11.6619 399.4084,-0.6619 396.8494,9.3981 C395.4694,14.8481 393.5094,20.1381 391.1394,25.2381 L390.31003,27.0228656 C388.279392,31.3662726 385.992945,35.8414333 382.0384,38.5481 C380.3894,39.6781 377.4384,39.7481 375.7884,38.5481 L374.946919,37.9095815 C374.8084,37.8014333 374.671733,37.6914333 374.5384,37.5781 C372.9994,36.2881 372.2384,33.4381 372.9484,31.5581 C374.7784,26.7081 378.9294,23.1481 381.7984,18.8281 C384.3394,14.9881 386.5894,10.9381 388.4584,6.7281 C392.4884,-2.3819 394.2984,-12.0519 396.5894,-21.6619 Z" id="ðŸ–-Ink" fill="#000000"/>
    </g>
</g><g transform="translate(200, 50)">
    <!-- Generator: Sketch 62 (91390) - https://sketch.com -->
    <title>head/mono/Pomp</title>
    <desc>Created with Sketch.</desc>
    <g id="head/mono/Pomp" stroke="none" stroke-width="1" fill="none" fill-rule="evenodd">
        <path d="M385.414655,173.221564 C381.553655,149.862425 394.225655,145.015818 385.414655,122.81092 C365.832655,81.6673118 312.467655,83.4400723 273.307655,80.2766375 C229.629655,78.6026407 185.421655,84.3688512 145.155655,101.874987 C135.537655,106.055988 126.286655,110.973229 117.418655,116.559869 C109.750655,121.391315 110.804655,130.577347 115.639655,135.588364 C80.7746553,184.960294 100.715655,251.231811 72.8966553,303.201529 C67.7576553,312.491313 60.9606553,320.821392 56.4936553,330.487277 C49.7036553,345.18014 49.2686553,366.232794 64.6666553,375.99046 C86.3536553,387.630623 98.4556553,364.583738 109.111655,397.992843 C162.329655,514.483264 269.328655,521.043576 370.904655,460.309816 C379.692655,455.421506 388.661655,449.896718 395.297655,442.217084 C410.360655,425.265622 408.586655,401.427629 408.919655,380.259251 C409.105655,367.853918 409.136655,355.446589 409.015655,343.03926 C408.541655,292.781448 391.884655,223.065366 385.414655,173.221564 Z" id="ðŸŽ¨-Background" fill="#FFFFFF"/>
        <path d="M169.0666,33.5077 C230.3966,5.6877 299.9576,-4.8623 366.8576,2.0577 C399.878278,5.46790339 432.464081,12.784251 463.474997,24.6688994 L466.193261,25.7193843 C473.848458,28.6657097 482.100367,31.5902581 487.9176,37.5877 C494.6886,44.5577 496.5876,55.0977 491.7476,63.7077 C487.9876,70.3977 481.2276,75.1967 474.0176,77.7577 C476.5576,79.8377 478.9676,82.1577 481.2276,84.7477 C485.0376,89.0877 485.3276,95.2767 481.2276,99.5577 C473.3276,107.8077 463.0776,113.7767 452.0376,116.6377 C453.2776,122.6277 452.6076,129.2577 449.9476,135.2277 C442.3147,152.3646 420.813385,154.40698 404.267456,153.389458 L403.7676,153.3577 L402.8476,163.8877 C402.3576,169.4977 398.9976,173.8477 393.2976,174.7077 C393.0976,174.7377 392.8966,174.7577 392.6976,174.7767 C401.7176,207.3977 407.1676,241.0267 412.1976,274.4577 C414.8256,291.9087 417.1782,309.4002 419.43036,326.90304 L420.1776,332.7377 C422.5776,351.6077 425.5776,370.6677 426.6176,389.6777 C427.5476,406.9277 424.2576,423.3977 413.6276,437.3177 C404.0876,449.7977 391.0776,459.1477 377.0876,466.0877 C345.4776,481.7767 312.2076,493.4577 277.2476,498.8777 L274.916235,499.236444 C261.421445,501.296219 247.517418,503.032245 234.1676,499.2977 C222.4386,496.0177 210.1376,487.5577 212.7876,473.9677 C213.6776,469.3777 220.0976,469.1777 222.2976,472.7277 L222.80543,473.541144 C225.443517,477.726861 228.33463,481.617033 232.9386,483.7767 C238.3276,486.3177 244.5776,487.0267 250.4676,487.0977 C266.9176,487.2877 284.0476,483.1877 299.8876,479.0777 C329.4676,471.3987 359.8476,458.8777 384.0776,439.9077 C394.3876,431.8477 402.6676,421.7677 405.5876,408.7977 C409.1976,392.8077 405.8776,375.3277 404.2376,359.2577 C400.8626,326.098325 396.845998,293.000473 392.608022,259.939426 L391.7576,253.3277 C388.1886,225.6877 384.4386,198.0377 382.6576,170.2377 C381.9176,169.2277 381.4176,168.0777 381.2176,166.8177 L380.9386,165.0077 L380.9386,165.0077 C380.6976,163.4577 380.6576,162.0377 380.8276,160.7277 C380.8376,155.7077 380.9776,150.7177 381.2676,145.6967 C381.3166,144.7977 381.3576,143.8977 381.3876,143.0077 C376.1676,144.1577 370.9076,145.0877 365.6276,145.8777 C328.5076,151.4677 290.8076,152.8677 253.3876,150.0877 C234.7176,148.6967 216.1886,146.3077 197.7176,143.3177 C188.3166,141.7977 178.9476,140.1177 169.6076,138.2377 C162.8576,136.8877 156.2476,135.0577 149.6076,133.3377 C142.7576,143.3077 139.0576,155.5777 139.7776,167.6277 C140.5876,181.3777 149.7476,193.8477 147.1776,207.8977 C144.7656,221.0467 133.5003,225.1237 122.378289,228.380251 L117.647948,229.746916 C114.008809,230.809438 111.366323,231.834509 110.7076,236.2077 C109.5776,243.7177 110.9676,252.1677 111.2576,259.7177 C111.6076,268.6477 112.0666,277.5777 112.2776,286.5077 C112.3876,291.1277 112.5666,295.7677 112.5576,300.3877 C112.5476,303.6677 112.0576,305.9077 110.7876,308.0267 C111.7676,309.2577 112.6466,310.5877 113.4276,311.9977 C113.6776,312.4577 113.0576,312.9467 112.6886,312.5677 C111.6976,311.5377 110.6466,310.6077 109.5376,309.7767 C108.9776,310.4677 108.3276,311.1677 107.5666,311.9177 L107.5076,311.8377 L107.5076,311.8377 C105.1276,314.2077 101.3476,314.4377 98.3966,311.9177 L97.622266,311.246807 C95.462361,309.353484 93.9782897,307.776666 93.3776,304.6477 C93.3476,304.4877 93.3166,304.3277 93.2976,304.1677 C87.8076,303.9777 82.2276,305.2767 77.2876,308.0077 C69.4576,312.3377 63.9476,318.5077 60.6886,326.1277 C61.9876,327.6477 63.5076,329.0077 65.2776,330.1477 C65.5276,330.3177 65.3076,330.6877 65.0376,330.5577 C63.2276,329.7077 61.6076,328.6577 60.1576,327.4277 C58.9876,330.4277 58.1676,333.6477 57.6676,337.0577 C55.9076,349.0977 59.0476,363.8077 69.9276,370.6677 C74.6376,373.6377 80.0176,375.2477 85.5976,375.2677 C88.3166,375.2767 90.6676,374.8177 93.3076,374.1677 C95.0976,373.7277 96.8776,373.0877 98.7476,373.0877 C100.3476,373.0877 101.8276,373.4877 103.1976,374.2877 L102.817638,374.320971 C101.894271,374.407638 102.071886,374.4467 103.3576,374.4467 C107.3576,374.6177 109.6466,378.6777 107.8076,382.2077 L107.566306,382.753053 C107.515498,382.863292 107.472457,382.954271 107.4386,383.0267 L107.293288,383.963052 C107.2788,384.0521 107.2636,384.1437 107.2476,384.2377 L107.192044,384.42733 C107.182044,384.4577 107.170933,384.4877 107.1576,384.5177 L113.156638,393.666016 C120.511886,404.857394 128.031171,416.005557 136.5876,426.2277 C142.5876,433.3977 148.9476,440.4277 155.6676,446.9377 C161.7076,452.7877 168.9476,455.6077 175.7876,460.2077 C179.4386,462.6477 180.5076,467.7577 177.1886,471.0477 C167.4476,480.7177 153.6576,473.0377 145.6676,465.1777 C138.1076,457.7277 131.5776,448.7677 125.9476,439.7977 C115.9576,423.8477 108.0076,406.8877 104.5276,388.4777 C103.0776,389.8077 101.2276,390.6377 99.3576,391.2877 C95.6076,392.5877 91.4776,393.1277 87.5176,393.2677 C79.9276,393.5177 72.3276,391.6777 65.4976,388.4177 C37.7076,375.1677 33.6276,335.4877 50.6176,312.0877 C48.3266909,305.444064 47.0471661,298.23551 45.65706,292.088454 L45.0246343,289.340608 C37.9999759,258.647793 33.2818,226.33292 45.7376,196.2577 C47.3376,192.3777 49.1376,188.5977 51.2676,184.9777 C52.9776,182.0677 55.9176,178.9677 56.7276,175.6577 C58.5276,168.3877 47.4176,160.7477 44.1776,154.9777 C40.3676,148.2077 39.8276,140.2177 45.0176,134.0267 C45.6776,133.2477 46.3966,132.5267 47.1776,131.8977 C42.2576,122.9777 42.0276,111.7577 48.5076,102.9577 C52.7676,97.1577 59.2676,93.0977 66.3676,91.8677 C70.7076,91.1177 75.9276,91.3977 80.6976,92.7377 C106.8166,68.4877 136.6176,48.2277 169.0666,33.5077 Z M68.7671,336.9378 C75.7381,330.7878 83.4381,327.5678 92.9381,328.3778 C102.4881,329.1968 113.9881,333.1478 119.5971,341.3378 C124.0281,347.8078 114.9981,357.2978 108.4981,352.4378 C102.5781,348.0078 98.6271,343.0078 91.2781,340.6278 C84.6771,338.4978 76.5071,337.1278 69.5971,338.3478 C68.8371,338.4778 68.0781,337.5378 68.7671,336.9378 Z" id="ðŸ–-Ink" fill="#000000"/>
    </g>
</g><g transform="translate(320, 250)"><g>
    <!-- Generator: Sketch 62 (91390) - https://sketch.com -->
    <title>face/Concerned Fear</title>
    <desc>Created with Sketch.</desc>
    <g id="face/Concerned-Fear" stroke="none" stroke-width="1" fill="none" fill-rule="evenodd">
        <path d="M166.6906,207.9332 C178.561529,207.9332 183.5886,209.8632 191.3116,214.4012 C199.0346,218.9392 207.2904,224.78835 209.2436,233.5502 C211.0656,241.7142 207.4806,249.6692 199.5456,252.7832 C195.1076,254.5262 143.967743,258.606343 135.9456,259.1392 C127.923457,259.672057 120.2672,259.0136 115.1156,253.6712 C101.8046,239.8662 120.2896,221.9682 132.1016,215.3592 C142.6486,209.4552 154.819671,207.9332 166.6906,207.9332 Z M163.945031,217.243381 C155.01579,217.243381 140.3876,223.774389 140.3876,226.9542 C140.3876,230.134011 183.022253,226.977236 183.936486,224.25702 C184.85072,221.536805 172.874272,217.243381 163.945031,217.243381 Z M170.814304,144.367155 C178.365682,148.9572 189.871664,159.660291 181.748119,171.039573 C172.185929,181.073062 158.418535,169.568982 151.634201,164.366134 C145.343449,160.333898 138.275437,170.704507 144.112,175.412823 C193.135736,211.708059 213.030606,145.567387 174.633685,138.970386 C170.406047,138.243425 168.835891,142.947174 170.814304,144.367155 Z M85.5415,102.7665 C98.4035,93.2705 117.6435,100.5795 120.8135,115.4365 C123.0165,116.5955 124.2155,118.4385 124.4765,121.1365 L124.5415,121.8115 L124.5415,121.8115 C124.8525,125.0165 122.0005,128.0505 119.1495,128.8955 C115.9405,129.8455 113.4005,129.3545 110.4215,127.9915 C107.565824,126.683824 106.572261,122.976324 107.090796,120.15545 L107.1375,119.9225 C107.9005,116.4215 104.8985,113.0295 101.8775,111.6425 C98.4685,110.0775 94.6435,111.0575 91.6795,113.1315 C88.3885,115.4325 85.6515,119.3685 84.7255,123.2905 L84.6335178,123.697736 C83.903116,127.083489 83.35438,133.43554 86.6395,135.3805 C87.2215,135.7235 86.8065,136.5115 86.2055,136.4075 C79.0675,135.1865 74.8165,130.8925 74.772786,123.2115 C74.7275,115.0775 79.0965,107.5245 85.5415,102.7665 Z M203.9801,100.0641 C216.8251,95.5081 232.8891,107.7471 227.9411,121.8831 C224.69192,131.16435 212.125909,127.443593 213.296402,118.140707 L213.3361,117.8571 C214.0811,113.0171 210.4151,110.7341 205.9211,112.3221 C199.2601,114.6771 195.6681,125.1431 198.7891,131.2491 C199.1721,131.9991 198.1011,132.6341 197.6551,131.9111 L197.227138,131.22391 C193.742344,125.673644 190.562845,121.576727 191.7081,114.4871 C192.7621,107.9521 197.7631,102.2681 203.9801,100.0641 Z M177.9284,66.4177 C177.8954,65.7927 178.5534,65.3717 179.1154,65.5127 C183.6814,66.6617 187.8144,69.9817 191.9724,72.1357 C196.5104,74.4857 201.1584,76.3847 206.0864,77.7767 C210.8884,79.1327 215.7404,79.8087 220.7324,79.7667 C226.1334,79.7217 231.4194,77.6947 236.7164,77.8617 C244.6804,78.1127 248.8414,89.6927 240.9984,93.6727 C229.5784,99.4657 212.6414,95.2567 201.5334,90.4407 C192.5924,86.5637 178.5104,77.4027 177.9284,66.4177 Z M119.9208,69.0653 C124.0868,63.7013 132.5158,63.3793 136.2148,69.6993 C140.0358,76.2293 135.4438,82.7763 128.9508,84.1273 C117.1018,89.4243 104.9658,93.4783 92.0238,95.1593 L90.2708839,95.3800744 C79.0072825,96.7504375 64.7921,97.49785 54.6138,92.3023 C53.6168,91.7923 53.9188,90.2733 54.9168,89.9883 C60.6548,88.3473 67.0808,88.3513 72.9818,87.2743 C78.5948,86.2513 84.1618,85.1193 89.6278,83.4603 C100.4268,80.1813 110.6588,75.4953 119.9208,69.0653 Z" id="ðŸ–-Ink" fill="#000000"/>
    </g>
</g></g><g transform="translate(210, 310)"><g>
    <!-- Generator: Sketch 62 (91390) - https://sketch.com -->
    <title>accessories/* None</title>
    <desc>Created with Sketch.</desc>
    <g id="accessories/*-None" stroke="none" stroke-width="1" fill="none" fill-rule="evenodd"/>
</g></g>
          </g>
        </g>
      </svg>