<svg id="avatar-svg" transform="translate(-40, 0)" width="32" height="32" class="path1" viewBox="0 0 700 700" fill="none" stroke="black" strokewidth="0.8" strokelinecap="round" strokelinejoin="round" xmlns="http://www.w3.org/2000/svg">
        <style>
          @media (prefers-reduced-motion){.path1{animation:none!important;stroke-dasharray:unset!important}}@media print{.path1{animation:none!important;stroke-dasharray:unset!important}}@keyframes grow{0%{stroke-dashoffset:1px;stroke-dasharray:0 1000px;opacity:0;fill-opacity:0}10%{opacity:1;fill-opacity:0}60%{stroke-dasharray:1000px 0;fill-opacity:1;stroke-opacity:0}to{stroke-dasharray:1000px 0;fill-opacity:1;stroke-opacity:0}}.path1 g g path{stroke-dashoffset:1px;stroke-dasharray:1000px 0;animation:grow 7s linear forwards;transform-origin:center;stroke:#a2a0a0;stroke-width:10px;animation-delay:0s}
        </style>
        <g>
          <g>
            <g transform="translate(0, 550)">
    <!-- Generator: Sketch 62 (91390) - https://sketch.com -->
    <title>body/mono/Polo and Sweater</title>
    <desc>Created with Sketch.</desc>
    <g id="body/mono/Polo-and-Sweater" stroke="none" stroke-width="1" fill="none" fill-rule="evenodd">
        <path d="M96.774,708.912 C158.006,710.626 215.848408,712.517 276.962408,708.912 C374.758408,702.863 661.757117,713.767 724.841691,708.912 C729.602357,708.545618 745.9749,713.767 746.3159,708.912 C749.0889,675.105 750.8869,333.067949 742.6479,309.533347 C734.4089,285.998745 693.7409,172.865 641.9219,120.111 C627.4729,105.859 605.485074,100.338495 593.339074,83.868495 C582.866591,65.9089912 583.680172,55.3680846 573.3379,45.9191204 C568.849889,41.8187584 558.265416,40.1564644 550.4005,34.465 C542.4925,26.606 549.9799,9.306 546.7339,-1.638 C540.0439,-28.964 515.3969,-46.495 488.4579,-50.626 C451.015862,-59.5851549 411.488142,-51.1144369 393.55346,-21.7036342 C386.877676,-10.7561205 390.430456,2.55066604 382.2199,20.093 C382.8059,33.35 367.3289,36.553 358.0779,41.806 L339.706297,60.3733548 C283.106297,92.2193548 216.5229,109.416 166.9299,152.202 C124.7659,194.975 82.8279,244.413 64.1199,302.283 C60.2469,318.052 58.9829,334.35 57.3779,350.463 C52.7959,397.551 40.0369,443.254 29.0569,489.121 C16.5369,546.91 4.86623419,608.255159 21.7402342,666.591159 C26.6052342,678.938159 85.699,708.335 96.774,708.912 Z" id="ðŸŽ¨-Background" fill="#FFFFFF"/>
        <path d="M390.3095,-16.995 C390.7995,-18.596 392.9105,-18.146 393.0705,-16.625 C394.6605,-1.545 392.6605,14.215 390.7405,29.195 C389.8205,36.425 389.2895,43.945 387.8895,51.074 C387.7095,51.835 387.5395,52.604 387.3795,53.365 C387.8395,54.184 389.2005,55.104 389.8495,55.734 L392.672463,58.4787037 L398.3295,63.955 C409.4005,74.675 420.4695,85.404 431.5395,96.125 L447.7895,111.875 C453.3605,117.274 459.6905,122.445 464.5795,128.465 C467.2305,131.734 467.8295,135.744 465.2195,139.244 C463.9295,140.974 461.6105,142.234 459.2595,142.494 C460.1795,143.774 460.8895,145.224 461.3395,146.835 C462.2595,150.115 458.9405,154.144 455.4105,152.774 C451.4005,151.234 448.0895,148.474 444.0095,147.154 C439.8895,145.814 435.4105,145.555 431.1395,146.274 C429.1795,146.604 427.2595,147.095 425.3895,147.715 C445.4005,156.925 467.0495,162.215 489.1295,162.974 C493.6295,163.125 498.1205,163.064 502.5895,162.765 C510.1105,162.274 517.5795,161.135 524.9195,159.295 C530.6905,157.845 536.4005,156.024 541.9405,153.824 C544.6605,152.744 547.3495,151.555 549.9505,150.205 L550.178201,150.070242 C550.766171,149.70276 561.631019,143.540978 561.8205,142.615 C562.009981,141.689022 562.009981,141.366446 561.656463,140.560348 C561.420784,140.022949 560.976033,139.569022 560.322209,139.198568 C556.96516,137.763719 553.487423,136.428231 549.8205,136.404 C541.3795,136.354 532.1695,142.595 525.1905,146.845 C517.5205,151.515 510.4695,156.974 503.0895,162.035 C502.9195,162.154 502.7305,162.205 502.5495,162.205 C501.7705,162.205 501.0495,161.244 501.5495,160.494 C506.838875,152.706219 513.977987,146.221981 521.44583,140.560348 L524.45499,138.304691 C531.294582,133.20409 539.2945,127.555102 547.6105,126.324 C557.7995,124.824 568.4405,131.175 577.5305,134.894 L593.6295,141.484 C596.4995,142.654 599.6205,143.654 602.5095,144.984 L595.763004,123.875072 C592.39206,113.31944 589.0299,102.761 585.7005,92.195 L585.054461,90.1250125 C581.73794,79.3997475 578.693136,68.2428788 573.1695,58.445 C571.8495,56.095 570.3395,53.885 568.8495,51.654 C567.2995,49.345 566.7195,46.795 564.7705,44.734 C560.9105,40.644 555.3795,38.244 550.0995,36.675 C548.8095,36.295 549.1905,34.595 550.4005,34.465 C555.818887,33.8940323 560.985349,35.1577159 565.88176,37.4430873 L567.916852,38.413709 C572.54701,40.60439 577.0615,42.6419 580.4995,46.574 C588.33882,55.55412 592.409967,66.8609936 596.15007,78.0191716 L597.1505,81.015 C598.5495,80.555 608.0595,83.455 609.2495,84.144 C644.9005,99.215 672.3605,127.274 692.4405,160.154 C714.4405,196.184 726.4195,237.354 736.3095,278.095 C739.3615,290.668 742.2805,303.28 745.0845,315.92 C732.5915,320.727 719.3135,323.242 707.6185,330.014 C703.1635,332.593 707.1875,339.509 711.6555,336.922 C722.6095,330.58 735.0865,328.237 746.8115,323.783 C753.1685,353.046 758.8235,382.469 763.5595,412.015 C778.1105,502.695 787.2995,594.854 786.7195,686.774 C786.7095,688.805 786.1105,691.074 784.9995,693.024 C785.6505,692.705 786.1605,692.324 786.4505,691.865 C790.1395,686.074 799.3895,691.445 795.6795,697.265 L795.137688,698.108453 C792.353704,702.40074 789.754742,705.680364 784.8605,708.104 C779.9295,710.545 774.5895,710.955 769.1505,711.095 C750.6605,711.582 732.1575,711.899 713.6485,712.127 C711.1105,692.329 710.0785,672.342 706.5815,652.66 C705.6825,647.599 697.9715,649.744 698.8675,654.787 C702.2445,673.793 703.3255,693.087 705.6825,712.223 C666.1125,712.649 626.5205,712.654 586.9805,712.765 C533.3955,712.9225 479.817391,712.811266 426.234783,712.780996 L403.2705,712.774 C341.3705,712.774 279.4695,712.574 217.5705,712.164 L202.8495,712.06 C196.9935,677.539 193.0075,642.723 192.9335,607.643 C192.9225,602.496 184.9225,602.486 184.9335,607.643 C185.0075,642.684 188.9495,677.504 194.7515,712.015 C180.0955,711.951 165.4465,712.004 150.7895,712.524 L143.329459,712.789776 C128.403541,713.300755 113.4475,713.615571 98.5495,712.425 C82.0095,711.095 65.2805,708.055 50.4505,700.265 C43.7715,696.75 37.8905,692.257 32.8645,686.974 C37.9735,684.002 43.1555,681.151 48.1045,677.913 C52.3955,675.105 48.3925,668.176 44.0665,671.006 C38.7335,674.496 33.1275,677.535 27.6365,680.763 C23.6605,675.457 20.3975,669.568 17.9195,663.215 C14.0095,653.184 12.4995,642.394 11.1895,631.774 C9.6405,619.265 8.9995,606.654 8.9995,594.055 C8.9995,567.555 11.7895,541.135 15.6805,514.955 C19.4013696,489.874043 24.3198875,464.995287 29.5188924,440.195335 L30.2295,436.814 C35.3595,412.434 40.2495,387.984 46.1295,363.774 C51.5665,341.387 57.8495,319.105 65.3375,297.254 C72.0025,301.375 78.9775,304.98 85.5385,309.273 C89.8595,312.101 93.8725,305.177 89.5765,302.366 C82.5765,297.785 75.1105,293.978 68.0465,289.502 C76.4195,266.104 86.2475,243.252 98.0305,221.365 C121.6295,177.535 153.4305,138.324 194.1605,109.385 C214.5495,94.904 236.9195,83.055 260.4105,74.434 C284.3605,65.635 309.1795,60.814 334.5595,58.835 C335.284206,58.7775882 335.690905,59.4483149 335.661211,60.0684981 L335.6505,60.184 L336.6505,60.345 C337.0205,57.835 337.7805,55.404 339.2305,53.175 C342.5305,48.095 348.7895,44.835 353.7895,41.715 L354.974956,40.9775012 C360.923723,37.2902734 367.20175,33.6578125 374.1205,32.365 C374.3605,32.324 374.5095,32.574 374.3495,32.765 C369.786891,37.9962174 363.952525,41.993189 358.60546,46.4178326 L357.376407,47.4426841 C352.945141,51.089487 346.764167,55.2284444 346.5995,61.324 C346.4105,68.505 347.8795,75.974 348.4105,83.135 C348.9405,90.274 349.3095,97.404 349.4995,104.564 C350.1905,130.215 349.3605,155.875 347.0895,181.425 L357.128906,174.703594 C372.752683,164.245038 388.428324,153.815765 404.4295,144.024 C414.1105,138.095 424.9905,133.024 436.5895,133.255 C439.8395,133.314 443.5095,133.785 447.0305,134.785 C443.2405,131.195 439.6105,127.375 435.9005,123.765 C429.7895,117.814 423.6795,111.865 417.5705,105.925 L399.953375,88.7645 L382.3295,71.604 C376.8705,66.274 370.4695,61.365 371.0495,52.965 C371.5205,46.265 374.9295,39.595 377.2595,33.135 C377.5895,32.205 377.8895,31.285 378.1695,30.375 C382.8705,14.755 385.5395,-1.436 390.3095,-16.995 Z M618.0005,653.199 C614.3565,649.553 608.6985,655.208 612.3445,658.855 L614.272296,660.774996 C617.492202,663.987266 620.684282,667.298327 622.912598,671.26933 L623.2395,671.87 C625.6405,676.426 632.5485,672.388 630.1465,667.832 C627.1775,662.201 622.4545,657.655 618.0005,653.199 Z M461.8685,652.17 C450.2675,649.955 439.0865,649.955 427.4855,652.17 C422.4345,653.135 424.5735,660.847 429.6125,659.885 C439.7585,657.947 449.5945,657.947 459.7415,659.885 C464.7725,660.845 466.9275,653.137 461.8685,652.17 Z M305.1965,571.53 C300.2045,570.265 298.0745,577.979 303.0705,579.244 L305.530124,579.861071 C313.891463,581.927314 321.854878,583.466889 330.5405,581.549 C335.499382,580.452618 333.494209,572.925857 328.610379,573.794732 L328.4135,573.834 C320.3765,575.609 312.9725,573.5 305.1965,571.53 Z M583.4415,519.567 C579.7475,515.976 574.0845,521.627 577.7845,525.223 C582.4015,529.713 587.8425,533.125 594.4365,533.307 C599.509634,533.448851 599.581471,525.687021 594.663481,525.318601 L594.4365,525.307 C590.0175,525.184 586.4965,522.538 583.4415,519.567 Z M112.6165,498.201 C117.2225,495.898 113.1755,488.996 108.5795,491.294 L80.9315,505.117 L80.9315,505.117 C76.3255,507.42 80.3725,514.324 84.9685,512.025 L112.6165,498.201 L112.6165,498.201 Z M658.9485,499.964 C653.7985,499.819 653.8025,507.819 658.9485,507.964 C663.7875,508.099 668.7465,509.932 673.0575,512.025 C677.6695,514.265 681.7305,507.369 677.0955,505.117 C671.4595,502.381 665.2725,500.14 658.9485,499.964 Z M400.6165,461.338 C404.8505,458.461 400.8525,451.525 396.5785,454.43 C390.746667,458.391833 385.462694,463.074625 379.723712,467.156618 L378.1465,468.254 C373.9125,471.131 377.9105,478.065 382.1845,475.162 C388.5455,470.839 394.2555,465.659 400.6165,461.338 Z M698.1165,403.194999 C692.9685,403.193 692.9605,411.193 698.1165,411.194999 L699.092643,411.192016 C703.341747,411.16813 707.820407,411.050753 711.771937,412.748895 L712.2255,412.953 C716.8575,415.135 720.9225,408.24 716.2635,406.046 C710.4705,403.318 704.4135,403.198 698.1165,403.194999 Z M253.836531,397.480105 L254.5085,397.228 C259.3185,395.501 257.2445,387.767 252.3815,389.515 C245.0535,392.148 239.3525,397.121 232.9955,401.437 C228.7595,404.314 232.7575,411.248 237.0325,408.346 C242.509879,404.625862 247.605979,399.915703 253.836531,397.480105 L253.836531,397.480105 Z M553.904988,376.667605 L554.9835,376.09 C559.5635,373.733 555.5205,366.828 550.9465,369.182 C547.315591,371.050182 544.0665,373.535719 540.504261,375.516147 L539.4255,376.094 C534.8465,378.45 538.8885,385.355 543.4635,383.002 C547.094409,381.132909 550.3435,378.647289 553.904988,376.667605 L553.904988,376.667605 Z M432.201229,299.179442 L431.3775,298.384 C427.6955,294.779 422.0345,300.432 425.7205,304.041 C434.926557,313.050943 445.810119,319.891776 456.789538,326.505563 L458.7865,327.706 C463.2115,330.361 467.2385,323.447 462.8245,320.798 L459.893806,319.036056 C450.132069,313.149339 440.484459,307.072702 432.201229,299.179442 L432.201229,299.179442 Z M210.8195,291.711 C213.921571,287.682953 207.175516,283.740847 204.022555,287.534221 L203.9115,287.673 C200.682324,291.865 196.850794,295.660156 192.846271,299.123496 L192.0935,299.769 C189.7095,301.797 185.3705,306.142 182.0215,306.428 C176.9295,306.861 176.8835,314.865 182.0215,314.428 C187.2035,313.987 191.6625,310.34 195.5775,307.215 C201.2755,302.668 206.3725,297.483 210.8195,291.711 Z M636.4325,262.568 C640.149767,259.076081 634.65897,253.518063 630.908142,256.792738 L630.7765,256.912 C623.8295,263.438 613.8365,265.189 604.8935,267.402 C599.8985,268.64 602.0145,276.356 607.0205,275.117 L611.094584,274.111127 C620.233457,271.830385 629.403389,269.174111 636.4325,262.568 Z M477.9965,212.107 C473.0045,210.838 470.8745,218.552 475.8705,219.821 C484.3555,221.977 492.3925,224.764 500.2575,228.634 C504.8615,230.898 508.9195,224.002 504.2955,221.726 C495.8335,217.562 487.1325,214.429 477.9965,212.107 Z M559.7194,43.4648 C559.5994,43.1048 559.9804,42.6948 560.3494,42.8238 C569.32734,46.17114 564.554697,57.9294684 561.765223,64.9680827 L561.2594,66.2548 C556.8894,77.5348 550.7804,88.5148 544.1204,98.6148 C537.1504,109.1848 529.4104,119.3048 521.0304,128.8048 C517.394844,132.929244 513.624178,136.93517 509.726828,140.821875 L508.2594,142.2738 C504.3204,146.1448 499.2404,152.9448 493.1294,152.1948 C486.5494,151.4038 482.8794,144.3748 487.6794,139.0348 C491.0704,135.2548 495.7704,132.2438 499.5594,128.8048 C503.3204,125.4038 506.9604,121.8948 510.5094,118.2848 C517.7704,110.8748 524.6504,103.0448 530.9404,94.7948 C537.023837,86.816675 542.845361,78.6179445 548.138827,70.0939638 L549.1904,68.3848 C553.2194,61.7548 562.5204,52.0048 559.7194,43.4648 Z M241.6405,127.263 C237.3785,124.349 233.3725,131.279 237.6025,134.17 C245.3805,139.486 252.2235,145.926 260.6425,150.298 C265.15019,152.639786 269.158975,145.929019 264.840239,143.477723 L264.6805,143.391 C256.2675,139.02 249.4145,132.575 241.6405,127.263 Z" id="ðŸ–-Ink" fill="#000000"/>
    </g>
</g><g transform="translate(200, 50)">
    <!-- Generator: Sketch 62 (91390) - https://sketch.com -->
    <title>head/mono/hat-hip</title>
    <desc>Created with Sketch.</desc>
    <g id="head/mono/hat-hip" stroke="none" stroke-width="1" fill="none" fill-rule="evenodd">
        <path d="M418.5807,283.1921 C418.1827,260.7901 417.7427,237.9401 414.4127,215.7561 C411.1567,194.0681 402.1997,174.4641 386.8077,158.7151 C354.1147,125.2621 306.7247,117.0911 262.6127,109.6031 L187.1937,96.8001 C164.1847,92.8951 139.6377,86.6531 116.3907,92.1911 C104.9357,94.9201 95.2077,101.2601 86.3167,108.7611 C77.7467,115.9911 68.5327,123.7551 62.7257,133.4821 C56.9087,143.2231 54.9077,154.6101 53.0167,165.6271 C50.8837,178.0481 49.2267,190.5661 48.0497,203.1141 C45.6907,228.2541 45.3687,253.5831 47.0797,278.7751 C47.9087,290.9941 49.2277,303.1781 50.9117,315.3081 C51.7467,321.3231 52.6907,327.3231 53.7567,333.3021 C54.0707,335.0651 54.3097,337.0171 54.6317,338.9891 C52.2527,345.7551 50.9007,352.7621 51.0097,359.7391 C51.3307,380.2911 68.6777,393.2301 86.1657,400.1771 C96.3057,404.2051 106.9067,406.9421 116.8697,411.4421 C127.3507,416.1751 134.4847,423.8481 141.6507,432.6011 C155.3177,449.2951 170.7407,464.2991 188.3517,476.8171 C225.6897,503.3581 272.9817,515.9111 318.2857,506.3831 C329.1557,504.0971 340.1217,500.5471 349.8927,495.1981 C360.2087,489.5511 367.9657,481.3681 374.4797,471.6931 C386.5747,453.7321 395.2487,433.5071 401.8107,412.9261 C408.5037,391.9321 413.2547,370.9001 415.8457,349.0091 C418.4277,327.1891 418.9717,305.1471 418.5807,283.1921 L418.5807,283.1921 Z" id="ðŸŽ¨-Background" fill="#FFFFFF"/>
        <path d="M177.911,18.7638 C209.121,14.4708 252.198,28.4238 267.741,56.5578 C341.947,39.0638 435.54,38.4908 496.701,96.7278 C560.52,165.8098 480.36,256.8948 427.207,277.4308 C431.077,296.2378 425.043,416.7228 382.348,470.4658 C348.464,516.0018 269.557,537.0168 233.044,482.6278 L232.759185,482.179028 C228.84735,475.897763 232.216386,476.099459 236.232,480.7718 C271.986,512.2138 320.599,512.7508 358.06,479.5688 C428.268,418.9188 421.029,270.2088 387.621,184.1778 C292.491,173.7298 190.637,202.5628 124.932,274.1718 L129.375,300.9198 C130.132,305.4768 130.992,310.0298 131.648,314.6028 C132.068,317.5328 132.115,320.4468 130.085,322.8188 C123.382,330.6488 112.085,318.8828 102.79,314.2028 C100.046,313.8168 97.297,313.6678 94.601,313.8578 C49.943,319.6098 58.742,406.2398 107.824,391.0548 C111.948,388.4858 115.491,389.2698 117.091,392.9978 C128.79,403.7138 136.504,422.8258 155.941,441.2338 C162.799,448.1388 169.04,453.9158 176.754,459.4548 C181.285,464.0368 194.957,468.7088 190.623,476.5498 C182.427,494.3918 134.096,438.3468 125.551,422.8478 C98.778,433.4198 69.108,429.8288 41.363,427.2448 C-105.007,419.6348 -85.467,265.3448 34.509,167.9338 C57.093,151.3078 82.01,137.7448 107.911,127.3078 C111.447,125.8828 109.902,120.0768 106.316,121.5218 C89.178,128.4288 72.471,136.6498 56.545,146.1648 L56.5208889,140.476217 C56.4975556,130.894967 56.6478333,120.919967 58.312,112.1658 C59.144,106.0998 60.543,99.6208 62.697,94.7468 C65.36,79.8038 107.075,28.5118 177.911,18.7638 Z M92.6476,333.7464 C94.9076,331.5994 99.1266,334.1594 101.1386,334.0954 C106.2836,334.7994 111.1716,336.9724 114.9836,339.6544 C117.5006,341.0644 119.2646,342.3884 120.7386,343.6064 L120.7786,343.5954 C120.7676,343.5954 120.7536,343.6064 120.7416,343.6094 L120.88034,343.703149 C123.026611,345.228067 130.883488,353.817299 125.9196,351.5074 C125.5496,351.0264 125.1706,350.5644 124.7886,350.1114 C124.7476,350.1734 124.6906,350.2344 124.6226,350.2934 L124.901425,350.707187 C129.120418,357.053674 121.836253,350.3674 120.7156,348.5914 C120.6626,348.6344 120.6026,348.6634 120.5436,348.6944 L122.003034,350.47064 C122.207069,350.722822 122.367475,350.92415 122.5006,351.0944 L122.80835,351.391495 C127.686358,356.186188 127.838752,360.501238 122.1716,353.4124 C122.3946,353.7464 122.5736,354.1004 122.5986,354.4144 L122.934448,354.842528 C127.384087,360.576307 123.764834,358.540007 121.553741,356.09113 L121.368713,355.880491 L121.406573,355.937683 C123.463553,359.106476 119.382226,356.883081 118.661034,355.188062 L118.6306,355.1114 C117.844733,354.4702 117.361142,353.7506 117.195274,353.568882 L117.1646,353.5384 C113.3386,349.6184 107.7926,346.3014 103.0816,344.7944 C102.3986,344.6644 101.7076,344.5604 101.0096,344.4864 C98.1766,343.8544 95.3126,343.4214 92.4186,343.1874 C92.0646,343.1454 91.7056,342.8854 91.4376,342.5494 C87.0614308,342.401815 88.4122973,340.608057 90.2279363,340.274958 L90.2597134,340.269491 L89.8995111,340.239171 C87.0910681,339.965081 85.1730646,338.957417 88.0127603,338.338948 L88.3726,338.2674 C88.3286,338.1984 88.2896,338.1294 88.2516,338.0604 C85.8196,337.7934 87.4066,335.4294 88.7566,336.0014 C88.1886,334.1444 90.7846,335.0714 91.1086,334.7954 C91.3556,334.5214 91.6626,334.2794 91.8396,334.2664 C92.6216,333.7144 92.2426,333.7644 92.6476,333.7464 Z M107.528,303.6808 L106.958,304.0138 C106.497,304.2828 106.023,304.4618 105.547,304.5668 C106.219,304.8528 106.883,305.1618 107.54,305.4918 C107.529333,305.088467 107.521778,304.685578 107.521778,304.28343 L107.528,303.6808 Z" id="ðŸ–-Ink" fill="#000000"/>
    </g>
</g><g transform="translate(320, 250)"><g>
    <!-- Generator: Sketch 62 (91390) - https://sketch.com -->
    <title>face/Cheeky</title>
    <desc>Created with Sketch.</desc>
    <g id="face/Cheeky" stroke="none" stroke-width="1" fill="none" fill-rule="evenodd">
        <path d="M166.9438,221.352 C168.4778,218.685 172.0098,216.214 175.2418,216.593 C189.7208,218.291 189.6958,235.845 184.1048,246.093 C179.1478,255.18 168.8888,260.514 158.6208,259.735 C147.8338,258.916 138.6428,252.574 134.5978,242.483 C131.9228,235.808 130.6868,223.485 137.8028,219 C137.9348,218.916 138.1528,218.937 138.2578,219.058 C141.6698,223.027 141.8038,228.986 144.7908,233.405 C147.5688,237.515 151.8848,240.909 156.9408,241.433 C160.7168,241.825 164.5368,240.463 166.0138,237.073 C166.812891,235.239364 166.721899,234.243744 166.421516,232.981708 L166.148563,231.885055 C165.202801,228.043565 164.778057,225.118714 166.9438,221.352 Z M170.814304,144.367155 C178.365682,148.9572 189.871664,159.660291 181.748119,171.039573 C172.185929,181.073062 158.418535,169.568982 151.634201,164.366134 C145.343449,160.333898 138.275437,170.704507 144.112,175.412823 C193.135736,211.708059 213.030606,145.567387 174.633685,138.970386 C170.406047,138.243425 168.835891,142.947174 170.814304,144.367155 Z M91.0715,112.8926 C95.7065,105.9386 106.2865,106.9626 108.8395,115.2146 C110.2225,119.6846 108.3125,123.7026 108.4115,128.1666 C108.4945,131.9376 108.2475,136.1396 107.0915,139.7916 C104.4555,148.1196 96.9655,154.0016 88.1045,153.7576 C79.2725,153.5146 71.4935,147.9246 67.7945,140.0516 C64.0825,132.1486 64.8685,123.9696 67.5785,115.9336 C67.7085,115.5476 68.2145,115.3606 68.5195,115.6856 C71.7228333,119.089767 74.0678333,122.683517 76.4943148,126.495785 L78.9809333,130.40279 C80.8812656,133.344819 83.6431037,137.103142 87.1914615,136.867072 L87.7238987,136.814547 C88.7099852,136.729908 88.5588846,136.9256 89.3195,135.5816 C89.6715,134.9596 89.6075,133.8036 89.7775,133.0696 L89.8365,132.8216 L89.8365,132.8216 L89.8043384,132.68798 C89.7292832,132.332503 89.6547866,131.66266 89.5942529,130.500284 L89.5815,130.2436 C89.3245,124.8066 87.7875,117.8196 91.0715,112.8926 Z M208.5632,117.5221 C207.7322,108.6281 220.2362,106.6531 224.3932,113.2341 C226.561303,116.665997 227.192546,120.977055 227.67203,125.0615 L227.8962,127.0001 C228.3882,131.1951 228.5832,135.5591 226.7622,139.4721 C223.8942,145.6351 217.6572,148.8931 210.9292,148.3771 C204.5042,147.8831 198.6422,144.1581 195.5522,138.5031 C192.7972,133.4571 190.0582,123.6051 193.4042,118.3421 C193.6062,118.0231 194.0102,117.9821 194.2872,118.2281 C197.4492,121.0351 197.9642,126.1551 199.8442,129.8121 C201.7832,133.5841 204.7242,137.2601 209.1812,137.8331 C213.4452,138.3811 215.0742,136.0521 213.9862,131.9871 C212.5832,126.7391 209.0912,123.1691 208.5632,117.5221 Z M94.4489,60.0159 L96.4937284,59.2327124 C103.499922,56.5860716 113.118768,53.5268605 118.8149,59.2239 C122.3289,62.7369 122.9979,67.9119 120.4899,72.1989 C117.4509,77.3919 111.9999,77.5199 106.7359,78.2849 C100.7489,79.1549 94.6599,80.8089 89.0859,83.1669 C82.8069,85.8239 76.9799,89.1359 71.2709,92.8349 C65.8449,96.3499 60.4379,102.0949 53.9429,103.1779 C53.6779,103.2219 53.3769,103.1079 53.3079,102.8169 C51.8329,96.4669 55.9319,90.2179 59.5899,85.2639 C64.0159,79.2659 69.3789,74.3429 75.3729,69.9289 C81.1579,65.6679 87.7679,62.5889 94.4489,60.0159 Z M221.7162,82.5925 L222.340762,82.4830541 C226.589355,81.7757704 230.439386,81.9386395 233.6412,85.3035 C236.0852,87.8705 237.0272,91.1975 235.8622,94.5915 C234.7872,97.7225 232.3832,100.9035 228.8942,101.5595 C217.1152,103.7755 204.0682,103.4095 192.2302,101.7315 C186.814067,100.963367 181.349151,100.023624 176.073673,98.5415284 L173.646557,97.8379125 C169.242357,96.5798884 164.200291,95.2655909 161.0012,92.0265 C159.8512,90.8625 160.5142,89.1965 161.8902,88.6575 C167.4722,86.4715 175.1232,87.6345 181.0752,87.4635 C187.9992,87.2655 194.9342,86.7465 201.8252,86.0315 C208.5592,85.3315 215.0752,83.8105 221.7162,82.5925 Z" id="ðŸ–-Ink" fill="#000000"/>
    </g>
</g></g><g transform="translate(210, 310)"><g>
    <!-- Generator: Sketch 62 (91390) - https://sketch.com -->
    <title>accessories/* None</title>
    <desc>Created with Sketch.</desc>
    <g id="accessories/*-None" stroke="none" stroke-width="1" fill="none" fill-rule="evenodd"/>
</g></g>
          </g>
        </g>
      </svg>