<svg id="avatar-svg" transform="translate(-40, 0)" width="32" height="32" class="path1" viewBox="0 0 700 700" fill="none" stroke="black" strokewidth="0.8" strokelinecap="round" strokelinejoin="round" xmlns="http://www.w3.org/2000/svg">
        <style>
          @media (prefers-reduced-motion){.path1{animation:none!important;stroke-dasharray:unset!important}}@media print{.path1{animation:none!important;stroke-dasharray:unset!important}}@keyframes grow{0%{stroke-dashoffset:1px;stroke-dasharray:0 1000px;opacity:0;fill-opacity:0}10%{opacity:1;fill-opacity:0}60%{stroke-dasharray:1000px 0;fill-opacity:1;stroke-opacity:0}to{stroke-dasharray:1000px 0;fill-opacity:1;stroke-opacity:0}}.path1 g g path{stroke-dashoffset:1px;stroke-dasharray:1000px 0;animation:grow 7s linear forwards;transform-origin:center;stroke:#a2a0a0;stroke-width:10px;animation-delay:0s}
        </style>
        <g>
          <g>
            <g transform="translate(0, 550)">
    <!-- Generator: Sketch 62 (91390) - https://sketch.com -->
    <title>body/mono/Polo and Sweater</title>
    <desc>Created with Sketch.</desc>
    <g id="body/mono/Polo-and-Sweater" stroke="none" stroke-width="1" fill="none" fill-rule="evenodd">
        <path d="M96.774,708.912 C158.006,710.626 215.848408,712.517 276.962408,708.912 C374.758408,702.863 661.757117,713.767 724.841691,708.912 C729.602357,708.545618 745.9749,713.767 746.3159,708.912 C749.0889,675.105 750.8869,333.067949 742.6479,309.533347 C734.4089,285.998745 693.7409,172.865 641.9219,120.111 C627.4729,105.859 605.485074,100.338495 593.339074,83.868495 C582.866591,65.9089912 583.680172,55.3680846 573.3379,45.9191204 C568.849889,41.8187584 558.265416,40.1564644 550.4005,34.465 C542.4925,26.606 549.9799,9.306 546.7339,-1.638 C540.0439,-28.964 515.3969,-46.495 488.4579,-50.626 C451.015862,-59.5851549 411.488142,-51.1144369 393.55346,-21.7036342 C386.877676,-10.7561205 390.430456,2.55066604 382.2199,20.093 C382.8059,33.35 367.3289,36.553 358.0779,41.806 L339.706297,60.3733548 C283.106297,92.2193548 216.5229,109.416 166.9299,152.202 C124.7659,194.975 82.8279,244.413 64.1199,302.283 C60.2469,318.052 58.9829,334.35 57.3779,350.463 C52.7959,397.551 40.0369,443.254 29.0569,489.121 C16.5369,546.91 4.86623419,608.255159 21.7402342,666.591159 C26.6052342,678.938159 85.699,708.335 96.774,708.912 Z" id="ðŸŽ¨-Background" fill="#FFFFFF"/>
        <path d="M390.3095,-16.995 C390.7995,-18.596 392.9105,-18.146 393.0705,-16.625 C394.6605,-1.545 392.6605,14.215 390.7405,29.195 C389.8205,36.425 389.2895,43.945 387.8895,51.074 C387.7095,51.835 387.5395,52.604 387.3795,53.365 C387.8395,54.184 389.2005,55.104 389.8495,55.734 L392.672463,58.4787037 L398.3295,63.955 C409.4005,74.675 420.4695,85.404 431.5395,96.125 L447.7895,111.875 C453.3605,117.274 459.6905,122.445 464.5795,128.465 C467.2305,131.734 467.8295,135.744 465.2195,139.244 C463.9295,140.974 461.6105,142.234 459.2595,142.494 C460.1795,143.774 460.8895,145.224 461.3395,146.835 C462.2595,150.115 458.9405,154.144 455.4105,152.774 C451.4005,151.234 448.0895,148.474 444.0095,147.154 C439.8895,145.814 435.4105,145.555 431.1395,146.274 C429.1795,146.604 427.2595,147.095 425.3895,147.715 C445.4005,156.925 467.0495,162.215 489.1295,162.974 C493.6295,163.125 498.1205,163.064 502.5895,162.765 C510.1105,162.274 517.5795,161.135 524.9195,159.295 C530.6905,157.845 536.4005,156.024 541.9405,153.824 C544.6605,152.744 547.3495,151.555 549.9505,150.205 L550.178201,150.070242 C550.766171,149.70276 561.631019,143.540978 561.8205,142.615 C562.009981,141.689022 562.009981,141.366446 561.656463,140.560348 C561.420784,140.022949 560.976033,139.569022 560.322209,139.198568 C556.96516,137.763719 553.487423,136.428231 549.8205,136.404 C541.3795,136.354 532.1695,142.595 525.1905,146.845 C517.5205,151.515 510.4695,156.974 503.0895,162.035 C502.9195,162.154 502.7305,162.205 502.5495,162.205 C501.7705,162.205 501.0495,161.244 501.5495,160.494 C506.838875,152.706219 513.977987,146.221981 521.44583,140.560348 L524.45499,138.304691 C531.294582,133.20409 539.2945,127.555102 547.6105,126.324 C557.7995,124.824 568.4405,131.175 577.5305,134.894 L593.6295,141.484 C596.4995,142.654 599.6205,143.654 602.5095,144.984 L595.763004,123.875072 C592.39206,113.31944 589.0299,102.761 585.7005,92.195 L585.054461,90.1250125 C581.73794,79.3997475 578.693136,68.2428788 573.1695,58.445 C571.8495,56.095 570.3395,53.885 568.8495,51.654 C567.2995,49.345 566.7195,46.795 564.7705,44.734 C560.9105,40.644 555.3795,38.244 550.0995,36.675 C548.8095,36.295 549.1905,34.595 550.4005,34.465 C555.818887,33.8940323 560.985349,35.1577159 565.88176,37.4430873 L567.916852,38.413709 C572.54701,40.60439 577.0615,42.6419 580.4995,46.574 C588.33882,55.55412 592.409967,66.8609936 596.15007,78.0191716 L597.1505,81.015 C598.5495,80.555 608.0595,83.455 609.2495,84.144 C644.9005,99.215 672.3605,127.274 692.4405,160.154 C714.4405,196.184 726.4195,237.354 736.3095,278.095 C739.3615,290.668 742.2805,303.28 745.0845,315.92 C732.5915,320.727 719.3135,323.242 707.6185,330.014 C703.1635,332.593 707.1875,339.509 711.6555,336.922 C722.6095,330.58 735.0865,328.237 746.8115,323.783 C753.1685,353.046 758.8235,382.469 763.5595,412.015 C778.1105,502.695 787.2995,594.854 786.7195,686.774 C786.7095,688.805 786.1105,691.074 784.9995,693.024 C785.6505,692.705 786.1605,692.324 786.4505,691.865 C790.1395,686.074 799.3895,691.445 795.6795,697.265 L795.137688,698.108453 C792.353704,702.40074 789.754742,705.680364 784.8605,708.104 C779.9295,710.545 774.5895,710.955 769.1505,711.095 C750.6605,711.582 732.1575,711.899 713.6485,712.127 C711.1105,692.329 710.0785,672.342 706.5815,652.66 C705.6825,647.599 697.9715,649.744 698.8675,654.787 C702.2445,673.793 703.3255,693.087 705.6825,712.223 C666.1125,712.649 626.5205,712.654 586.9805,712.765 C533.3955,712.9225 479.817391,712.811266 426.234783,712.780996 L403.2705,712.774 C341.3705,712.774 279.4695,712.574 217.5705,712.164 L202.8495,712.06 C196.9935,677.539 193.0075,642.723 192.9335,607.643 C192.9225,602.496 184.9225,602.486 184.9335,607.643 C185.0075,642.684 188.9495,677.504 194.7515,712.015 C180.0955,711.951 165.4465,712.004 150.7895,712.524 L143.329459,712.789776 C128.403541,713.300755 113.4475,713.615571 98.5495,712.425 C82.0095,711.095 65.2805,708.055 50.4505,700.265 C43.7715,696.75 37.8905,692.257 32.8645,686.974 C37.9735,684.002 43.1555,681.151 48.1045,677.913 C52.3955,675.105 48.3925,668.176 44.0665,671.006 C38.7335,674.496 33.1275,677.535 27.6365,680.763 C23.6605,675.457 20.3975,669.568 17.9195,663.215 C14.0095,653.184 12.4995,642.394 11.1895,631.774 C9.6405,619.265 8.9995,606.654 8.9995,594.055 C8.9995,567.555 11.7895,541.135 15.6805,514.955 C19.4013696,489.874043 24.3198875,464.995287 29.5188924,440.195335 L30.2295,436.814 C35.3595,412.434 40.2495,387.984 46.1295,363.774 C51.5665,341.387 57.8495,319.105 65.3375,297.254 C72.0025,301.375 78.9775,304.98 85.5385,309.273 C89.8595,312.101 93.8725,305.177 89.5765,302.366 C82.5765,297.785 75.1105,293.978 68.0465,289.502 C76.4195,266.104 86.2475,243.252 98.0305,221.365 C121.6295,177.535 153.4305,138.324 194.1605,109.385 C214.5495,94.904 236.9195,83.055 260.4105,74.434 C284.3605,65.635 309.1795,60.814 334.5595,58.835 C335.284206,58.7775882 335.690905,59.4483149 335.661211,60.0684981 L335.6505,60.184 L336.6505,60.345 C337.0205,57.835 337.7805,55.404 339.2305,53.175 C342.5305,48.095 348.7895,44.835 353.7895,41.715 L354.974956,40.9775012 C360.923723,37.2902734 367.20175,33.6578125 374.1205,32.365 C374.3605,32.324 374.5095,32.574 374.3495,32.765 C369.786891,37.9962174 363.952525,41.993189 358.60546,46.4178326 L357.376407,47.4426841 C352.945141,51.089487 346.764167,55.2284444 346.5995,61.324 C346.4105,68.505 347.8795,75.974 348.4105,83.135 C348.9405,90.274 349.3095,97.404 349.4995,104.564 C350.1905,130.215 349.3605,155.875 347.0895,181.425 L357.128906,174.703594 C372.752683,164.245038 388.428324,153.815765 404.4295,144.024 C414.1105,138.095 424.9905,133.024 436.5895,133.255 C439.8395,133.314 443.5095,133.785 447.0305,134.785 C443.2405,131.195 439.6105,127.375 435.9005,123.765 C429.7895,117.814 423.6795,111.865 417.5705,105.925 L399.953375,88.7645 L382.3295,71.604 C376.8705,66.274 370.4695,61.365 371.0495,52.965 C371.5205,46.265 374.9295,39.595 377.2595,33.135 C377.5895,32.205 377.8895,31.285 378.1695,30.375 C382.8705,14.755 385.5395,-1.436 390.3095,-16.995 Z M618.0005,653.199 C614.3565,649.553 608.6985,655.208 612.3445,658.855 L614.272296,660.774996 C617.492202,663.987266 620.684282,667.298327 622.912598,671.26933 L623.2395,671.87 C625.6405,676.426 632.5485,672.388 630.1465,667.832 C627.1775,662.201 622.4545,657.655 618.0005,653.199 Z M461.8685,652.17 C450.2675,649.955 439.0865,649.955 427.4855,652.17 C422.4345,653.135 424.5735,660.847 429.6125,659.885 C439.7585,657.947 449.5945,657.947 459.7415,659.885 C464.7725,660.845 466.9275,653.137 461.8685,652.17 Z M305.1965,571.53 C300.2045,570.265 298.0745,577.979 303.0705,579.244 L305.530124,579.861071 C313.891463,581.927314 321.854878,583.466889 330.5405,581.549 C335.499382,580.452618 333.494209,572.925857 328.610379,573.794732 L328.4135,573.834 C320.3765,575.609 312.9725,573.5 305.1965,571.53 Z M583.4415,519.567 C579.7475,515.976 574.0845,521.627 577.7845,525.223 C582.4015,529.713 587.8425,533.125 594.4365,533.307 C599.509634,533.448851 599.581471,525.687021 594.663481,525.318601 L594.4365,525.307 C590.0175,525.184 586.4965,522.538 583.4415,519.567 Z M112.6165,498.201 C117.2225,495.898 113.1755,488.996 108.5795,491.294 L80.9315,505.117 L80.9315,505.117 C76.3255,507.42 80.3725,514.324 84.9685,512.025 L112.6165,498.201 L112.6165,498.201 Z M658.9485,499.964 C653.7985,499.819 653.8025,507.819 658.9485,507.964 C663.7875,508.099 668.7465,509.932 673.0575,512.025 C677.6695,514.265 681.7305,507.369 677.0955,505.117 C671.4595,502.381 665.2725,500.14 658.9485,499.964 Z M400.6165,461.338 C404.8505,458.461 400.8525,451.525 396.5785,454.43 C390.746667,458.391833 385.462694,463.074625 379.723712,467.156618 L378.1465,468.254 C373.9125,471.131 377.9105,478.065 382.1845,475.162 C388.5455,470.839 394.2555,465.659 400.6165,461.338 Z M698.1165,403.194999 C692.9685,403.193 692.9605,411.193 698.1165,411.194999 L699.092643,411.192016 C703.341747,411.16813 707.820407,411.050753 711.771937,412.748895 L712.2255,412.953 C716.8575,415.135 720.9225,408.24 716.2635,406.046 C710.4705,403.318 704.4135,403.198 698.1165,403.194999 Z M253.836531,397.480105 L254.5085,397.228 C259.3185,395.501 257.2445,387.767 252.3815,389.515 C245.0535,392.148 239.3525,397.121 232.9955,401.437 C228.7595,404.314 232.7575,411.248 237.0325,408.346 C242.509879,404.625862 247.605979,399.915703 253.836531,397.480105 L253.836531,397.480105 Z M553.904988,376.667605 L554.9835,376.09 C559.5635,373.733 555.5205,366.828 550.9465,369.182 C547.315591,371.050182 544.0665,373.535719 540.504261,375.516147 L539.4255,376.094 C534.8465,378.45 538.8885,385.355 543.4635,383.002 C547.094409,381.132909 550.3435,378.647289 553.904988,376.667605 L553.904988,376.667605 Z M432.201229,299.179442 L431.3775,298.384 C427.6955,294.779 422.0345,300.432 425.7205,304.041 C434.926557,313.050943 445.810119,319.891776 456.789538,326.505563 L458.7865,327.706 C463.2115,330.361 467.2385,323.447 462.8245,320.798 L459.893806,319.036056 C450.132069,313.149339 440.484459,307.072702 432.201229,299.179442 L432.201229,299.179442 Z M210.8195,291.711 C213.921571,287.682953 207.175516,283.740847 204.022555,287.534221 L203.9115,287.673 C200.682324,291.865 196.850794,295.660156 192.846271,299.123496 L192.0935,299.769 C189.7095,301.797 185.3705,306.142 182.0215,306.428 C176.9295,306.861 176.8835,314.865 182.0215,314.428 C187.2035,313.987 191.6625,310.34 195.5775,307.215 C201.2755,302.668 206.3725,297.483 210.8195,291.711 Z M636.4325,262.568 C640.149767,259.076081 634.65897,253.518063 630.908142,256.792738 L630.7765,256.912 C623.8295,263.438 613.8365,265.189 604.8935,267.402 C599.8985,268.64 602.0145,276.356 607.0205,275.117 L611.094584,274.111127 C620.233457,271.830385 629.403389,269.174111 636.4325,262.568 Z M477.9965,212.107 C473.0045,210.838 470.8745,218.552 475.8705,219.821 C484.3555,221.977 492.3925,224.764 500.2575,228.634 C504.8615,230.898 508.9195,224.002 504.2955,221.726 C495.8335,217.562 487.1325,214.429 477.9965,212.107 Z M559.7194,43.4648 C559.5994,43.1048 559.9804,42.6948 560.3494,42.8238 C569.32734,46.17114 564.554697,57.9294684 561.765223,64.9680827 L561.2594,66.2548 C556.8894,77.5348 550.7804,88.5148 544.1204,98.6148 C537.1504,109.1848 529.4104,119.3048 521.0304,128.8048 C517.394844,132.929244 513.624178,136.93517 509.726828,140.821875 L508.2594,142.2738 C504.3204,146.1448 499.2404,152.9448 493.1294,152.1948 C486.5494,151.4038 482.8794,144.3748 487.6794,139.0348 C491.0704,135.2548 495.7704,132.2438 499.5594,128.8048 C503.3204,125.4038 506.9604,121.8948 510.5094,118.2848 C517.7704,110.8748 524.6504,103.0448 530.9404,94.7948 C537.023837,86.816675 542.845361,78.6179445 548.138827,70.0939638 L549.1904,68.3848 C553.2194,61.7548 562.5204,52.0048 559.7194,43.4648 Z M241.6405,127.263 C237.3785,124.349 233.3725,131.279 237.6025,134.17 C245.3805,139.486 252.2235,145.926 260.6425,150.298 C265.15019,152.639786 269.158975,145.929019 264.840239,143.477723 L264.6805,143.391 C256.2675,139.02 249.4145,132.575 241.6405,127.263 Z" id="ðŸ–-Ink" fill="#000000"/>
    </g>
</g><g transform="translate(200, 50)">
    <!-- Generator: Sketch 62 (91390) - https://sketch.com -->
    <title>head/mono/Medium Bangs 2</title>
    <desc>Created with Sketch.</desc>
    <g id="head/mono/Medium-Bangs-2" stroke="none" stroke-width="1" fill="none" fill-rule="evenodd">
        <path d="M407.868,144.4632 C405.647,138.8582 401.719,131.8132 395.154,131.5322 C390.076,116.0072 377.45,100.1962 359.888,100.6162 C308.34,47.9022 243.444,50.3872 175.594,61.5462 C139.798,68.1852 103.451,81.1852 76.753,106.8392 C44.777,137.0412 32.326,189.7402 57.366,227.9312 C35.725,239.5282 35.305,267.0482 44.56,286.9072 C33.435,294.6002 32.759,313.2722 45.286,319.1402 C44.62,321.8682 45.091,324.6882 46.361,327.1122 C40.15,332.2822 32.066,336.1012 25.383,339.3842 C22.429,340.8352 20.725,343.2052 20.017,345.8762 C-1.927,360.2722 -56.645,395.4542 -55.993,423.4552 C-56.315,438.0632 -45.479,447.6772 -32.311,451.5052 C-40.146,467.1682 -46.093,485.4632 -38.593,502.3592 C-36.52,507.4642 -20.9878002,522.467374 -20.2058002,522.744374 C-18.8388002,523.916374 3.444,513.6862 14.274,508.4682 C16.374,522.1282 30.981,529.2852 43.572,524.6042 C55.511,521.0052 62.85,510.8982 70.38,501.7042 C80.375,523.5072 109.782,523.7582 128.788,514.3582 C145.857,506.4732 158.832,492.0212 166.06,474.6062 C204.442,493.3952 249.348,498.8722 291.048,491.3672 C293.724,496.1032 299.648,499.2842 304.925,497.4522 C327.099,490.7862 351.616,490.4122 370.412,475.1392 C409.591,447.0182 412.89,395.1742 410.158,350.9812 C407.735,306.9182 409.856,262.4882 401.846,218.9012 C405.322,206.0682 411.104,194.7232 416.454,182.6672 C422.266,170.0252 422.144,151.2322 407.868,144.4632 Z" id="ðŸŽ¨-Background" fill="#FFFFFF"/>
        <path d="M43.6094,331.4958 C45.9184,330.9158 47.1584,334.0188 45.1984,335.2658 C32.7544,343.1808 19.8994,350.2498 7.8784,358.8618 C-3.55513571,367.048586 -14.1155452,376.374434 -23.9633265,386.400889 L-25.0546,387.5178 C-33.9576,396.6768 -43.8176,408.3288 -43.9176,421.8398 C-43.9946,432.3418 -35.8976,443.8048 -24.6006,442.4248 C-20.3446,441.9048 -16.4326,447.3048 -17.9176,451.1978 L-19.4800821,455.300934 C-25.765693,471.905778 -32.1608833,490.719646 -27.1957747,508.189456 L-27.0136,508.8128 C-25.8126,512.8128 -24.5466,516.3478 -19.9036,516.2678 C-15.5946,516.1918 -11.1106,514.7388 -7.0766,513.3518 C1.2944,510.4728 8.8804,505.6718 15.3194,499.6338 C21.0148105,494.293611 28.2914,499.719145 27.5246144,506.505755 L27.4974,506.7228 C26.4484,514.3388 38.5814,517.8748 44.0974,516.7858 C54.9884,514.6318 62.7534,503.7198 68.9384,495.4008 C71.9114,491.4038 79.1324,489.8298 81.7444,495.4008 C86.9204,506.4358 97.5894,514.6838 110.0704,515.0298 C116.5534,515.2088 122.7734,513.3638 128.2644,509.9418 C130.505631,508.544262 132.509986,506.882581 134.348253,504.999231 L134.8044,504.5238 C137.5244,501.6408 139.4014,500.1078 142.8754,498.2248 C146.2984,496.3698 150.7264,498.6698 150.705548,502.7168 C150.6774,507.9588 149.1414,511.4438 145.5264,515.2458 C142.5354,518.3948 138.9814,521.1588 135.2454,523.3678 C127.7374,527.8038 118.8114,530.2998 110.0704,530.0108 C96.2924,529.5548 83.1414,522.6878 74.6164,512.0078 C65.9124,522.4148 55.1154,531.9768 41.0844,531.7198 C30.5804,531.5278 20.7914,526.0598 16.1014,517.5878 C9.4804,522.1528 2.2134,525.7218 -5.5606,528.0528 L-6.25331276,528.257519 C-17.257271,531.459806 -29.9207134,532.732821 -37.0036,521.8088 C-43.6536,511.5528 -44.1496,497.3498 -42.6256,485.6268 C-41.2646,475.1548 -38.0426,465.2098 -34.3426,455.4008 C-44.8746,452.2558 -53.0496,442.3628 -55.8576,431.6988 C-60.1056,415.5728 -51.8646,399.9338 -41.6766,387.9518 C-30.6096,374.9358 -16.6806,363.9268 -2.6476,354.2908 C11.3484,344.6818 27.0274,335.6518 43.6094,331.4958 Z M403.4792,205.3635 C403.5052,204.9155 404.2392,204.7585 404.3072,205.2505 C409.1412,240.3285 411.9402,275.3355 414.2572,310.6545 C415.4322,328.5475 416.7662,346.4225 418.2262,364.2935 C419.6272,381.4305 421.9592,399.0235 421.4322,416.2305 C420.6072,443.1745 407.5232,465.0825 386.0692,480.8485 C365.5122,495.9575 340.0102,503.4275 314.9892,506.5835 C300.4582,508.4165 285.7252,508.5045 271.1782,506.7825 C263.622887,505.888125 256.077243,504.697559 248.677222,502.91005 L245.477655,502.109612 C239.650051,500.62131 233.143109,498.601227 232.3122,491.6985 C231.9092,488.3555 233.6852,485.8895 236.5532,484.2115 C240.2922,482.0235 244.5792,483.3115 248.4322,484.3085 C254.9252,485.9885 261.4872,487.4305 268.1232,488.4275 C282.3762,490.5715 297.0282,490.6985 311.3542,489.2145 C335.4522,486.7165 360.8722,478.9005 379.4522,462.7585 C387.5272,455.7445 394.5482,447.1975 398.2412,437.0435 C402.9892,423.9895 402.2862,409.7485 402.1272,396.0785 C401.7582,364.2935 402.0832,332.5085 401.6412,300.7205 C401.1972,268.8355 401.5842,237.2015 403.4792,205.3635 Z M161.1453,56.8189 C189.3033,49.5569 217.8803,47.6699 246.8043,49.8559 C274.0813,51.9159 305.1543,58.0189 327.4323,74.7959 C328.5133,75.6099 327.8663,77.1509 326.5283,76.9379 C311.6343,74.5639 297.1163,70.2459 282.2863,67.3889 C268.0223,64.6409 253.5013,62.5779 238.9773,62.0999 C189.8553,60.4809 135.1963,71.6119 95.5863,102.2369 C77.0133,116.5959 62.8393,135.9039 57.1983,158.8769 C51.4133,182.4399 54.5433,207.9219 66.1603,229.2369 C67.8333,232.3059 67.1433,237.1609 63.6533,238.7949 C53.0633,243.7529 45.5203,254.7369 45.6843,266.5899 C45.7633,272.3389 47.7453,277.8519 50.9303,282.6039 C54.2983,287.6289 59.4253,291.1449 63.1923,295.8379 C64.6753,297.6859 64.7323,300.2309 63.5573,301.9329 C65.7603,302.8979 68.1363,303.4159 70.3043,304.5559 C72.1423,305.5229 72.1943,308.5419 70.3043,309.4939 C65.5243,311.9009 60.3563,309.3459 57.1303,305.4649 C56.5543,304.7719 56.0563,304.0509 55.6023,303.3149 C51.7383,302.4959 48.2763,300.5569 45.2533,297.9049 C39.4933,301.3539 38.7043,309.0319 43.6523,314.8989 C46.1792231,317.894092 49.7693858,319.742835 53.3977754,321.07187 L53.8333,321.2289 C57.3643,322.4829 60.5983,323.1829 62.8923,326.0079 C64.4053,322.8539 66.1423,319.8809 68.0783,317.1719 C75.1173,307.3249 85.9373,298.5889 98.7763,299.6979 C108.8333,300.5649 117.5463,307.7649 119.6073,317.6989 C119.7593,318.4339 118.6513,319.0079 118.3213,318.2409 C113.4963,306.9899 98.2293,306.5769 89.1353,312.4399 C78.4403,319.3359 72.5953,332.3309 70.2503,344.4339 C67.9423,356.3559 69.2763,370.8559 78.1993,379.9239 C81.8503,383.6349 86.8173,386.2009 92.0013,386.8769 C94.5353625,387.208775 96.7705969,386.882349 99.1939721,386.394479 L100.799972,386.058931 C101.91405,385.828587 103.0218,385.6424 104.1903,385.7459 L105.9313,385.9799 L105.9313,385.9799 L106.920693,386.442598 C107.778564,386.828167 107.700945,386.722577 106.6883,386.1249 C109.6463,385.8829 111.1753,388.0689 111.3373,390.4659 C111.4313,390.5259 111.5223,390.5909 111.5983,390.6839 C122.8243,404.4219 131.1593,420.2129 143.0723,433.5009 L146.559673,437.393567 C155.524917,447.366424 165.759885,458.1785 177.938844,463.352119 L179.388203,463.951735 C182.931451,465.448238 186.489567,467.496967 186.9413,471.7679 C187.3463,475.5939 184.3303,478.4729 180.8533,479.3659 C172.9353,481.3969 163.9093,474.3599 158.1103,469.7429 C145.6403,459.8179 135.1603,447.1659 126.5053,433.8539 L125.649742,432.528118 C118.534982,421.416922 111.848185,408.7444 109.7703,395.5569 L109.395534,396.164541 C109.367487,396.207775 109.34555,396.2404 109.3313,396.2599 C108.9073,396.8359 108.4403,397.3219 107.8983,397.7879 C106.4423,399.0449 104.6663,399.7789 102.8213,400.2769 C99.3583,401.2119 95.5613,401.3959 92.0013,401.0319 C84.7703,400.2929 78.0113,397.5409 72.2953,393.0589 C54.8913,379.4099 52.8363,354.0119 59.8753,333.4069 C54.0993,334.7859 47.5203,330.8989 43.0103,327.5679 C37.8383,323.7459 33.5733,318.2289 32.5543,311.7389 C31.5423,305.2989 35.6483,296.7709 41.7383,294.2859 C35.4193,286.6989 31.7403,275.9319 31.3603,267.3109 C30.7003,252.3149 38.6673,238.1409 50.8993,229.9589 C39.3963,205.3079 37.1803,176.7089 44.9253,150.5349 C60.2943,98.5959 111.7783,69.5509 161.1453,56.8189 Z M117.3245,451.4424 L117.468186,450.986222 C118.6935,446.969425 120.275386,438.979476 126.2765,442.0214 C132.0095,444.9264 128.3495,453.5254 126.3445,457.7114 C123.9455,462.7204 119.8025,466.7364 114.2385,467.8124 C109.7125,468.6874 104.7425,467.5634 101.5765,464.0664 C100.6535,463.0474 100.1325,461.9294 99.5855,460.6954 C99.3725,460.2154 99.2765,459.8864 99.2365,459.6724 C99.1845,459.9074 99.0365,460.2574 98.6585,460.6694 C96.1325,463.4294 93.7465,466.6424 91.9135,469.9074 C91.4795,470.6794 90.1115,470.1384 90.4575,469.2934 C92.5925,464.0714 92.2335,455.9964 96.9925,452.2194 C101.187178,448.889807 105.128662,451.51027 107.347287,455.387744 L107.4605,455.5894 C110.7035,461.4774 115.8715,455.8854 117.3245,451.4424 Z M71.6954,432.5743 L72.1335359,431.965996 C76.6186633,425.836182 84.1826903,418.462332 91.7514,424.1633 C94.1584,425.9763 94.2474,429.0023 91.7514,430.8013 L90.8070147,431.47564 C87.500451,433.819582 84.2080957,436.033474 81.7794,439.3953 C79.1404,443.0503 76.7704,446.9203 73.2224,449.7873 C66.9474,454.8573 56.8064,455.8573 51.3614,449.0223 L50.825801,448.343988 C50.37029,447.75757 49.8476,447.0512 49.4234,446.3463 L49.092848,446.804004 C49.060584,446.849892 49.030272,446.893716 49.002376,446.935068 L48.9264,447.0513 C46.6884,450.6273 43.8614,453.5723 40.3404,455.8963 C33.6484,460.3113 26.1074,460.9253 18.5364,458.5883 C17.7954,458.3583 17.9944,457.3653 18.7114,457.2993 C27.6824,456.4613 36.4234,450.0883 40.0724,441.8813 L40.4844946,440.960214 C41.9610653,437.695587 43.6154,434.593129 47.2634,433.3113 C50.8144,432.0633 54.5424,433.3813 56.9774,436.0673 C59.0134,438.3123 59.5374,442.7753 63.2104,441.7913 C67.2324,440.7133 69.4964,435.6763 71.6954,432.5743 Z M46.0004,378.051 C47.9874,376.541 51.0994,378.161 51.6464,380.349 C54.1254,390.255 43.8294,401.928 33.9354,402.235 C31.3884,402.313 28.9384,401.697 26.6824,400.518 C24.9324,399.604 22.8614,397.268 20.9404,396.881 C18.4594,396.382 16.2614,399.686 14.5144,401.382 C12.3474,403.487 10.2034,405.441 7.7754,407.235 C6.8054,407.952 5.3004,406.748 5.7104,405.647 L6.53169186,403.457912 C9.5046028,395.666224 14.6251,384.29177 24.2074,387.525 C28.9024,389.109 32.4364,394.451 37.3804,390.221 C41.3394,386.834 41.7084,381.312 46.0004,378.051 Z M88.2791,338.1718 C97.2121,327.9178 118.2111,333.3338 122.1931,345.8088 C123.0731,348.5638 122.1551,352.1448 120.0031,354.0948 C117.1681,356.6638 113.1241,357.4418 109.6821,355.4268 C106.7201,353.6938 105.5041,350.8578 103.3271,348.4248 C100.1341,344.8598 95.7911,342.8808 91.3161,341.4628 C90.1971,342.0508 89.1561,342.8238 88.2221,343.7558 C87.7441,344.2328 86.8411,343.5788 87.2651,343.0168 C87.8411,342.2528 88.5451,341.5338 89.3461,340.8708 L88.9611,340.7578 L88.9611,340.7578 C87.7831,340.4298 87.5281,339.0358 88.2791,338.1718 Z M146.3364,224.957413 C148.3384,224.9605 150.6704,226.8405 150.4144,229.0355 L150.337087,229.64496 C149.76096,233.82381 148.418218,236.189955 144.2354,238.1315 C140.6864,239.7765 136.9584,240.6855 133.0684,241.0455 C131.5964,241.1815 130.0384,241.1895 128.4594,241.0725 L128.126872,242.990797 C127.466033,246.827194 126.855257,250.666214 126.7404,254.5765 C126.5264,261.8255 129.2314,267.7995 132.1324,274.2715 C137.7014,286.7035 138.3274,299.1135 132.2644,311.5275 C131.3774,313.3425 128.8664,314.8225 126.8404,314.6385 C124.2134,314.4005 122.9444,313.6405 121.4164,311.5275 C120.132936,309.753214 120.426492,307.245279 121.31525,305.389898 L121.4164,305.1865 C124.4714,299.2675 125.4344,292.5805 123.8744,286.0745 C122.4084,279.9595 119.0874,274.4635 117.6044,268.3675 C115.1884,258.4375 117.7614,248.5875 122.7894,240.0685 C118.9944,238.9755 115.4844,237.0275 113.1424,234.0565 L113.1524,234.0525 L113.1524,234.0525 C112.2584,233.0975 112.7464,231.1025 114.3154,231.2225 L116.089802,231.365795 C121.165463,231.790032 125.837641,232.231259 130.9704,230.8165 C133.601467,230.090367 135.872764,228.879896 138.13146,227.414363 L138.6154,227.0965 C141.4414,225.2185 143.0084,224.9535 146.3364,224.957413 Z M158.4838,151.5647 C171.2078,150.8417 182.0708,159.2387 187.3518,170.4167 C193.088129,182.552152 190.681229,196.476566 185.618279,208.416367 L184.179802,211.758133 C181.662011,217.54789 178.356404,224.433096 173.1998,227.5397 C167.4078,231.0297 162.4008,226.9827 164.1088,220.5497 C165.1268,216.7187 167.8818,213.7637 170.1108,210.6017 C172.1908,207.6487 174.1318,204.5927 175.8338,201.4047 C179.1678,195.1527 181.6568,188.1867 181.6298,181.0237 C181.5828,167.9497 172.9448,152.9667 158.4838,153.1587 C157.4508,153.1707 157.4678,151.6217 158.4838,151.5647 Z M222.8367,130.4691 C222.0437,129.8671 222.7527,128.5281 223.6397,129.0931 C238.3947,138.4771 249.4117,156.1041 251.6297,173.4211 C252.8607,183.0291 251.9207,193.2971 247.8287,202.1641 C245.4817,207.2521 241.4537,212.1091 235.8217,213.5041 C230.6437,214.7851 225.3067,211.8281 223.6997,206.7741 C223.0767,204.8131 224.1487,202.7621 225.7677,201.6911 C231.0177,198.2201 235.2447,193.8401 237.7177,187.9481 C240.2907,181.8221 241.3167,175.3211 241.3477,168.7131 C241.4237,153.2381 235.2477,139.9011 222.8367,130.4691 Z M403.0771,137.1762 C402.3941,136.4192 403.2531,135.3032 404.1571,135.7772 C414.8241,141.3872 421.6021,152.1332 423.5441,163.9022 C425.4471,175.4242 422.8871,191.1102 413.9681,199.4432 C408.9351,204.1472 399.9191,197.8912 404.1031,191.8322 C407.0531,187.5592 410.2421,184.0402 411.9311,178.9912 C413.4371,174.4862 413.9701,169.9432 413.8881,165.2092 C413.7091,154.8812 410.0191,144.8762 403.0771,137.1762 Z M272.6596,122.748 C290.8846,121.88 301.9296,142.685 304.4596,158.192 C306.0216,167.773 304.8476,177.641 299.5576,185.951 L299.244641,186.434778 C294.879853,193.07325 286.944052,200.716333 278.3936,197.573 C274.7746,196.244 273.8116,192.367 276.2426,189.426 C279.9626,184.924 285.7126,183.089 289.2106,178.282 C293.1346,172.891 294.4206,166.137 294.1936,159.581 L294.162765,158.856818 C293.554729,146.797451 287.80256,123.65136 272.6596,124.061 C271.8106,124.083 271.8206,122.787 272.6596,122.748 Z M329.6664,119.2912 C347.2944,117.0382 358.0294,137.7762 361.3404,152.0622 C363.4084,160.9932 363.8604,170.9562 361.2154,179.8202 L361.018248,180.451634 C358.865189,187.067079 352.512989,198.401958 344.2204,195.0212 C341.9484,194.0952 339.6294,191.5722 340.7174,188.8522 C342.1064,185.3752 344.1114,184.4732 346.7834,182.2482 C348.8414,180.5352 350.2784,178.0762 351.3364,175.6542 C354.1544,169.1992 354.7824,161.6582 354.3974,154.7022 L354.344363,153.878913 C353.348433,140.292148 345.98144,120.0438 329.6664,120.4162 C328.9214,120.4332 328.9724,119.3792 329.6664,119.2912 Z M361.9394,99.795 C371.7504,96.059 379.7884,105.44 385.4284,112.135 C392.4934,120.524 398.9024,129.561 402.5254,140.004 C405.7524,149.309 406.3204,159.655 403.4134,169.127 C401.9744,173.817 399.7324,178.166 396.6724,181.994 L396.281728,182.476828 C393.096987,186.360081 390.022459,188.746255 384.8054,187.356 C382.6824,186.789 381.7854,184.69 382.1524,182.684 C382.9384,178.398 385.1474,177.285 388.0084,174.293 C390.5314,171.654 392.4034,168.404 393.6624,164.987 C396.2584,157.938 396.3934,150.301 394.6504,143.039 C392.700633,134.909333 388.862354,127.402007 384.421857,120.367073 L383.463946,118.860251 C378.759332,111.422735 372.050952,99.9691034 362.1264,101.176 C361.2764,101.28 361.2654,100.051 361.9394,99.795 Z" id="ðŸ–-Ink" fill="#000000"/>
    </g>
</g><g transform="translate(320, 250)"><g>
    <!-- Generator: Sketch 62 (91390) - https://sketch.com -->
    <title>face/Calm</title>
    <desc>Created with Sketch.</desc>
    <g id="face/Calm" stroke="none" stroke-width="1" fill="none" fill-rule="evenodd">
        <path d="M171.041749,240.15887 C163.675125,242.292501 155.767928,242.483273 148.258906,240.279784 C141.4481,238.280984 134.454927,233.882403 129.442325,228.062017 C124.989403,222.891504 122.105494,216.608051 122.218765,209.900917 C122.23165,209.134907 122.505549,208.495522 122.926888,207.999233 C123.380478,207.464958 124.014007,207.098085 124.692682,206.938847 C125.390651,206.775083 126.128513,206.833141 126.756813,207.118539 C127.325595,207.376901 127.812904,207.815736 128.117618,208.457126 C128.887965,209.469087 129.655321,210.466061 130.425688,211.435384 C136.619652,219.083686 142.618023,224.799426 151.931921,226.849502 C156.985367,227.962038 162.032458,227.4687 166.663343,225.771293 C171.620483,223.954301 176.101584,220.7596 179.613092,216.671419 C181.200004,214.823854 183.073535,214.069743 184.905526,214.057068 C186.981571,214.042704 189.033559,215.007378 190.57944,216.549217 C192.09898,218.064783 193.116434,220.124293 193.208649,222.278695 C193.289584,224.169532 192.672753,226.144647 191.031753,227.906756 C185.626535,233.711247 178.621333,237.963558 171.041749,240.15887 Z M170.814304,144.367155 C178.365682,148.9572 189.871664,159.660291 181.748119,171.039573 C172.185929,181.073062 158.418535,169.568982 151.634201,164.366134 C145.343449,160.333898 138.275437,170.704507 144.112,175.412823 C193.135736,211.708059 213.030606,145.567387 174.633685,138.970386 C170.406047,138.243425 168.835891,142.947174 170.814304,144.367155 Z M100.174958,124.170086 C97.7478949,122.617925 94.8928863,122.085145 91.7287079,123.524696 C89.2560287,124.649136 84.9192282,128.39769 81.9011027,133.325394 C79.8363008,136.696603 78.3721211,140.651472 78.6769434,144.770947 C78.7477349,145.727649 78.3942255,146.433054 77.8366311,146.954624 C77.3962557,147.366548 76.7601476,147.669274 76.0129997,147.763908 C75.3786744,147.844253 74.6686661,147.771772 74.0913555,147.591587 C72.9931588,147.248829 72.4119407,146.536464 72.1929489,145.954883 C70.0797393,140.342792 70.9901323,134.080043 73.3585073,128.429944 C76.5547725,120.804793 82.3592783,114.41778 86.1622145,112.358526 C92.669833,108.833475 100.346995,108.671236 106.863929,112.262379 C112.411467,115.318853 115.880218,120.253414 119.330136,125.2834 C120.06351,126.352661 120.791391,127.414081 121.543672,128.456831 C123.05132,130.546275 123.201386,132.618559 122.617532,134.395557 C121.970727,136.36415 120.32151,138.025511 118.259199,138.894957 C116.353068,139.69856 114.140756,139.811681 112.183119,138.985995 C110.529381,138.288488 109.0117,136.92878 108.051384,134.621701 C106.434021,130.736299 103.739338,126.449586 100.174958,124.170086 L100.174958,124.170086 Z M223.440775,132.814369 C221.778563,133.680468 220.478145,133.941602 218.634261,133.389159 C217.614596,133.082886 216.606823,132.495899 215.817824,131.706899 C215.035882,130.924958 214.471712,129.952552 214.252419,128.873803 C213.713072,126.211477 212.256412,123.719368 210.18061,122.094757 C208.406384,120.706172 206.16691,119.97019 203.68291,120.385402 C201.002485,120.832856 198.448729,122.551933 196.689869,124.578687 C196.102007,125.256875 195.641205,126.027105 195.177941,126.792136 C194.311333,128.22283 193.469024,129.552694 192.273843,130.603376 C191.82079,131.003129 191.138107,131.28 190.476901,131.28 C190.208169,131.28 189.935444,131.236271 189.675563,131.155276 C187.007679,128.47758 186.494623,126.446273 186.580635,124.431485 C186.670832,122.318684 187.503809,120.179493 188.849905,118.183565 C192.007516,113.501608 198.002761,109.662839 202.048399,108.79334 C207.588873,107.602708 213.091225,109.031983 217.502758,112.126467 C222.041966,115.310509 225.405508,120.254035 226.454161,125.825144 C226.706431,127.166899 226.599231,128.615171 226.088238,129.870886 C225.588922,131.097909 224.71878,132.148831 223.440775,132.814369 Z M112.394258,74.2526486 C109.069304,77.4921444 105.133931,77.9939318 101.152655,78.4402385 C98.9405594,78.6905522 97.1746454,78.8923401 95.4369094,79.2844431 C90.6605649,80.3626109 85.9393099,81.9864477 81.6319378,84.3250848 C77.1292738,86.7698547 72.2223932,89.7182412 68.6922598,93.4953513 C67.8528342,94.3941678 67.061542,95.3372855 66.2691444,96.2824677 C65.5465882,97.1443561 64.8505415,97.9741006 64.1169766,98.7741419 C63.2745284,99.6930924 62.474532,100.656215 61.6787885,101.616822 C61.1867388,102.427379 61.0895404,102.626735 60.9904523,102.834265 C60.8413425,103.146109 60.6678954,103.495099 60.4697946,103.869494 C60.1984889,104.382242 59.8807027,104.94353 59.5478797,105.452422 C58.9941378,106.382586 58.6970103,106.638799 58.44026,106.753401 C58.0142242,106.943142 57.6101892,107.036611 57.2182099,106.985995 C56.8506749,106.938536 56.5044166,106.762013 56.1624818,106.47304 C54.4554262,105.030757 53.951973,102.663788 54.003574,100.151245 C54.0818781,96.3384852 55.4881691,92.117066 56.7845563,89.5220553 C59.7989145,83.4923568 63.9794222,77.2240967 69.0062346,72.7238372 C74.7422821,67.5868727 81.0177087,63.6979271 88.2256814,61.0181785 C92.7050141,59.3522788 97.8912946,57.8231463 102.771356,58.0162973 C106.284021,58.1553272 109.63736,59.1994956 112.406688,61.8070554 C114.107217,63.4077623 114.923517,65.6846039 114.923517,67.9598329 C114.923517,70.2803828 114.075698,72.6146356 112.394258,74.2526486 Z M230.202983,103.917581 C229.991535,104.264137 229.698869,104.50296 229.373218,104.646395 C229.031839,104.796759 228.650729,104.840068 228.284999,104.778443 C227.920889,104.717091 227.574779,104.552038 227.300232,104.299793 C227.037084,104.058021 226.836702,103.737376 226.747103,103.344559 C224.539595,93.6490336 220.253164,86.4354186 211.104309,81.7836507 C206.603851,79.4952872 201.428751,78.0413484 196.529682,76.8821344 C195.106038,76.5452379 193.601743,76.3269526 192.086825,76.1057581 C187.338965,75.4125185 182.556847,74.6185951 179.461645,70.7808275 C177.596631,68.4690944 176.81391,65.5126371 177.256458,62.8088302 C177.67314,60.2630482 179.160769,57.9287462 181.865031,56.529874 C188.597516,53.048922 196.963943,56.4646469 203.762668,59.3743755 C204.266993,59.5902173 204.762058,59.8021006 205.246454,60.0065439 C211.895078,62.8129721 217.958974,66.5173942 222.943608,71.815137 C226.89868,76.0180237 230.563109,82.2312248 232.038949,88.62289 C233.266795,93.9405248 232.978088,99.3690991 230.202983,103.917581 Z" id="ðŸ–-Ink" fill="#000000"/>
    </g>
</g></g><g transform="translate(210, 310)"><g>
    <!-- Generator: Sketch 62 (91390) - https://sketch.com -->
    <title>accessories/* None</title>
    <desc>Created with Sketch.</desc>
    <g id="accessories/*-None" stroke="none" stroke-width="1" fill="none" fill-rule="evenodd"/>
</g></g>
          </g>
        </g>
      </svg>