<svg id="avatar-svg" transform="translate(-40, 0)" width="380" height="380" class="path1" viewBox="0 0 700 700" fill="none" stroke="black" strokewidth="0.8" strokelinecap="round" strokelinejoin="round" xmlns="http://www.w3.org/2000/svg">
        <style>
          @media (prefers-reduced-motion){.path1{animation:none!important;stroke-dasharray:unset!important}}@media print{.path1{animation:none!important;stroke-dasharray:unset!important}}@keyframes grow{0%{stroke-dashoffset:1px;stroke-dasharray:0 1000px;opacity:0;fill-opacity:0}10%{opacity:1;fill-opacity:0}60%{stroke-dasharray:1000px 0;fill-opacity:1;stroke-opacity:0}to{stroke-dasharray:1000px 0;fill-opacity:1;stroke-opacity:0}}.path1 g g path{stroke-dashoffset:1px;stroke-dasharray:1000px 0;animation:grow 7s linear forwards;transform-origin:center;stroke:#a2a0a0;stroke-width:10px;animation-delay:0s}
        </style>
        <g>
          <g>
            <g transform="translate(0, 550)">
    <!-- Generator: Sketch 62 (91390) - https://sketch.com -->
    <title>body/mono/Killer</title>
    <desc>Created with Sketch.</desc>
    <g id="body/mono/Killer" stroke="none" stroke-width="1" fill="none" fill-rule="evenodd">
        <path d="M576.6378,94.1447 C551.8758,71.1237 559.8258,48.9187 551.5498,20.8677 C535.5508,-13.8393 502.5438,-48.0213 464.3248,-55.4253 C445.2408,-66.6013 420.2958,-60.2663 407.2568,-42.7413 C395.0098,-39.4963 394.6048,-22.5623 390.5108,-12.5443 C382.9438,7.1317 377.1588,27.1787 372.4148,47.6197 C224.9988,78.3097 111.9298,178.6817 88.3568,330.9167 C84.3268,353.0397 81.0288,375.3107 77.9308,397.5817 C76.1158,416.7677 66.5058,447.2137 86.2608,459.6287 C86.8258,473.3917 88.4778,487.2907 93.7178,500.2467 C95.7298,513.1567 97.3558,526.1517 101.6078,538.5967 C110.9818,560.1447 112.4268,583.7817 122.9538,605.2617 C130.3098,621.1077 141.1088,633.8287 154.4638,644.9097 C160.1058,649.8537 167.8548,655.2177 169.0398,662.9537 C168.6858,674.6137 177.5328,691.4667 191.5058,685.9907 C201.4228,689.7197 212.0728,690.6897 222.5778,690.6137 C400.5988,682.9177 578.9928,682.2667 757.0198,690.8717 C763.2628,691.1627 769.1908,685.1747 768.9308,678.9587 C766.0938,611.1927 759.0848,543.6197 748.0578,476.6957 C723.4538,338.1127 697.1698,183.1057 576.6378,94.1447 L576.6378,94.1447 Z" id="ðŸŽ¨-Background" fill="#FFFFFF"/>
        <path d="M386.179388,25.2936981 L386.8453,23.4582 C390.8763,12.3182 395.8153,11.4882 393.4353,22.2882 L393.075319,23.9152926 C391.01413,33.1556846 388.548133,42.7047 383.4963,50.7882 C374.7863,64.7292 351.9653,69.8982 336.7463,74.8572 C336.7953,75.2082 336.7953,75.5592 336.7553,75.8892 C346.0553,77.3092 355.6053,81.7882 363.3953,86.8092 C370.5253,91.4182 376.9653,96.5882 381.7653,103.4582 L405.2463,93.2582 C412.9963,89.8982 420.8053,85.8982 429.2253,84.5482 C441.0953,82.6482 459.3953,89.0082 457.9963,103.9792 C457.8153,105.9982 456.5453,107.4982 454.9863,108.2382 C456.1753,108.1392 457.3763,108.1072 458.5653,108.1482 C466.5053,108.4182 477.7253,115.4482 473.5763,124.7182 C472.5153,127.1072 469.4563,125.5382 469.2153,123.5382 C467.6453,110.3892 454.0553,113.4792 444.6263,115.6282 C436.0953,117.5682 427.6663,119.9482 419.4163,122.8572 C410.5953,125.9682 402.0653,129.9282 394.1953,135.0182 C386.0763,140.2772 378.4863,146.6582 378.9863,157.1582 C379.0053,157.3782 378.6563,157.4882 378.5553,157.2772 C374.3653,148.3382 382.5253,138.9082 389.1563,133.7582 C398.7553,126.3092 409.9963,120.9482 421.3553,116.7682 C427.196014,114.6232 433.2178,112.93519 439.261327,111.439953 L440.6563,111.0982 C444.2063,110.2382 447.8853,109.2482 451.5853,108.6482 C450.21843,108.313417 449.024483,107.320797 448.493545,105.526815 L448.4253,105.2772 C443.0853,84.1282 414.4653,101.1392 402.8763,106.2482 C394.5853,109.8982 386.1953,113.3982 377.9963,117.2682 L376.93976,117.771732 C370.582929,120.822061 363.957932,124.4262 359.6853,130.1682 C348.7253,144.8682 358.5653,164.7182 362.0253,180.2382 C363.0153,184.6882 363.9653,189.4082 364.0253,193.9792 C364.073616,197.720358 362.926452,201.247909 361.997808,204.847544 L361.4563,206.9682 L361.4563,206.9682 C361.9353,206.9792 362.4253,207.4792 362.2653,207.9882 C358.3763,220.6882 351.7953,232.7292 345.3853,244.3092 C338.8453,256.1282 332.1153,267.8892 324.8953,279.2982 C299.2153,319.8782 269.8153,358.1882 237.5653,393.7582 C222.1053,410.8092 205.3853,426.7182 190.2953,444.1072 C183.2753,452.1982 176.7063,460.6782 171.2253,469.9182 C168.2653,474.9082 165.6053,480.0882 163.3653,485.4582 L162.923142,486.521409 C161.086836,490.909599 159.281967,494.778941 155.8653,498.2882 C154.1663,500.0382 150.7653,499.2982 150.2253,496.7982 C147.7153,485.0382 156.0363,472.3382 162.0763,462.7382 C168.5953,452.3782 176.2153,442.7182 184.3153,433.5482 C186.6053,430.9482 188.9353,428.3892 191.2953,425.8572 C180.7363,428.7582 169.6153,429.5272 158.8553,431.4282 C147.8353,433.3682 136.8853,435.6782 126.2063,439.0382 C116.3953,442.1182 107.0553,446.1882 98.1263,451.2882 C93.8453,453.7382 89.6563,456.4282 85.7363,459.4382 C85.3653,459.7182 85.0053,460.0182 84.6453,460.3092 C91.0453,476.3892 95.9653,493.0682 101.1053,509.5592 C104.614443,520.832914 108.044565,532.136016 111.452204,543.446675 L119.1053,568.8992 C124.6263,587.2482 129.2253,607.2082 138.9563,623.8992 C143.1563,631.0982 148.8353,637.6072 155.3353,642.8282 C158.4863,645.3682 161.9163,647.2982 165.4753,649.1682 C167.7153,650.3482 169.6953,651.8782 171.7753,653.2772 C173.144586,651.716021 175.221485,650.749015 177.770182,651.157153 L178.0553,651.2082 C186.1053,652.7882 194.4063,649.9382 201.5653,646.4182 C209.0253,642.7382 216.4563,638.4182 222.7653,632.9792 C235.1753,622.2682 245.4653,608.9182 255.4963,596.0382 C291.2553,550.0782 321.7063,499.7382 346.5253,447.0782 C359.1353,420.2982 370.9063,393.0682 381.9653,365.6072 C387.4963,351.8892 392.9453,338.1392 398.2553,324.3282 L398.956173,322.48193 C403.713353,309.809925 407.878323,296.053084 415.5253,284.8782 C415.5853,284.7772 415.6663,284.6982 415.7553,284.6392 C415.7753,284.3182 415.8763,284.0182 416.0363,283.7582 C418.4063,279.9682 422.9453,278.8572 426.8763,277.0982 C431.3053,275.1072 435.7253,273.1282 440.1453,271.1492 C443.6263,269.5882 448.7253,268.2682 451.3353,265.3092 C454.2953,261.9792 455.2863,256.0482 456.7253,251.9282 C459.9863,242.6182 463.5153,233.4182 467.0453,224.2082 C470.1453,216.1182 472.8263,207.4382 477.1753,199.8992 C480.888582,193.467456 486.194916,190.075613 492.3293,186.371352 L493.66081,185.56778 C496.2241,184.0052 498.9583,182.1332 499.9753,179.2082 C501.6353,174.4282 497.9453,169.8572 494.0253,167.5782 C485.3153,162.5272 474.8853,168.3572 467.2463,172.8092 C459.5653,177.2882 452.0763,182.6682 443.8653,186.1392 C443.6853,186.2082 443.5553,185.9382 443.6853,185.8182 C450.2853,179.772046 458.351714,174.790981 465.931596,169.876115 L467.8153,168.6482 C472.8453,165.3572 478.5763,162.1482 484.6353,161.2582 C483.3763,160.8382 483.7653,159.2082 484.9653,159.0592 C496.8853,157.6072 508.9863,159.4682 520.7863,156.6882 C531.3153,154.2082 540.5053,148.2582 547.8653,140.4282 C554.8053,133.0482 560.3053,124.5082 565.4353,115.8092 C568.4163,110.7482 571.3263,105.6482 574.3453,100.6072 C574.7953,99.8482 575.2463,99.0082 575.7063,98.1072 C570.3053,96.8572 564.8053,92.8382 561.1353,89.7182 C555.4353,84.8782 551.2753,78.3382 548.3763,71.5182 C541.5763,55.5082 542.1153,37.1982 547.2063,20.8182 C547.5153,19.8182 548.9963,19.7682 549.2863,20.8182 C553.1953,34.8482 553.5453,50.0592 559.6853,63.4382 C562.1453,68.7982 565.5763,73.6182 569.7953,77.7182 C571.9353,79.7882 574.0953,81.5272 576.7153,82.9682 C579.5253,84.5182 582.5253,85.0272 584.7553,87.4882 C584.8853,87.6282 585.0053,87.7682 585.1153,87.9182 C586.421967,87.7418 587.546571,87.9295244 588.446022,88.4919428 L588.6353,88.6182 L588.6753,88.5592 C584.6453,85.8092 580.5953,83.0882 576.3053,80.6882 C575.1663,80.0482 575.9963,78.5182 577.1353,78.7182 L579.957817,79.2173811 C589.387945,80.8975388 598.996209,82.8082 607.6053,86.9982 C617.1563,91.6582 626.2753,97.0382 634.9753,103.1282 C652.1153,115.1072 667.7153,129.2582 681.3653,145.0882 C706.5453,174.2982 724.3453,209.4182 735.3553,246.2382 C749.1153,292.2482 754.4353,340.5782 760.2463,388.1072 C763.022883,410.859783 765.514612,433.65354 767.72919,456.473836 L768.3263,462.6982 C769.4353,474.4382 770.6353,486.1582 771.7653,497.8682 C773.7653,501.0082 773.9063,504.7382 772.7253,507.9792 C773.5953,517.4682 774.3763,526.9682 774.9963,536.4982 C776.5763,561.0882 777.5953,585.7582 778.0363,610.4082 C778.4753,635.4082 777.5653,660.3682 777.2753,685.3682 C777.1563,695.8892 761.2153,695.8482 760.9653,685.3682 C760.3263,657.7482 758.3453,630.1182 756.9353,602.5182 C755.5553,575.5782 754.2753,548.6492 752.6263,521.7292 C752.4653,519.1682 752.3153,516.5982 752.1753,514.0382 C749.850069,514.924354 746.97014,515.290744 744.526537,515.775245 L743.9253,515.8992 C739.011967,516.943283 734.090231,517.69411 729.099242,518.150909 L727.482678,518.287086 C722.955012,518.599791 699.7453,519.09818 686.0253,516.5982 C687.1153,534.2082 688.2153,551.8182 689.4253,569.4182 C690.8053,589.4882 691.0653,609.5882 692.0763,629.6782 C692.5853,639.7182 693.1953,649.6882 694.4753,659.6682 C695.059014,664.211057 695.655953,668.760527 696.369393,673.28701 L696.7363,675.5482 C697.3763,679.4382 698.1753,682.7682 696.5253,686.2382 C697.9653,690.6882 695.7253,696.2982 689.8263,695.8482 C652.0053,693.0182 614.0953,691.8182 576.1753,691.6492 C510.707558,691.338555 445.278214,693.961104 379.839232,695.761083 L362.154027,696.239891 C300.857598,697.916722 239.258586,699.707343 178.2463,692.9282 C178.1153,700.7382 163.5153,700.6492 164.2953,691.9382 L164.486821,689.837978 C165.365154,680.359936 166.504162,670.542338 169.4453,661.4182 C167.0053,661.4882 164.5553,661.3892 162.2553,660.6282 C158.9863,659.5592 155.8453,657.6182 153.0053,655.6982 C146.6853,651.4382 141.3453,646.1882 136.7363,640.1282 C127.6853,628.2382 121.6753,614.1492 116.9253,600.0782 C111.8748,585.081771 107.253698,569.912894 102.936291,554.691666 L98.2896791,538.206613 C92.3911514,517.24078 86.5992714,495.9562 83.0853,474.4382 C82.7063,474.9382 82.1853,475.3682 81.4963,475.6782 C62.6953,484.0782 46.6153,466.8482 43.4353,449.4282 C41.5631621,439.155097 42.000339,428.640547 42.1596083,418.241883 L42.1753,417.1282 C42.3353,405.1492 42.3853,393.1682 42.9963,381.1982 C45.0153,341.1782 54.3453,302.3992 68.8553,265.1182 C82.5253,230.0272 99.0453,194.6582 120.3263,163.4882 C130.4353,148.6882 142.0953,134.4682 156.1453,123.2182 C170.9653,111.3682 187.6263,102.3572 205.0763,95.0182 C222.9063,87.5182 241.3953,81.5882 259.9063,75.9882 C280.3263,69.8092 300.9863,64.4982 321.9963,60.7682 C323.5253,60.4982 325.0253,60.9482 325.8763,62.3482 C326.6153,63.5782 327.3053,64.8382 327.9753,66.1182 C330.8453,64.3182 335.2553,63.8782 338.1263,62.9982 C347.1353,60.2082 363.3453,58.5382 370.4863,52.1782 C378.627838,44.9318538 382.541877,35.2703006 386.179388,25.2936981 Z M81.4753,463.0982 C80.2063,464.2582 78.9353,465.4182 77.6263,466.5082 C79.3353,465.7882 80.8853,466.2682 82.0253,467.3282 C81.8263,465.9182 81.6453,464.5082 81.4753,463.0982 Z M494.7953,192.6492 C492.8553,193.8482 490.9353,195.0482 489.1853,196.4882 C482.89905,201.687575 480.77385,210.175522 478.154226,217.577266 L477.9863,218.0482 C474.7653,227.0082 471.5153,235.9882 468.1053,244.8782 C467.0363,247.6682 466.0363,250.6582 464.9653,253.6682 C479.3853,267.5272 494.1263,281.2382 509.5553,293.9682 C537.7953,317.2582 568.5653,337.4882 601.2653,353.9682 C618.0763,362.4482 635.4353,370.1682 653.2953,376.1582 C659.7463,378.3182 666.3153,380.2182 672.9863,381.6282 L672.9963,381.5272 L672.9963,381.5272 C673.0253,381.2882 673.4163,381.1782 673.4563,381.4682 L673.4963,381.7382 L673.4963,381.7382 C676.3553,382.3282 679.2363,382.8282 682.1263,383.2182 C687.6053,383.9482 693.1453,384.2772 698.6753,384.2292 C702.1053,384.1982 705.5053,383.7772 708.8853,383.9482 C693.9163,370.4582 678.8653,357.0682 663.7753,343.7382 C635.1753,318.4582 606.4163,293.3782 577.6053,268.3382 C564.814189,257.2182 551.880856,246.232521 539.143122,235.03702 L526.876595,224.202706 C516.035942,214.616201 505.262896,204.876878 495.872586,193.919035 L494.7953,192.6492 Z M366.9652,266.9685 C366.0952,265.8985 367.4162,264.5385 368.4862,265.4485 C374.8762,270.8575 382.0952,273.2285 389.7652,276.1385 C391.5552,276.8185 391.4162,279.6685 389.2962,279.6385 C380.3852,279.4785 372.3552,273.7185 366.9652,266.9685 Z M456.4859,133.7676 L457.124839,133.512331 C466.135154,129.979312 477.824737,128.22274 484.9159,136.4186 C490.0559,142.3686 491.3649,153.6286 484.6659,158.8186 C483.0559,160.0686 479.6449,158.9986 480.6659,156.4886 C483.6049,149.3186 484.2259,139.9276 474.9759,137.1686 C466.952452,134.773152 457.567025,139.445822 450.260617,142.696177 L448.170346,143.618866 C433.919839,149.944921 419.767243,157.610809 411.0359,171.0076 C410.8059,171.3476 410.1949,171.1286 410.3459,170.7176 C417.3149,151.4186 438.6559,141.0276 456.4859,133.7676 Z M350.9163,92.4382 L347.452092,91.1281514 C338.641884,87.839176 327.6711,84.4994 322.2063,93.9682 C320.158387,97.5073304 318.395933,101.8882 317.63394,105.964357 L317.5363,106.5182 C317.3263,107.7772 317.0553,109.1282 317.9563,110.0982 C319.3453,111.6182 323.8653,112.3572 325.6853,113.0182 L337.129967,117.173756 L337.129967,117.173756 L342.8453,119.2582 C345.4453,120.2082 348.8053,121.1582 350.7253,123.2482 C357.4453,114.4282 368.1353,109.4082 378.2253,104.9982 C369.1353,100.7682 360.3263,95.9792 350.9163,92.4382 Z" id="ðŸ–-Ink" fill="#000000"/>
    </g>
</g><g transform="translate(200, 50)">
    <!-- Generator: Sketch 62 (91390) - https://sketch.com -->
    <title>head/mono/Short 3</title>
    <desc>Created with Sketch.</desc>
    <g id="head/mono/Short-3" stroke="none" stroke-width="1" fill="none" fill-rule="evenodd">
        <path d="M418.4242,337.6034 C412.1532,292.3604 397.8102,248.4324 395.7512,202.5104 C394.5262,182.8594 393.3012,163.2074 392.0772,143.5544 C391.6122,131.2804 375.6682,127.1394 369.5782,138.0134 C355.7352,122.6614 330.9472,124.9224 312.0362,125.3884 C200.7082,129.3334 94.9142,204.6034 56.6982,309.5524 C55.7792,312.0544 56.0572,314.7174 57.0962,317.1004 C39.2832,376.5004 102.2782,414.7494 145.2422,441.2334 C162.6712,459.6514 183.1582,474.9534 206.2912,485.4334 C232.9022,497.9524 262.5242,504.9324 291.9252,505.6004 C298.3792,505.7484 302.2562,500.5304 302.7222,495.1294 C312.1022,492.9464 328.1532,495.4664 333.1132,485.8544 C389.6802,461.2854 426.5372,399.0134 418.4242,337.6034 L418.4242,337.6034 Z" id="ðŸŽ¨-Background" fill="#FFFFFF"/>
        <path d="M391.9565,177.1545 C391.7965,175.6875 393.9145,175.6425 394.3505,176.8305 C397.9355,186.5975 401.6525,196.2975 404.4925,206.3115 C407.2305,215.9625 409.2025,225.8325 411.1995,235.6605 C414.5115,251.9705 417.3595,268.4005 419.7155,284.8835 C424.7505,280.9515 431.3355,280.5935 437.5365,283.6535 C440.4465,285.0885 441.5605,288.8835 440.8625,291.8275 C440.3025,294.1895 439.6175,296.5395 438.7955,298.8415 C440.5525,300.3965 442.0455,302.3145 443.1295,304.5165 C445.9845,310.3165 445.0645,316.4045 442.5035,321.9375 C442.6985,322.2675 442.8915,322.5995 443.0735,322.9515 C446.7805,330.1505 444.7975,336.5975 442.0885,343.6215 C440.0605,348.8775 441.1925,354.7955 436.8175,358.7635 C435.2965,363.6495 433.0145,368.1935 429.6925,372.2985 C428.9385,373.6795 427.8085,374.7895 426.4675,375.6065 C426.1305,383.3175 425.3165,391.0025 423.7855,398.6205 C417.8405,428.1995 398.9725,454.5545 375.6155,473.1425 C352.7595,491.3325 325.9165,502.2015 296.9525,505.7145 C282.8885,507.4215 268.8035,506.8835 254.8545,504.4465 L253.116974,504.137299 C240.245727,501.803207 224.669935,497.938152 215.7695,488.2285 C211.0895,483.1225 213.8255,471.8845 222.1005,472.9455 C226.4845,473.5065 230.3005,474.2095 234.4285,475.8275 C237.6475,477.0895 240.8725,478.3055 244.1775,479.3355 C250.5075,481.3065 257.0545,482.8435 263.6265,483.6935 C277.3205,485.4625 291.5505,484.9945 305.0865,482.3245 C329.7005,477.4685 353.6135,466.2675 372.2925,449.4035 C394.0055,429.8005 406.7335,404.4295 408.6065,375.1675 C410.6925,342.5775 406.9295,309.2055 403.8055,276.7845 C402.1805,259.9195 400.1175,243.0885 397.6335,226.3285 C395.2065,209.9525 393.7515,193.5995 391.9565,177.1545 Z M199.79894,71.9198052 L200.8512,71.7582 C242.6512,65.3972 286.6312,65.8482 325.9212,83.0982 C333.4512,86.4072 340.8212,90.3972 347.7612,95.0272 C352.7322,94.5082 357.7322,94.0872 362.6422,94.0182 C368.8212,93.9372 374.8512,97.1472 375.6112,103.3972 C381.4012,104.1172 386.7322,106.2472 390.1422,110.5082 C391.4712,112.1672 392.3612,114.0872 392.8122,116.0872 C396.3712,116.9282 399.8612,118.2172 403.1712,119.9172 C407.1912,121.9872 409.5112,127.7472 408.0912,132.0082 C407.7632,132.9754 407.3904,133.91764 406.9728,134.839528 L406.6512,135.5272 L406.8412,135.7872 C410.0512,140.9472 407.8212,147.7172 402.9012,150.7972 C399.2112,153.1072 395.0912,154.9472 390.8512,155.8372 C391.2012,157.5372 391.5212,159.2472 391.7812,160.9772 C391.8812,161.6782 390.9822,162.1782 390.5812,161.4872 C391.594533,164.640533 392.864867,167.9542 394.3922,171.4282 C395.2912,173.4772 392.4112,175.2972 391.3122,173.2272 C388.3922,167.7072 386.5812,162.0472 383.9312,156.3572 C381.4822,156.1972 379.0412,155.6372 376.6912,154.5672 C375.1512,153.8672 373.9822,152.6872 373.1422,151.2772 C373.0912,151.3372 373.0622,151.4072 373.0112,151.4772 C365.1212,161.6272 349.7012,165.1872 337.7812,168.3972 C324.9822,171.8482 311.8812,173.9772 298.7322,175.5472 C275.7712,178.2772 252.6312,178.7872 229.5622,179.8482 C228.0342,179.9172 226.5092,179.9942 224.9832,180.0682 C215.6132,188.2882 203.5442,193.3962 191.1642,194.9492 C184.8912,195.7352 177.4712,195.5352 170.4372,193.9332 C167.8912,196.5332 164.6742,198.4592 161.1622,199.4482 C160.5302,212.5472 153.2262,224.9492 142.1842,232.1782 L142.380049,232.956823 C145.123854,244.142292 145.08845,256.368995 135.2522,264.1432 C133.9192,265.1952 132.4642,266.0972 130.9342,266.8452 L131.270371,267.617798 C136.351026,279.492019 137.973583,292.608391 128.4232,302.4612 C124.550741,306.454643 117.751649,305.50909 114.8481,300.92541 L114.7062,300.6932 C114.5452,300.4202 114.3712,300.1582 114.2042,299.8902 C113.9452,300.4202 113.5492,300.8672 112.9612,301.1172 C109.3312,302.6782 107.8812,301.5272 104.5712,299.9172 C101.5112,298.4172 98.2812,297.2972 94.9822,296.4282 C92.2912,295.7272 89.6112,295.2272 86.9112,294.9372 C69.8512,301.4572 58.8312,321.4572 61.4512,340.2272 C62.8712,350.4472 68.4822,360.5672 78.2612,364.8072 C82.5412,366.6672 87.5712,367.4472 92.2012,366.8172 C98.4712,365.9672 103.2912,362.0182 109.7812,364.2772 C112.3412,365.1672 113.9422,367.1782 114.0812,369.9282 C114.3122,374.2472 112.7812,377.4872 110.2012,379.8872 C114.7512,383.6872 118.4212,388.9672 122.3712,393.1782 C127.3122,398.4472 132.3212,403.7172 137.6612,408.5772 C142.7012,413.1872 148.0622,417.4672 153.7412,421.2682 L154.337936,421.661133 C161.454205,426.294636 170.420789,430.410104 170.7612,440.0982 C170.8712,443.0182 169.1012,445.6972 166.7012,447.1872 C157.7322,452.7472 147.9712,445.4472 140.9412,440.0982 C138.1112,437.9472 135.3612,435.7172 132.7112,433.4072 C130.9412,433.5472 129.0112,433.2582 127.0012,432.3672 C125.7112,431.8072 124.4512,431.1472 123.2112,430.4472 C119.1812,431.4572 115.3812,430.5672 112.2512,428.4572 C107.7412,429.5672 102.9612,429.6972 98.9012,428.8072 C95.1922,427.9872 91.8812,426.2372 89.1512,423.8872 C83.4512,425.7072 77.1212,425.3672 71.5012,421.9172 C68.1312,419.8482 65.5012,416.8972 64.0712,413.4472 C63.3432,412.3076 62.8774044,410.978098 62.842112,409.513167 L62.8412,408.9572 C57.9412,409.0672 53.0312,407.3872 49.2412,403.5082 C45.7612,399.9472 44.0622,395.5082 43.8712,390.9972 C38.9412,389.5982 34.4312,386.7262 31.0012,382.2972 C25.3212,374.9572 24.5622,365.8872 27.4822,357.7872 C27.2912,357.3572 27.1212,356.9172 26.9712,356.4772 C22.4412,350.0872 19.4512,342.3772 19.6912,334.6472 C19.7212,333.4472 19.8812,332.2682 20.1212,331.0982 C15.6612,328.7272 12.3812,324.5672 12.0312,319.2772 C11.7612,315.1272 13.2512,311.0672 15.9412,307.9972 C14.6312,304.8672 14.0512,301.4672 14.4512,298.0672 C14.8612,294.5772 16.0912,291.5472 17.8922,289.0182 C17.8512,288.0982 17.9012,287.1672 18.0512,286.2172 C17.8712,285.2872 17.7212,284.3272 17.6422,283.3482 C16.7912,272.6272 24.1912,263.2472 33.2012,258.2972 C35.5712,256.9972 38.1312,255.9372 40.6912,255.0372 C42.5512,254.3772 45.3512,254.1572 46.9912,252.9472 C46.9212,252.8972 47.6012,252.0182 47.7212,251.5472 C47.8512,250.9672 47.9912,250.3972 48.0622,249.8072 C48.3312,247.3272 48.1312,244.7772 48.0812,242.2872 C47.8612,230.9872 48.2112,219.6372 49.4012,208.3972 C51.6112,187.5572 57.0622,167.1672 67.6812,148.9572 C76.5912,133.6972 88.7912,120.8072 102.7812,110.1172 C130.646857,88.8343717 165.420808,77.2623525 199.79894,71.9198052 Z M70.6599,331.0876 C67.03254,322.36966 84.1097925,322.283461 88.6249563,322.697896 L88.7579,322.7106 C98.9209,323.7216 114.8099,328.6096 118.9679,338.8646 C120.6889,343.1096 115.5939,347.7106 111.5169,346.3146 C107.5259,344.9486 105.2879,342.0146 102.0849,339.4476 C101.2449,338.7736 100.3689,338.1446 99.4769,337.5376 C99.9467571,339.033529 100.698568,340.415641 101.741942,341.447743 L101.9879,341.6796 C106.9059,346.0976 98.1109,353.0406 94.8469,347.1896 C93.1089,344.0766 92.4129,340.6606 92.9549,337.1256 C93.1159,336.0826 93.3959,335.1286 93.8029,334.2186 C93.4789,334.0566 93.1599,333.8806 92.8319,333.7246 L92.2463641,333.452788 C88.3320616,331.676613 71.62954,324.70358 71.7649,330.9386 C71.7799,331.6286 70.8849,331.6296 70.6599,331.0876 Z" id="ðŸ–-Ink" fill="#000000"/>
    </g>
</g><g transform="translate(320, 250)"><g>
    <!-- Generator: Sketch 62 (91390) - https://sketch.com -->
    <title>face/Fear</title>
    <desc>Created with Sketch.</desc>
    <g id="face/Fear" stroke="none" stroke-width="1" fill="none" fill-rule="evenodd">
        <path d="M199.7227,205.9251 L200.547923,205.882374 C206.179192,205.562311 211.647049,204.739007 216.6767,207.8941 C223.3627,212.0871 223.3927,221.6231 216.6767,225.8081 C211.3927,229.1031 205.6507,228.0211 199.7227,227.8671 C194.8407,227.7401 189.9577,227.6521 185.0747,227.6001 C175.3157,227.4981 165.5627,227.4741 155.8027,227.5231 C146.997575,227.56685 138.184794,227.4636 129.381774,227.251536 L125.6097,227.1541 C116.5807,226.9061 107.1267,227.2181 98.2327,225.4601 L97.8507,225.3941 L97.8617,225.3751 L97.8617,225.3751 C96.3207,224.8571 95.5057,222.4001 97.3477,221.5461 C106.1727,217.4551 116.2617,215.7401 125.7387,213.7941 C135.3347,211.8261 145.0957,210.4041 154.8277,209.2901 C164.5467,208.1801 174.3367,207.3961 184.0997,206.7731 C189.3037,206.4391 194.5127,206.1641 199.7227,205.9251 Z M170.1894,80.204 L170.832946,79.7729294 C177.901331,75.1058476 188.057997,70.6120149 196.2024,74.155 C196.6624,74.355 197.0514,74.616 197.3894,74.916 C199.3884,74.955 201.4004,75.121 203.4184,75.425 C219.3614,77.828 234.0934,88.291 241.2964,102.696 C249.4834,119.069 245.5944,136.323 231.1074,147.459 C223.9894,152.93 215.6244,156.869 206.6194,157.757 C203.6754,158.047 200.5554,158.104 197.7294,157.212 C199.0674,160.06 200.0854,163.037 200.6094,166.177 C202.4024,176.927 198.1384,185.791 188.1254,190.433 C179.3264,194.514 167.1484,196.078 158.4464,190.927 C151.0904,186.575 153.4994,172.167 163.1784,173.458 C169.7124,174.329 175.6024,176.51 182.0594,173.724 C187.3224,171.455 184.1294,163.796 182.5434,159.767 C179.890224,153.033824 175.985393,146.694834 172.818966,140.157266 L172.2344,138.929 C170.2434,134.666 167.7704,130.162 165.8774,125.568 C164.8354,130.964 162.9664,136.259 160.7644,141.161 C155.5384,152.793 145.4224,159.91 133.3694,163.243 C120.9774,166.668 106.4344,167.463 93.6584,167.042 C80.6644,166.615 66.9844,163.21 57.4774,153.792 C40.0614,136.539 45.0634,106.353 63.3904,91.932 C75.2454,82.603 91.9494,76.21 107.2894,77.866 C114.9734,76.137 123.5674,77.119 131.2554,78.861 C141.6574,81.218 151.5884,86.263 158.3884,94.298 C158.8924,93.034 159.4744,91.823 160.1404,90.667 C159.8404,90.529 159.6544,90.085 159.9504,89.819 C160.4924,89.332 161.0494,88.865 161.6064,88.397 C163.8214,85.291 166.6824,82.586 170.1894,80.204 Z M44.1714,161.0659 C43.5454,160.1779 44.7694,159.0259 45.6474,159.5909 C52.8414,164.2299 60.3724,168.4469 68.6214,170.9049 C76.6794,173.3059 85.0564,173.0579 93.1504,175.1099 C96.1924,175.8809 95.7094,179.8359 93.1504,180.8049 C84.2424,184.1809 74.1914,181.3479 65.7284,177.7649 C57.1424,174.1309 49.5844,168.7259 44.1714,161.0659 Z M92.4534,86.96 L92.6684,86.701 L92.6684,86.701 L92.1454,86.875 L92.1454,86.875 C82.0634,90.269 73.7614,95.865 67.0134,104.034 C55.5134,117.955 55.3764,140.09 72.5724,149.498 C81.8434,154.569 92.7874,154.808 103.0814,154.271 L105.16324,154.159625 C114.200145,153.661342 123.422186,152.922 132.1424,150.478 C141.6534,147.812 148.2614,142.064 151.9004,132.801 L152.202526,132.019828 C155.832456,122.485535 157.72276,111.882573 150.9834,103.253 C139.5674,88.636 113.1884,85.716 96.8844,92.703 C92.9794,94.376 89.8454,90.293 92.4534,86.96 Z M197.0854,83.038 C196.8144,83.302 196.5244,83.543 196.2024,83.738 C192.9294,85.701 189.2484,85.721 185.6204,86.621 C182.2784,87.45 179.0074,88.462 175.9314,90.027 C171.0994,92.482 166.1164,95.419 161.5484,98.622 C162.5274,100.186 163.4034,101.837 164.1544,103.585 C166.2284,108.416 166.9274,113.503 166.7094,118.611 C169.8924,121.365 172.5534,124.79 175.3704,127.885 L177.85527,130.618364 C180.753202,133.815136 183.631844,137.047667 186.3284,140.403 C187.9314,142.397 189.5584,144.439 191.1214,146.541 C191.3264,145.914 191.6154,145.3 192.0204,144.717 C193.5434,142.521 195.8944,141.412 198.5814,142.047 C200.9334,142.605 202.5054,143.669 204.9624,143.685 C207.9714,143.705 210.8714,143.057 213.7194,142.128 C219.3174,140.302 224.8034,137.021 228.8974,132.771 C238.1374,123.176 233.2624,109.655 226.0544,100.515 C218.7534,91.256 208.2684,85.244 197.0854,83.038 Z M114.7933,106.0842 C117.7593,105.2282 122.1723,106.5782 123.4773,109.6182 L124.4133,111.8312 C124.3843,111.7652 124.3613,111.7142 124.3343,111.6542 C124.6653,112.4382 124.9823,113.1952 125.2363,113.9992 L126.1133,114.6792 L126.1133,114.6792 C126.8623,115.5102 127.5553,116.3872 128.1913,117.3122 C129.6953,119.8822 130.1313,123.1732 129.3613,126.0532 C128.0903,130.8122 123.7203,133.8672 118.8723,133.896639 C104.6813,133.9802 101.2033,110.0082 114.7933,106.0842 Z M200.4034,101.7768 C206.9604,101.4838 211.3274,107.2748 211.8504,113.2238 C212.1484,116.6098 211.4634,120.3118 210.4924,123.5498 C209.0444,128.3808 204.4404,131.4078 199.4764,130.7418 C195.5254,130.2108 192.0354,127.2068 191.0504,123.3458 C189.7524,120.1618 189.0194,116.6588 188.9564,113.2238 C188.8364,106.8098 194.2964,102.0498 200.4034,101.7768 Z M113.8751,48.2473 C120.5251,47.1753 126.8781,50.4073 127.8451,57.5543 C128.8191,64.7633 123.5101,69.5273 116.8511,70.2353 C104.2971,71.5693 91.4791,71.8863 78.8651,72.4373 C73.6039571,72.6661571 68.336202,72.7635041 63.0700213,72.8099472 L60.4371,72.8293 C55.5391,72.8583 49.1521,73.8253 44.7261,71.4143 C44.4381,71.2583 44.4491,70.9033 44.6321,70.6793 C47.7422389,66.8497167 54.1729218,65.2177606 58.7697017,63.5310609 L59.1591,63.3863 C64.9781,61.1913 70.8621,59.1363 76.8241,57.3573 L79.8536596,56.4585454 C90.9924264,53.1778972 102.45435,50.0916333 113.8751,48.2473 Z M156.0878,44.741 C160.1978,43.196 164.2538,44.159 167.0488,46.772 C176.39605,49.3744167 186.01555,51.3684722 195.42358,53.6468918 L197.9838,54.276 C209.7778,57.219 222.7378,59.487 233.7058,64.882 C234.8698,65.455 234.1378,66.941 233.1138,67.066 C220.8958,68.55 207.7328,66.191 195.5858,64.771 C183.1408,63.316 170.6328,60.916 158.1508,59.976 C149.1918,59.301 147.8898,47.824 156.0878,44.741 Z" id="ðŸ–-Ink" fill="#000000"/>
    </g>
</g></g><g transform="translate(210, 310)"><g>
    <!-- Generator: Sketch 62 (91390) - https://sketch.com -->
    <title>accessories/* None</title>
    <desc>Created with Sketch.</desc>
    <g id="accessories/*-None" stroke="none" stroke-width="1" fill="none" fill-rule="evenodd"/>
</g></g>
          </g>
        </g>
      </svg>