<svg id="avatar-svg" transform="translate(-40, 0)" width="380" height="380" class="path1" viewBox="0 0 700 700" fill="none" stroke="black" strokewidth="0.8" strokelinecap="round" strokelinejoin="round" xmlns="http://www.w3.org/2000/svg">
        <style>
          @media (prefers-reduced-motion){.path1{animation:none!important;stroke-dasharray:unset!important}}@media print{.path1{animation:none!important;stroke-dasharray:unset!important}}@keyframes grow{0%{stroke-dashoffset:1px;stroke-dasharray:0 1000px;opacity:0;fill-opacity:0}10%{opacity:1;fill-opacity:0}60%{stroke-dasharray:1000px 0;fill-opacity:1;stroke-opacity:0}to{stroke-dasharray:1000px 0;fill-opacity:1;stroke-opacity:0}}.path1 g g path{stroke-dashoffset:1px;stroke-dasharray:1000px 0;animation:grow 7s linear forwards;transform-origin:center;stroke:#a2a0a0;stroke-width:10px;animation-delay:0s}
        </style>
        <g>
          <g>
            <g transform="translate(0, 550)">
    <!-- Generator: Sketch 62 (91390) - https://sketch.com -->
    <title>body/mono/Blazer Black Tee</title>
    <desc>Created with Sketch.</desc>
    <g id="body/mono/Blazer-Black-Tee" stroke="none" stroke-width="1" fill="none" fill-rule="evenodd">
        <path d="M735.5557,227.4311 C721.6747,161.6691 672.4462,110.6393 606.2382,85.2183 C593.511715,78.0202542 581.175188,47.1344458 564.071541,41.4781328 C561.329824,40.5714251 565.657383,47.7873642 564.071541,48.2183 C558.415081,49.7553838 552.077171,49.9158903 545.831904,44.365067 C534.670211,34.4445006 531.168486,5.46126669 524.382121,-7.638195 C488.591121,-76.724195 399.2287,-49.6929 387.2567,26.6801 C378.90907,32.1209948 367.108607,36.9139984 358.022001,41.2984194 C348.665224,45.8132011 340.434796,56.7485003 330.792249,60.6580966 C322.188649,64.146449 308.012387,61.6752413 299.342989,64.7163092 C259.468912,78.7034139 225.696784,96.3526332 199.2197,132.1121 C193.6407,139.6541 187.3517,148.9261 182.2747,156.5451 C156.1007,186.6761 137.9207,220.4481 121.1767,256.6811 C74.3307,363.0321 61.5887,480.7861 50.1567,595.3721 C50.4167,615.4211 37.1127,671.0151 56.7897,680.6271 C55.6137,681.8461 56.0397,684.2951 58.2217,684.2741 C108.1147,683.7701 157.8917,688.2351 207.0107,696.9161 C230.7097,701.1051 254.2817,706.8491 278.4217,707.7931 C328.5327,707.4471 378.4637,699.0501 428.5087,706.9961 C488.670929,706.9961 561.786485,705.24306 628.716211,702.670144 C691.268626,700.265501 754.156241,705.69641 815.9337,695.0591 C820.8237,694.2851 823.2117,688.3211 822.1867,684.0471 C814.9387,657.6371 811.3807,630.4551 807.3137,603.4241 C808.1237,586.0861 806.6747,567.9861 800.2607,551.8371 C783.5027,442.8191 762.0137,334.5121 735.5557,227.4311 Z" id="ðŸŽ¨-Background" fill="#FFFFFF"/>
        <path d="M715.3684,370.7279 C714.0484,377.1379 712.1984,383.5479 709.7384,389.6189 C707.3684,395.4779 703.7984,400.7279 701.3394,406.5179 C701.0094,407.2979 700.4694,407.8879 699.8184,408.3379 L700.021275,409.9129 L700.021275,409.9129 L700.2084,411.4879 C701.434971,422.116471 702.814359,432.715655 704.009024,443.342757 L704.5894,448.6589 C706.9384,470.8479 710.6484,492.9279 713.5284,515.0579 C716.3484,536.7279 719.2194,558.3979 722.2884,580.0379 C725.4584,602.3479 728.6884,624.6279 732.4584,646.8479 C734.050067,656.232067 735.711178,665.608594 737.441733,674.977483 L738.7784,682.1479 C752.5384,685.4579 756.2984,704.6379 742.2884,711.7179 C735.9294,714.9179 727.7594,714.1479 722.5184,709.1189 C717.072159,703.877789 716.846073,694.426068 715.582089,687.327168 L714.364434,680.73046 C705.25311,631.126876 697.34536,580.9519 693.6484,530.6479 C692.6984,517.6589 691.8984,504.6589 691.3784,491.6479 C690.884317,479.4104 691.120435,467.17374 690.931372,454.93561 L690.8684,451.5979 C690.5794,438.5479 690.8184,425.5179 691.1584,412.4679 C691.1984,410.8779 691.2684,409.2879 691.3484,407.6879 C690.8894,407.1479 690.5584,406.5079 690.4194,405.8879 L690.2384,405.0679 C689.7884,402.9579 690.2984,400.4879 691.9194,398.9779 C692.6184,390.0879 693.5384,381.2079 693.7884,372.3279 C693.8084,371.5979 694.8584,371.6189 694.9194,372.3279 C695.5094,379.8879 696.6884,387.4679 697.8684,395.0379 C705.4584,388.9379 711.0684,378.8779 714.3784,370.4579 C714.6184,369.8479 715.5094,370.0679 715.3684,370.7279 Z M535.7882,17.3073 C537.0482,23.0673 539.5382,28.2383 542.8782,33.0483 C544.4692,35.3483 546.2782,37.4883 548.4482,39.2783 C550.3092,40.8073 552.4292,41.8073 554.4082,43.1383 C557.2882,42.6873 560.2982,43.7783 562.3182,45.8973 L561.9992,42.7983 C561.8982,41.7983 563.5592,41.5983 563.7492,42.5673 C572.497825,86.6889667 580.476828,130.839104 587.383444,175.279992 L590.410835,194.905769 L593.259399,213.330245 C597.989063,244.031936 602.564015,274.721374 606.0092,305.6473 C610.5992,346.9183 614.4582,388.2983 617.2782,429.7373 C620.1082,471.4683 621.8492,513.2273 623.0892,555.0383 C623.3982,565.5783 623.7292,576.1083 624.0482,586.6473 L626.184231,574.046628 C628.316012,561.4433 630.40645,548.8283 632.1982,536.1683 C638.6282,490.8583 643.7692,445.2273 646.2782,399.5283 C648.5792,357.7083 647.8092,315.0583 637.1692,274.3173 C634.4882,264.0673 631.2082,253.9773 627.2492,244.1473 C623.4082,234.5883 618.1692,225.7273 614.0382,216.3083 C609.2382,205.3483 607.7982,195.0083 610.2692,183.2083 C612.4292,172.9283 616.2192,163.2583 616.8982,152.6783 C618.1692,133.0383 611.7782,114.0173 602.7492,96.8283 C600.3682,92.2983 597.8582,87.8283 595.2382,83.3973 C587.3092,70.0083 578.3682,57.1073 569.0892,44.7383 C568.5892,44.0783 569.6482,43.3483 570.1892,43.8883 C578.6482,52.2483 587.8982,60.4683 595.5092,69.5983 C599.2082,74.0383 602.8182,78.5673 606.2382,83.2183 C643.7592,89.4883 675.9992,112.8573 698.0382,143.7183 C723.0482,178.7383 735.6982,220.8883 745.0592,262.3973 C755.4692,308.5283 764.2492,355.0783 773.5992,401.4373 C783.2782,449.4083 792.9082,497.3783 802.6482,545.3383 C807.4882,569.1473 812.3292,592.9583 817.1582,616.7783 C819.6082,628.8383 822.1792,640.8683 824.8682,652.8883 C826.2492,659.0483 827.7292,665.1983 829.0092,671.3783 C830.4482,678.3483 829.1082,682.8073 824.3892,687.9283 C822.6482,689.8283 819.8982,689.7983 817.7382,688.7883 L817.062965,688.470366 L816.410344,688.155257 C813.737583,686.841723 811.642131,685.480576 809.9792,682.5573 C808.1482,679.3483 807.8582,675.7883 807.2292,672.2183 C806.0682,665.6473 804.9192,659.0783 803.7592,652.4983 C802.02595,642.6583 800.141387,632.846425 798.223216,623.036941 L788.59945,574.01405 C786.0332,560.9428 783.4632,547.8728 780.8782,534.8083 C771.6482,488.0883 762.4082,441.3783 753.1692,394.6683 C744.2982,349.8173 736.4482,304.6583 726.3492,260.0673 L725.775021,257.555221 L725.191082,255.046498 C716.16044,216.606182 703.542783,179.42205 680.6482,146.8483 C663.0282,121.7983 638.5592,99.4283 609.7382,88.1073 C611.7692,91.0283 613.7192,94.0083 615.5792,97.0483 C627.2592,116.1283 635.7882,138.7783 633.7882,161.4983 C632.8092,172.5983 628.5892,183.5083 628.9882,194.6983 C629.3582,204.6383 635.5092,213.3683 639.7592,222.0173 C649.4082,241.6183 656.3892,262.4483 660.8892,283.8173 C669.9192,326.7273 669.8892,370.8783 666.7782,414.4373 C663.3982,461.7883 656.9792,509.1283 649.6692,556.0173 C645.9192,580.0673 640.9292,603.9183 637.1082,627.9283 C635.2192,639.7673 632.6482,651.5783 630.3982,663.3583 L629.325867,668.986337 C628.725496,672.109732 628.102595,675.223045 627.383089,678.303299 L626.9392,680.1473 L626.9392,680.4773 C626.9192,682.7483 626.2982,684.6283 625.2982,686.1283 C623.9292,690.5173 622.2292,694.7983 619.9692,698.9083 C618.8092,701.0083 617.1282,702.1873 615.2982,702.6183 C613.4582,706.8283 609.2882,710.0673 604.3092,710.048547 L538.8182,709.7983 C500.7782,709.6473 462.7382,709.3973 424.6982,709.1873 C415.0992,709.1383 405.5092,708.9583 395.9192,708.7083 C386.9292,708.4583 378.3092,707.3783 369.4192,706.2583 C359.3782,704.9983 353.9392,697.8883 355.4392,687.8583 C355.7692,685.6473 356.1282,683.4483 356.4692,681.2483 C354.4692,681.9083 352.0892,681.5983 350.4792,680.0283 L348.969756,678.551028 C346.877397,676.481146 345.00601,674.448586 343.6792,671.6873 C342.3092,668.8483 341.1982,665.8483 339.9882,662.9483 C337.3782,656.7083 334.8392,650.4483 332.3682,644.1583 C327.4192,631.5783 322.4692,618.9483 317.8682,606.2373 C308.7592,581.0673 300.6982,555.5173 293.6892,529.6783 C281.1892,483.5783 272.1482,436.5883 266.4482,389.1783 L265.085418,377.87879 L264.689166,374.541048 C262.527675,356.165431 260.708577,337.504547 261.5682,319.1683 C262.0992,307.6873 263.8782,296.1183 268.1692,285.3973 C272.1282,275.5083 278.2382,267.0483 284.0482,258.2083 L284.713058,257.187877 L285.381472,256.142578 C290.46261,248.113366 294.505635,239.71906 294.7082,229.9683 C294.913497,220.073165 292.030736,210.443099 288.80753,201.179423 L288.004202,198.894816 L287.465033,197.3827 C280.608045,178.236875 272.80465,159.3618 275.3782,138.5283 C279.1792,107.8483 297.7782,83.1183 321.1792,64.0483 C300.3682,68.1683 279.7692,76.3073 261.5892,86.6283 C240.1182,98.8283 220.7882,114.9283 204.1182,133.0983 C172.6182,167.4373 150.1282,208.6383 131.7192,251.1783 C112.4482,295.6983 98.1582,342.3483 87.3892,389.6083 C76.5592,437.1383 69.3092,485.4283 64.3582,533.9083 C61.8892,558.0383 59.9482,582.2273 58.3392,606.4283 C57.5192,618.8283 56.8992,631.2483 55.9392,643.6283 C54.9792,655.9983 54.5482,668.5573 51.5282,680.5983 C50.1182,686.2083 40.6082,686.7783 39.5892,680.5983 C37.3277294,666.796535 37.9597483,652.52375 38.590905,638.547985 L38.6482,637.2783 C39.2692,623.3583 40.0792,609.4483 41.0382,595.5383 C42.9992,567.1083 45.6182,538.7183 49.0382,510.4183 C61.0282,411.0783 83.1392,312.2583 126.5092,221.5783 C146.9292,178.8683 173.1392,137.3683 209.5992,106.5283 C226.9582,91.8573 246.5282,80.1473 267.6182,71.6683 C286.4792,64.0783 305.6392,60.4883 325.6792,60.4983 C335.7292,52.7983 346.5192,46.0883 357.2982,40.3573 C357.9482,40.0083 358.6282,40.8483 358.0892,41.3883 C357.8092,41.6583 357.5382,41.9373 357.2592,42.1983 C358.4792,42.2783 359.7382,42.8483 360.8682,44.0383 C364.8292,48.1873 368.1692,53.3783 371.1582,58.7673 C375.7082,64.4483 380.0482,70.3173 384.5892,75.9373 C391.8582,84.9373 399.2982,93.8073 406.8292,102.6073 C419.476568,117.396668 432.535893,131.906015 446.154269,145.831792 L448.4292,148.1473 C455.4882,155.2983 462.6392,163.8573 470.9882,169.5173 L471.433962,169.813803 C474.956478,172.108706 477.45436,172.5255 480.4582,169.0983 C483.189129,165.9783 485.462205,162.358198 487.798657,158.918551 L488.3392,158.1283 C500.2692,140.7983 511.3292,122.8283 521.3392,104.3283 C525.901927,95.9092091 530.24234,87.3678041 534.36044,78.7318838 L535.5892,76.1383 C537.8292,71.3783 540.2592,66.7083 542.1082,61.8073 C542.5382,60.6583 542.9582,59.5083 543.3682,58.3683 C537.0682,54.2383 532.1892,45.2983 530.4192,38.2983 C528.5792,31.0283 529.5092,23.5673 532.7882,16.9183 C533.4082,15.6683 535.4882,15.9773 535.7882,17.3073 Z M225.000123,312.7375 C224.1283,340.3785 223.5993,368.0485 222.2983,395.6685 L221.8493,405.0975 C223.8783,407.3585 225.0683,409.9675 224.1183,413.5485 C223.7493,414.9185 222.6583,416.1585 221.2983,416.6185 L220.874286,425.385375 C218.944411,464.830129 216.682093,504.192983 212.5483,543.5385 C207.3783,592.7785 201.3983,641.9375 195.4293,691.0885 C194.5793,698.0485 189.7383,703.5675 182.2083,702.5485 C174.5893,701.5175 171.4993,694.8875 172.4993,687.9775 C176.4293,660.8685 180.2083,633.7375 183.5193,606.5385 L187.289211,575.549661 C192.016433,536.812569 196.854826,498.081447 202.4293,459.4675 C204.7593,443.3285 207.1793,427.1985 209.6083,411.0675 L208.7593,409.9675 C205.2883,405.4585 201.6983,401.0485 198.1483,396.6085 C191.3293,388.0485 184.5993,379.5575 178.3493,370.5975 C178.0383,370.1475 178.6693,369.4875 179.1183,369.8285 C187.8783,376.2985 196.1693,383.2175 204.5093,390.2485 L211.8093,396.4275 C216.0093,368.5575 220.1693,340.6775 223.8783,312.7375 C223.9693,312.0385 225.0193,311.9875 225.000123,312.7375 Z M351.0092,48.2183 C345.7382,53.1873 340.3492,58.0483 335.0382,62.9883 L333.092886,64.8063705 L331.156569,66.632809 C321.822935,75.4840025 312.880442,84.6976939 305.4292,95.2783 C291.7492,114.7083 283.5992,138.3973 289.2882,162.1183 C294.0092,181.7673 304.8392,199.5783 307.7492,219.7183 C309.2082,229.8083 308.4992,239.9483 304.6982,249.4773 C300.8182,259.1983 294.6182,267.5283 289.0482,276.2983 C276.9482,295.3583 275.2982,316.2783 276.4992,338.3583 C277.7592,361.4183 280.4082,384.4873 283.6792,407.3383 C290.2982,453.6383 300.2782,499.4583 313.4882,544.3283 C320.0992,566.7983 327.9082,588.7883 335.6792,610.8683 C339.5482,621.8583 344.0592,632.5883 348.7082,643.2673 C351.1582,648.8883 353.6692,654.4773 356.2192,660.0573 C355.2782,652.1783 355.2782,644.0883 354.8182,636.2583 C354.1582,625.0383 353.3182,613.8383 352.5482,602.6283 C350.9792,579.8783 349.5792,557.1083 348.3292,534.3383 C343.8992,453.1383 340.6392,371.8683 340.8782,290.5383 C340.9992,249.8683 341.8292,209.1983 343.5792,168.5673 C344.3996,149.433967 345.98832,130.318927 347.424189,111.212424 L347.7292,107.1183 C348.9992,89.9683 350.5192,72.7783 353.1282,55.7783 C352.355756,54.0351889 351.685237,52.2699543 351.18758,50.4594193 L351.0092,49.7783 L351.1392,49.7983 C351.0192,49.2673 350.9792,48.7383 351.0092,48.2183 Z M396.5894,-21.6619 C396.6984,-22.1319 397.3684,-22.0919 397.4884,-21.6619 C400.4584,-11.6619 399.4084,-0.6619 396.8494,9.3981 C395.4694,14.8481 393.5094,20.1381 391.1394,25.2381 L390.31003,27.0228656 C388.279392,31.3662726 385.992945,35.8414333 382.0384,38.5481 C380.3894,39.6781 377.4384,39.7481 375.7884,38.5481 L374.946919,37.9095815 C374.8084,37.8014333 374.671733,37.6914333 374.5384,37.5781 C372.9994,36.2881 372.2384,33.4381 372.9484,31.5581 C374.7784,26.7081 378.9294,23.1481 381.7984,18.8281 C384.3394,14.9881 386.5894,10.9381 388.4584,6.7281 C392.4884,-2.3819 394.2984,-12.0519 396.5894,-21.6619 Z" id="ðŸ–-Ink" fill="#000000"/>
    </g>
</g><g transform="translate(200, 50)">
    <!-- Generator: Sketch 62 (91390) - https://sketch.com -->
    <title>head/mono/Medium 1</title>
    <desc>Created with Sketch.</desc>
    <g id="head/mono/Medium-1" stroke="none" stroke-width="1" fill="none" fill-rule="evenodd">
        <path d="M195.395558,82.6720788 C346.965479,75.2183452 357.551668,119.271611 378.365264,147.356837 C388.694346,161.294583 415.36224,181.93629 419.786376,229.602142 C422.857417,262.689688 403.308238,300.826871 403.308238,330.393336 C403.308238,345.485177 421.786376,377.885575 413.184129,399.881894 C394.037459,448.840758 353.497414,503.176 301.837107,503.176 C250.1768,503.176 154.814935,474.704319 97.7325351,392.972519 C79.0353378,366.201473 43.8256361,90.1258123 195.395558,82.6720788 Z" id="ðŸŽ¨-Background" fill="#FFFFFF"/>
        <path d="M416.009341,333.345332 C412.699341,329.695332 410.129341,326.695332 409.269341,321.675332 C408.909341,319.584332 408.749341,317.435332 408.679341,315.275332 C421.969341,296.695332 434.889341,252.808332 434.889341,228.804332 C434.889341,194.939332 422.399341,162.355332 401.899341,135.405332 C361.939341,82.9143323 295.419341,56.0043323 230.319341,58.1153323 C167.979341,60.1243323 101.671341,83.1043323 62.7833414,132.226332 C-66.2406586,295.201332 42.0473414,473.217332 121.359341,510.254332 C128.263341,513.478332 150.561341,512.358332 147.454341,505.473332 C138.530341,485.694332 131.499341,449.265332 129.859341,441.064332 C132.399341,442.775332 134.959341,444.445332 137.529341,446.175332 C142.079341,449.224332 148.179341,452.714332 153.899341,451.704332 C154.169341,451.655332 154.339341,451.365332 154.349341,451.115332 C154.609341,445.744332 150.769341,440.224332 147.389341,436.394332 C142.699341,431.074332 138.239341,425.624332 133.189341,420.634332 C131.039341,418.504332 128.859341,416.394332 126.679341,414.284332 C126.399341,401.624332 127.249341,388.905332 129.519341,376.175332 C133.449341,354.105332 140.229341,332.605332 148.019341,311.445332 C154.529341,306.644332 160.849341,301.595332 166.699341,296.074332 C180.789341,282.784332 191.539341,266.525332 200.759341,249.425332 C200.869341,249.374332 200.989341,249.314332 201.099341,249.265332 C218.969341,240.954332 236.689341,232.325332 254.269341,223.425332 C263.339341,218.834332 272.349341,214.134332 281.359341,209.435332 C286.259341,206.874332 291.309341,204.544332 296.319341,202.134332 C294.969341,209.054332 293.149341,215.874332 290.939341,222.584332 C289.119341,228.095332 294.679341,232.164332 299.599341,231.254332 C316.349341,228.155332 332.539341,221.925332 347.109341,213.105332 C354.329341,208.735332 361.199341,203.685332 367.569341,198.144332 C373.939341,207.634332 381.679341,216.534332 389.489341,224.195332 C394.759341,229.365332 400.269341,234.284332 405.989341,238.945332 C403.399341,256.775332 401.179341,274.644332 398.369341,292.435332 C396.899341,301.735332 395.129341,311.034332 394.019341,320.384332 C392.809341,330.574332 396.179341,337.834332 402.889341,345.284332 C412.269341,355.695332 412.259341,370.754332 408.669341,383.685332 C408.229341,385.284332 407.679341,386.845332 407.109341,388.394332 C406.989341,388.714332 406.639341,389.584332 406.509341,389.925332 C406.509341,389.935332 406.509341,389.945332 406.499341,389.964332 C406.499341,389.974332 406.489341,389.985332 406.489341,389.994332 C406.479341,389.994332 406.479341,390.004332 406.469341,390.015332 L406.469341,390.034332 L406.469341,390.044332 L406.459341,390.054332 C406.039341,391.034332 405.589341,391.994332 405.139341,392.954332 C403.089341,397.284332 400.799341,401.515332 398.419341,405.675332 C386.719341,426.214332 371.939341,445.004332 355.099341,461.584332 C347.259341,469.304332 339.109341,476.485332 329.899341,482.365332 C327.959341,483.595332 325.979341,484.784332 323.949341,485.874332 C322.859341,486.464332 321.739341,487.015332 320.619341,487.574332 C318.979341,488.384332 319.659341,488.064332 318.659341,488.464332 C316.849341,489.175332 314.999341,489.794332 313.109341,490.284332 C312.099341,490.544332 311.079341,490.765332 310.049341,490.954332 C310.039341,490.954332 310.019341,490.964332 309.989341,490.964332 C309.979341,490.964332 309.969341,490.974332 309.959341,490.964332 C309.949341,490.974332 309.929341,490.974332 309.909341,490.974332 C309.529341,491.004332 308.849341,491.064332 308.719341,491.064332 C294.359341,491.115332 280.119341,489.185332 266.219341,485.615332 C258.689341,483.675332 251.169341,481.324332 244.089341,478.095332 C240.489341,476.445332 236.969341,474.615332 233.599341,472.544332 C232.089341,471.615332 230.659341,470.494332 229.069341,469.685332 C226.689341,468.464332 224.359341,468.595332 221.789341,468.485332 C217.869341,468.324332 215.089341,472.425332 216.049341,476.025332 C217.219341,480.414332 219.059341,483.004332 222.839341,485.615332 C225.859341,487.695332 229.059341,489.534332 232.319341,491.204332 C239.419341,494.855332 246.929341,497.824332 254.529341,500.254332 C268.759341,504.794332 283.739341,507.584332 298.639341,508.605332 C309.489341,509.345332 318.889341,507.894332 328.769341,503.324332 C339.199341,498.494332 348.549341,491.284332 357.199341,483.804332 C376.569341,467.064332 393.419341,446.754332 407.709341,425.564332 C421.139341,405.644332 431.559341,383.954332 428.129341,359.224332 C426.759341,349.304332 422.719341,340.765332 416.009341,333.345332" id="ðŸ–-Ink" fill="#000000"/>
    </g>
</g><g transform="translate(320, 250)"><g>
    <!-- Generator: Sketch 62 (91390) - https://sketch.com -->
    <title>face/Cute</title>
    <desc>Created with Sketch.</desc>
    <g id="face/Cute" stroke="none" stroke-width="1" fill="none" fill-rule="evenodd">
        <path d="M177.5335,205.3371 C180.9645,199.2831 191.2025,200.2671 192.7675,207.3281 C195.9425,221.6421 178.8735,234.8601 165.9095,235.1901 C153.0265,235.5171 138.5715,224.5521 140.4365,210.7021 C140.8975,207.2761 145.4735,207.6921 147.0335,209.8401 L147.639154,210.664134 C151.876221,216.356303 157.466992,222.247946 165.3305,220.8601 C168.5895,220.2861 171.5495,218.2501 173.5195,215.6291 C175.8955,212.4661 175.6345,208.6891 177.5335,205.3371 Z M95.6148,100.6165 C97.3608,100.1355 99.1228,100.3215 100.6698,100.9795 C104.1238,101.6125 107.0088,104.4925 108.0228,107.7805 C108.1028,108.065167 108.192133,108.346278 108.290504,108.624426 L108.4448,109.0395 L108.0308,107.9855 C108.2218,109.0235 109.0668,110.1145 109.3708,111.1565 C109.7448,112.4375 109.8358,113.8925 109.7098,115.3025 C110.8078,115.3135 111.9058,115.3505 113.0018,115.4455 L114.060904,115.540412 C119.98388,116.090875 126.486479,117.100575 129.9978,122.2185 C131.9698,125.0945 130.1188,130.2725 126.4958,130.8265 C120.9188,131.6795 116.1148,128.5935 110.5568,127.9755 C105.3028,127.3905 99.8048,127.7255 94.6188,128.6745 C83.91192,130.63194 74.0731872,134.971716 63.6392483,137.694821 L62.2188,138.0555 L62.2188,138.0555 L62.2208,138.0485 C60.4328,138.4805 58.4028,135.9945 60.1718,134.5405 C68.5308,127.6735 79.2328,122.1085 89.7758,118.7195 C88.2398,116.2765 87.7648,113.0585 88.8148,110.4355 C88.9774,109.8919 89.17924,109.36342 89.392024,108.836452 L89.8358,107.7525 L89.8358,107.7525 C89.8788,107.2415 89.9768,106.7365 90.1188,106.2415 L90.1418,106.0905 L90.1418,106.0905 L90.1548,106.0995 L90.1548,106.0995 C90.9398,103.5485 92.9898,101.3405 95.6148,100.6165 Z M202.2598,101.0113 C204.546011,98.7241158 207.758477,99.0621123 210.144209,100.862169 L210.4608,101.1103 L210.4608,101.1103 C212.7098,102.1093 214.5708,104.2923 215.7928,106.3153 C217.0618,108.4163 217.9048,110.5563 217.9378,112.8693 C223.4718,112.8873 228.7728,114.5473 232.8358,119.0153 C234.1478,120.4573 235.0438,122.6813 234.3218,124.6363 L233.8918,125.7993 L233.8918,125.7993 C232.527456,129.491691 226.393723,131.617218 224.308978,127.274981 L224.2128,127.0633 C221.9978,121.9073 213.4948,122.4483 208.9758,122.9753 C205.8258,123.3443 202.7148,124.1273 199.6728,125.0043 C198.60105,125.3133 197.538863,125.648737 196.4778,125.991206 L195.4168,126.3353 C194.8508,126.5183 191.9028,128.1193 193.7368,127.7403 C194.2298,127.6383 194.6008,128.3563 194.0978,128.5973 C191.9118,129.6423 189.5798,127.5613 189.7258,125.2133 C189.97864,121.13748 196.45103,118.902747 199.565401,117.497319 L199.7518,117.4123 C200.9458,116.8603 202.1968,116.3313 203.4878,115.8403 C202.7618,114.7603 202.1618,113.5603 201.6628,112.2723 C201.1908,111.0563 200.8758,109.8743 200.7028,108.5813 C200.5328,107.9493 200.5328,107.3173 200.7028,106.6843 L200.7288,106.5033 L200.7288,106.5033 C200.6408,106.0853 200.5988,105.6533 200.6048,105.2183 L200.5868,105.0493 L200.6048,105.0493 C200.6658,103.5263 201.2708,102.0003 202.2598,101.0113 Z M165.7316,144.4161 C174.5146,147.1301 189.0046,154.5231 184.4276,165.9341 C178.0366,176.4141 161.0876,168.7121 152.8746,165.3261 C145.4956,162.8821 141.6536,173.2231 148.7886,176.3401 C207.7476,199.6651 207.5306,138.1061 167.8696,139.0101 C163.5026,139.1091 163.3656,143.5141 165.7316,144.4161 Z M87.7267006,64.1488907 L89.2249,63.7117 C97.0099,61.4567 104.9569,57.5627 111.8689,63.6387 C114.5829,66.0247 115.1419,70.9827 113.1999,73.9587 C108.7759,80.7397 102.2149,79.7037 95.0699,80.2817 C89.6299,80.7217 84.2709,82.3197 79.1929,84.3167 C75.0429,85.9497 71.1939,88.2487 67.5599,90.8127 C63.9899,93.3337 61.5509,97.2747 57.8889,99.5437 C56.5469,100.3757 54.9969,99.5197 54.5149,98.1707 C52.8069,93.3857 55.6929,87.4247 58.1349,83.3477 C61.1159,78.3737 65.6439,74.3057 70.5129,71.2277 C75.8445923,67.8566231 81.7403556,65.9102089 87.7267006,64.1488907 L87.7267006,64.1488907 Z M201.1644,59.0001967 C214.3234,58.9962 226.9854,66.3152 234.3454,77.0442 C236.8464,80.6892 235.0134,86.0892 231.4234,88.1882 C227.395949,90.5440824 223.089759,88.8476771 220.435649,85.471752 L220.2784,85.2672 C216.0574,79.6462 210.6164,75.2192 204.1664,72.3372 C201.0194,70.9302 197.5394,69.7892 194.1354,69.2102 L193.035296,69.021688 C191.49344,68.76332 189.7048,68.5166 188.3104,68.7582 C187.5634,68.8562 186.8774,69.1032 186.2454,69.4792 C186.5494,70.1432 185.7644,70.9432 185.0394,70.5452 C181.7694,68.7492 182.1704,65.5452 184.8714,63.0552 C188.6924,59.5322 196.2294,59.0012 201.1644,59.0001967 Z" id="ðŸ–-Ink" fill="#000000"/>
    </g>
</g></g><g transform="translate(210, 310)"><g>
    <!-- Generator: Sketch 62 (91390) - https://sketch.com -->
    <title>accessories/Glasses 3</title>
    <desc>Created with Sketch.</desc>
    <g id="accessories/Glasses-3" stroke="none" stroke-width="1" fill="none" fill-rule="evenodd">
        <path d="M367.1336,98.3183 C360.4006,107.3633 347.9186,110.2443 336.4056,109.2493 C311.5746,106.8593 303.7596,78.6583 302.9456,56.7393 C319.5966,61.4233 301.5376,28.2493 358.4566,24.6013 C378.5216,22.9293 372.9896,35.0473 381.8546,43.9013 C381.6726,62.4833 378.5796,82.6743 367.1336,98.3183 M248.8626,76.9663 C234.2026,145.6193 153.9246,129.2893 145.4916,67.4033 C153.2786,61.9073 151.2276,48.3363 160.9016,43.4193 C176.2336,33.6233 195.3996,34.0423 212.8106,34.2723 C235.0656,35.8013 241.4076,45.0203 252.8396,55.0783 C252.2896,61.7963 250.7036,69.7583 248.8626,76.9663 M398.9346,13.2313 C398.1116,13.0943 397.2876,12.9653 396.4636,12.8443 C395.8206,12.4793 395.0656,12.1983 394.1876,12.0293 C392.1826,11.5203 390.1916,11.1773 388.2036,10.9923 C359.6716,4.5713 293.6646,13.6883 290.9406,38.0363 C281.8546,41.0693 273.9926,38.3533 263.4616,38.6233 C255.4456,5.1183 116.8626,9.8473 110.1976,30.0473 C110.1726,30.0403 110.1476,30.0343 110.1216,30.0263 C103.7176,28.0443 94.2766,28.5223 86.9466,28.2083 C71.2956,27.8803 55.6266,29.2753 40.3136,32.5763 C11.6386,37.1333 -27.4964,42.4683 -7.5534,78.2763 C-7.5494,78.2823 -7.5464,78.2893 -7.5414,78.2953 L-7.5384,78.2923 C-4.1014,81.8153 1.7316,78.9783 1.9486,74.2093 C-4.7564,57.2453 10.3876,55.2083 22.0396,50.3333 C51.0326,39.9173 80.5506,38.4733 110.5366,41.6953 C112.7926,44.3513 116.2156,46.6673 119.8336,47.8793 C139.8826,51.2073 129.3166,66.0793 141.9896,68.2423 C139.6616,120.0843 202.6026,148.3823 239.0716,114.3033 C253.6326,100.0673 257.1036,78.9783 260.4796,59.9693 C262.2646,59.5683 263.3996,58.5923 264.0626,57.3003 C268.3556,53.0143 271.0526,49.0563 279.5416,47.8793 C288.0306,46.7033 294.5656,49.0643 295.4496,49.7873 C295.6726,50.2363 295.9116,50.6863 296.1896,51.1363 C296.5776,51.8073 297.1056,52.3423 297.7056,52.7633 C289.3226,104.3873 329.3996,137.0353 369.8586,110.2603 C387.4386,93.7233 391.1536,68.4053 391.8876,45.8073 C394.2706,44.3693 395.7796,41.5823 394.9546,38.0783 C393.8176,33.2483 396.4836,29.0663 400.7296,26.9663 C406.2466,24.2393 405.2706,14.2803 398.9346,13.2313" id="ðŸ–-Ink" fill="#000000"/>
    </g>
</g></g>
          </g>
        </g>
      </svg>