<svg id="avatar-svg" transform="translate(-40, 0)" width="32" height="32" class="path1" viewBox="0 0 700 700" fill="none" stroke="black" strokewidth="0.8" strokelinecap="round" strokelinejoin="round" xmlns="http://www.w3.org/2000/svg">
        <style>
          @media (prefers-reduced-motion){.path1{animation:none!important;stroke-dasharray:unset!important}}@media print{.path1{animation:none!important;stroke-dasharray:unset!important}}@keyframes grow{0%{stroke-dashoffset:1px;stroke-dasharray:0 1000px;opacity:0;fill-opacity:0}10%{opacity:1;fill-opacity:0}60%{stroke-dasharray:1000px 0;fill-opacity:1;stroke-opacity:0}to{stroke-dasharray:1000px 0;fill-opacity:1;stroke-opacity:0}}.path1 g g path{stroke-dashoffset:1px;stroke-dasharray:1000px 0;animation:grow 7s linear forwards;transform-origin:center;stroke:#a2a0a0;stroke-width:10px;animation-delay:0s}
        </style>
        <g>
          <g>
            <g transform="translate(0, 550)">
    <!-- Generator: Sketch 62 (91390) - https://sketch.com -->
    <title>body/mono/Hoodie</title>
    <desc>Created with Sketch.</desc>
    <g id="body/mono/Hoodie" stroke="none" stroke-width="1" fill="none" fill-rule="evenodd">
        <path d="M790.7482,715.6861 C810.0742,714.7531 802.3012,680.9481 800.9142,668.5331 C785.6132,623.1891 789.2102,573.7171 783.1922,526.1891 C779.4432,481.8211 774.6262,437.5911 770.5742,393.2571 C762.6162,303.2631 705.469212,120.059244 640.2539,90.5956 C632.0389,54.5496 598.107994,20.901372 555.17806,20.901372 C525.89806,-13.757628 490.6552,-38.1499 445.4522,-33.2249 C426.7722,-32.3749 408.6564,-12.5629 390.7574,-8.7369 C380.7354,-7.3549 291.7952,-10.9119 273.9792,-0.3309 C261.5692,6.0411 250.3662,17.8161 254.0152,32.8071 C259.8372,50.9691 241.7442,31.3171 204.0012,50.7021 C127.037996,96.9252565 173.027996,158.761737 175.065996,160.677737 C127.037996,227.500737 85.0592,281.7131 65.6362,363.3901 C53.0482,424.0291 54.4652,486.6281 43.9182,547.5781 C40.1942,568.7121 34.4812,589.1231 28.2992,609.6461 C21.5992,636.5051 18.3413599,703.448771 14.6483599,704.046771 C7.92135995,705.717771 18.5362,719.5301 25.6642,719.5411 C223.2882,752.3221 424.0262,720.8991 622.7122,715.7651 C678.7052,713.8181 734.7582,713.3691 790.7482,715.6861 Z" id="ðŸŽ¨-Background" fill="#FFFFFF"/>
        <path d="M491.2195,166.5759 C491.3115,165.6709 492.5315,165.6729 492.6255,166.5759 L494.020749,180.045049 C495.718357,196.495124 497.352643,212.913186 498.5375,229.4399 C500.0145,250.0489 501.0025,270.6529 501.4785,291.3079 C503.1385,363.2449 503.4685,435.2199 503.6085,507.1749 C513.3395,506.5009 523.0715,505.8519 532.8085,505.2239 C539.4145,504.797233 546.020944,504.3879 552.62813,503.985233 L569.4755,502.96365 L569.4755,502.96365 L576.4115,502.5379 C581.0985,502.2479 586.4235,501.0679 589.7005,505.2199 C591.0125,506.8819 591.6705,509.0419 590.4475,511.0149 C587.6265,515.5659 583.2935,515.4069 578.3925,515.6039 C573.7685,515.7909 569.1445,515.9739 564.5205,516.1519 C554.6115,516.5369 544.7035,516.8999 534.7915,517.1779 C524.3895,517.4699 513.9925,517.7069 503.5945,517.8839 C503.489283,548.260422 502.232458,578.599136 500.873423,608.942125 L500.2585,622.5969 C498.5955,659.5229 496.8065,696.4809 494.2655,733.3579 C494.0565,736.3769 489.7855,736.3709 489.5785,733.3579 C486.7165,691.8289 484.8285,650.2109 482.9565,608.6259 C481.5985,578.4749 480.8085,548.3159 480.4325,518.1529 C479.0575,518.1619 477.6835,518.1809 476.3095,518.1859 C437.2825,518.3559 398.2655,518.5259 359.2385,518.1599 C359.3035,518.2369 359.3675,518.3139 359.4105,518.4159 C362.2345,525.0829 362.5035,533.5909 362.4345,540.7459 C362.3555,548.9519 361.2505,557.0579 359.3605,565.0379 C352.589102,593.626158 335.123452,619.231612 315.231016,640.401163 L314.5815,641.0899 C309.8895,646.0479 304.5065,651.0289 301.6255,657.3439 C298.682685,663.7919 297.661231,671.334111 296.209099,678.262314 L296.0395,679.0589 L290.3615,705.2849 C288.5575,713.6149 288.0455,725.7639 281.4515,731.7739 C275.2995,737.3819 267.1495,734.4529 264.2545,727.2329 C261.9935,721.5979 264.2455,715.4089 265.5845,709.7769 L276.075629,665.676866 C277.799475,658.485206 279.683086,651.246348 283.4035,644.7859 C287.2145,638.1689 292.8015,633.3719 298.5025,628.4639 C309.2975,619.1699 319.2075,608.5299 327.5885,597.0099 C335.9665,585.4939 343.1265,572.7999 348.1475,559.4519 C350.6615,552.7699 352.7215,545.8279 354.1425,538.8299 C355.4935,532.1889 355.4815,525.3109 356.9265,518.7409 C357.0255,518.2869 357.4085,517.9759 357.8475,517.8379 C357.7435,517.5449 357.9025,517.1489 358.3125,517.1229 L390.230043,515.071975 C418.601806,513.241718 446.972318,511.364627 475.3185,509.2199 L480.3275,508.8579 L480.3275,508.8579 C479.9385,468.6129 480.2685,428.3599 480.9955,388.0999 C481.6615,351.1809 481.6755,314.2519 482.7735,277.3379 C483.3195,259.0169 484.4965,240.7389 485.8065,222.4559 C487.1465,203.7579 489.2915,185.2179 491.2195,166.5759 Z M191.5274,380.641 C191.1874,378.591 193.7664,377.321 194.9554,379.196 C208.5464,400.618 215.0994,423.887 217.8614,448.956 C220.3014,471.081 219.5824,493.525 218.3674,515.708 C217.0714,539.368 215.5594,563.022 214.0304,586.669 L211.681275,622.932125 L211.681275,622.932125 L205.7864,713.841 C205.3644,720.344 203.8884,726.257 198.2894,729.28 C197.5804,729.872 196.8414,730.403 195.9804,730.863 C192.9554,732.48 188.9434,731.663 187.1944,728.559 L187.895672,729.020312 C188.50652,729.40492 187.8206,728.8678 185.8374,727.411 L184.1544,725.233 L184.1544,725.233 C182.9314,723.395 182.1504,721.588 181.8364,719.403 C181.3484,716.008 181.9804,712.284 182.2024,708.872 L186.0664,649.26 L186.0664,649.26 C189.0714,602.917 192.5804,556.587 195.2254,510.22 C196.4574,488.61 197.3204,466.979 196.7364,445.331 C196.1544,423.803 195.0574,401.91 191.5274,380.641 Z M309.101342,-18.4143305 L309.8554,-18.5409 C336.8504,-23.0249 366.2044,-22.1859 390.8754,-9.1729 C391.0794,-9.0659 390.9864,-8.7269 390.7574,-8.7369 L382.816512,-9.05403141 C357.677581,-10.038476 332.616495,-10.6211857 307.8984,-4.7149 L305.367982,-4.10534662 C296.466298,-1.93385652 287.170443,0.724013043 280.0204,6.6031 C273.1864,12.2231 269.7834,20.8921 266.5114,28.8731 L266.073791,29.9262992 C262.753965,37.8086229 258.551996,45.2841638 251.2754,50.2131 C241.8504,56.5961 230.5154,55.8141 219.7084,56.6811 C200.6804,58.2101 185.1234,72.0001 177.3834,88.8751 C172.6964,99.0931 170.6974,110.5491 170.3014,121.7231 C170.0984,127.4121 170.0694,133.3231 170.8274,138.9741 C171.0694,140.7811 173.3034,147.3641 174.4424,147.2061 C176.9734,146.8551 179.2874,148.1751 180.0764,150.1981 C186.3284,144.1581 192.7604,138.2921 199.3994,132.6371 C215.9484,118.5441 233.7734,105.7711 252.5454,94.7951 C266.8724,86.4171 281.9844,78.1171 297.6334,71.8421 C296.3934,71.8161 295.1704,72.0621 293.9874,72.6771 C293.4694,72.9481 292.9544,72.2981 293.3634,71.8681 C298.2924,66.6821 304.1964,65.9441 310.1484,67.3271 C311.4184,66.9231 312.6894,66.5321 313.9654,66.1611 C314.6004,65.9761 314.9164,66.8511 314.3984,67.1891 L312.9364,68.1231 L312.9364,68.1231 C319.4294,70.2981 325.8044,74.5731 330.8514,77.9471 C345.3494,87.6361 358.1104,99.4811 371.0464,111.1041 L373.398419,113.211202 C384.784974,123.378001 396.461594,133.257616 409.3984,141.4141 C416.1704,145.6831 423.2834,149.6321 430.7444,152.5691 C437.1434,155.0901 447.5624,156.6771 450.5594,163.4401 C453.2234,166.6761 452.1104,170.8061 448.9904,172.9841 C443.7284,178.7751 433.2024,175.0341 426.9324,172.6221 C419.3734,169.7141 412.0504,166.2191 405.0664,162.1201 C391.5074,154.1601 379.0054,144.2631 367.3594,133.7351 C355.1964,122.7391 343.7234,111.0581 331.8934,99.7171 C326.767686,94.8031 321.760257,89.7737531 316.626776,84.8671 L314.0484,82.4251 C311.4284,79.9681 307.6954,76.1381 303.7044,73.8201 C296.1854,78.3051 288.5504,82.6051 281.0994,87.2061 C270.6984,93.6281 260.6034,100.5131 250.6644,107.6251 C231.5304,121.3161 213.3984,136.6501 196.5654,153.0861 C165.6934,183.2281 139.3914,217.6481 116.4144,254.0941 L114.669544,256.871598 C101.612752,277.732182 89.2652936,299.265568 80.5104,322.3161 C70.8774,347.6811 66.1924,374.3541 63.6474,401.2791 C61.1214,428.0111 60.2694,454.8781 57.4464,481.5851 C54.5514,508.9761 48.8474,535.7621 42.3594,562.4981 L40.8120412,568.83673 C34.9414314,592.781201 28.8821297,616.725695 25.8644,641.2351 C24.2534,654.3271 23.2844,667.5981 23.5034,680.7961 C23.7234,694.0711 25.8094,707.0521 27.4924,720.1871 C28.1374,725.2191 23.1854,729.4191 18.7544,730.0861 C13.6584,730.8511 9.2804,727.6001 7.6964,722.8661 C2.7584,708.1091 1.8614,691.7961 2.0164,676.3071 C2.1724,660.5821 4.1794,644.9601 7.0034,629.5061 C12.5574,599.1081 21.1284,569.3391 28.2984,539.3051 C34.6174,512.8331 38.8584,486.3151 41.1444,459.1961 C43.5174,431.0601 44.9384,402.8301 49.2674,374.8971 C53.5404,347.3211 61.5804,320.9811 73.7054,295.8361 C84.7454,272.9421 98.5074,251.3931 112.9354,230.5061 C130.4564,205.1431 149.6994,181.0081 171.2094,159.0181 C169.2774,158.9341 167.2934,158.3101 165.4714,157.1741 C159.8974,153.6971 157.3014,146.8961 156.5034,140.6861 C154.6354,126.1591 155.0864,110.9931 158.8224,96.7901 C164.8494,73.8781 180.4914,53.5201 203.1614,45.2611 C208.9964,43.1351 215.1994,42.3591 221.3834,42.2061 C227.2514,42.0601 233.6604,42.8251 239.3224,40.9651 C248.334748,38.0026758 252.197757,27.3885011 255.581548,19.342589 L255.7374,18.9731 C260.0764,8.7201 265.2844,-0.0679 274.6824,-6.4699 C284.709067,-13.3015458 297.271673,-16.4083805 309.101342,-18.4143305 L309.101342,-18.4143305 Z M565.5989,22.1336 C573.7109,19.3196 583.8529,21.8736 591.7859,24.3316 C600.6239,27.0716 608.7909,32.1176 615.7929,38.1106 C623.1799,44.4306 629.2849,52.2346 633.5979,60.9526 L634.010256,61.7924929 C637.949711,69.8794121 642.436205,80.9813288 640.4499,89.8656 C640.3929,90.1176 640.3279,90.3606 640.2539,90.5956 C656.3489,98.5186 671.2129,108.4426 684.1569,121.0206 C699.2289,135.6656 711.9909,152.3306 722.7909,170.3346 C765.68466,241.84212 773.234138,327.721992 778.3002,409.270897 L779.563698,429.947985 C782.31428,474.596913 785.533755,519.140127 793.8959,563.1726 L794.506024,566.351529 C803.444644,612.45401 816.240102,658.908813 814.9439,706.2026 C814.5549,720.3726 793.6129,720.2766 793.0059,706.2026 C790.7199,653.2296 778.3579,602.0836 769.9869,549.9386 C755.2579,458.1976 762.6379,363.6176 741.7679,272.7956 C733.5779,237.1536 720.8909,202.5806 702.7739,170.7656 C693.8249,155.0486 683.5859,139.8616 671.5919,126.3026 C661.2729,114.6356 650.5479,103.4076 638.4889,93.5996 C634.6349,97.4596 626.9359,95.4926 624.9239,89.8656 C623.5419,85.9986 623.9449,81.4776 623.0579,77.4266 C622.2349,73.6676 621.0999,69.9406 619.5879,66.4006 C616.5739,59.3456 612.1499,52.5706 607.0429,46.8606 C601.5259,40.6886 595.1849,35.5606 588.0899,31.3266 C580.9459,27.0636 573.1329,25.7906 565.5989,22.6756 C565.3449,22.5706 565.3209,22.2306 565.5989,22.1336 Z M597.1152,512.4285 C597.1272,512.0565 597.5662,511.8805 597.8362,512.1295 C600.6802,514.7465 602.3992,518.5025 604.4922,521.7215 C606.9062,525.4335 609.4412,529.0695 612.0992,532.6115 C617.4252,539.7075 623.3542,546.3955 629.3302,552.9485 C634.8882,559.0425 640.8122,564.8795 646.9572,570.3815 C653.6152,576.3445 661.0762,581.6635 667.1252,588.2655 C679.746991,602.04157 681.786584,620.948994 684.44948,638.702267 L684.7412,640.6225 C686.3652,651.1585 687.8202,661.7225 689.1322,672.3015 C689.7702,677.4475 690.4062,682.5985 690.9262,687.7575 L691.085023,689.392 C691.548596,694.442678 691.673639,699.566573 688.7732,703.9795 C685.6682,708.7005 678.6092,710.3555 674.4122,705.8285 C667.2012,698.0515 668.5532,684.2375 667.6152,674.2325 C666.840343,665.959357 665.961159,657.6965 664.977019,649.445818 L664.4762,645.3215 C663.3162,635.9355 662.3742,626.3625 660.2272,617.1395 C658.3342,609.0175 654.7272,602.8875 648.8092,597.0035 C642.8472,591.0765 636.6522,585.5435 631.1492,579.1605 C625.3122,572.3905 620.0472,565.1315 615.3032,557.5555 C611.245621,551.0755 607.993106,544.023788 605.013385,536.980248 L604.5192,535.8065 C601.6392,528.9375 596.8902,519.9955 597.1152,512.4285 Z M701.2275,217.384 C701.2905,216.426 702.7065,216.411 702.7275,217.384 C702.9065,225.624 703.0785,233.864 703.2495,242.105 C704.6255,308.507 703.7775,375.066 710.4395,441.24 C713.5815,472.441 719.3675,503.183 726.0625,533.797 C729.4885,549.462 733.0825,565.09 736.4975,580.757 C739.8255,596.026 743.3945,611.369 746.0345,626.78 C748.628708,641.926458 750.951988,657.189554 751.994823,672.53056 L752.1235,674.532 C752.5725,681.963 754.7155,692.893 750.6235,699.48 C746.1895,706.616 737.7005,706.744 732.9495,699.932 C728.4885,693.537 729.5975,682.161 728.8095,674.532 C728.0085,666.759 727.1615,658.98 726.1995,651.225 C724.3225,636.098 721.8495,621.005 719.2775,605.981 C713.9205,574.693 706.1505,543.799 700.4155,512.561 C694.5375,480.552 690.3595,448.314 690.1835,415.724 C690.0085,382.857 693.4875,350.054 695.2435,317.259 C697.0275,283.951 699.0555,250.668 701.2275,217.384 Z M387.5472,10.8503 C389.3302,4.8473 395.6222,1.0943 401.7602,2.7803 C407.3852,4.3263 412.0292,11.1533 409.8302,16.9943 C407.4302,23.3683 403.2362,28.8033 399.7002,34.5963 C396.4342,39.9493 391.6702,44.1643 388.3432,49.4223 L392.009424,53.374812 C393.84372,55.34646 395.6832,57.3063 397.5432,59.2323 L403.9377,65.85612 C408.91792,71.00378 413.9295,76.124 419.0822,81.0933 C434.2342,95.7083 449.6262,109.8433 466.5952,122.3593 C470.4582,125.2073 474.3512,128.0393 478.3532,130.6913 L479.845453,131.680174 C482.591079,133.477818 485.654419,135.244894 488.9712,134.9403 C497.030803,134.200283 504.312926,125.641031 509.851321,120.313645 L510.1412,120.0363 C523.8662,106.9773 536.5752,92.6993 547.6862,77.3473 C550.1532,73.9363 552.5422,70.4673 554.8682,66.9573 C549.4962,60.6823 550.7792,48.4333 550.4832,40.8233 C550.2742,35.4723 550.2582,30.1203 550.2292,24.7653 L550.21457,23.6854637 C550.149131,20.2194787 549.992887,16.8952688 552.2422,14.0433 C552.3732,13.8783 552.6442,13.8833 552.8112,13.9703 C555.891967,15.5846333 556.841266,18.2875944 558.155808,21.3195111 L558.2932,21.6343 C559.8932,25.2733 561.4252,28.9463 562.9752,32.6063 C564.5982,36.4383 566.0862,40.3263 567.5942,44.2043 C568.2962,46.0083 568.9662,47.8193 569.6212,49.6403 C570.0202,50.8033 570.4332,51.9603 570.8572,53.1153 L570.9572,53.2043 C571.5172,53.6793 571.9922,54.1813 572.4012,54.6993 C574.1202,55.5593 575.4862,57.1263 576.1272,59.4283 C577.5222,64.4393 574.6352,68.5253 572.0602,72.5023 C561.6002,88.6623 549.6762,104.0613 536.4222,118.0303 C529.8382,124.9703 522.9132,131.5983 515.7032,137.8853 L514.44277,138.977002 C507.965889,144.542883 500.934078,149.815218 492.2842,151.1173 C482.161619,152.640526 473.923326,147.606207 466.174502,141.807504 L465.4012,141.2253 C458.0552,135.6643 450.8572,129.9083 443.8832,123.8873 C429.6642,111.6113 416.1372,98.4303 404.1322,83.9693 C392.4542,69.9033 380.9112,54.1753 373.7132,37.2503 C373.2742,36.2193 374.4282,35.1403 375.3322,36.0013 C378.8482,39.3483 382.2312,42.8773 385.5742,46.4513 C385.6672,41.1903 384.6962,35.8843 385.2362,30.5903 C385.8952,24.1553 385.7052,17.0463 387.5472,10.8503 Z" id="ðŸ–-Ink" fill="#000000"/>
    </g>
</g><g transform="translate(200, 50)">
    <!-- Generator: Sketch 62 (91390) - https://sketch.com -->
    <title>head/mono/Bangs 2</title>
    <desc>Created with Sketch.</desc>
    <g id="head/mono/Bangs-2" stroke="none" stroke-width="1" fill="none" fill-rule="evenodd">
        <path d="M389.5309,161.6855 C329.3989,121.8825 208.9309,126.2055 142.7369,150.5915 C78.1489,171.0745 55.5359,228.1495 44.8119,289.8125 C31.7769,359.1155 33.5289,459.0185 127.2629,457.8095 C140.4409,464.1825 155.0399,466.9465 168.6749,472.2245 C187.3369,478.6765 205.6349,486.1665 224.5719,491.8175 C261.8699,503.8295 303.3739,502.7845 338.7549,485.2075 C358.302308,475.76506 366.393069,461.060213 379.176408,445.391243 C416.366531,399.806056 435.079833,334.567807 433.4039,276.6045 C430.4629,235.7895 423.7119,188.5415 389.5309,161.6855 Z" id="ðŸŽ¨-Background" fill="#FFFFFF"/>
        <path d="M465.6238,329.6952 C459.4538,291.3952 457.7438,252.4452 449.6638,214.4452 C442.0638,178.6862 427.8538,144.8952 403.0238,117.6352 C380.8038,93.2452 352.0738,75.3352 321.2338,63.9852 C261.1538,41.8752 192.0538,46.8752 133.9338,72.6862 C79.5338,96.8352 36.1438,141.5152 10.8538,195.1352 C-5.5762,229.9752 -13.8362,267.0152 -17.5062,305.2452 C-21.5762,347.7152 -22.0162,390.6252 -23.6762,433.2452 C-23.8762,438.5052 -24.1662,443.7652 -24.2362,449.0262 C-24.3162,454.7852 -21.9862,459.8352 -20.0862,465.1952 C-19.9562,465.5752 -19.7662,465.9362 -19.5362,466.2762 C-20.9662,466.4552 -22.3962,466.6652 -23.8262,466.8952 C-25.4262,467.1452 -25.3562,469.7452 -23.8262,470.0552 C-10.8762,472.6952 2.4338,473.0652 15.6038,473.7152 C29.2538,474.3952 42.9238,474.7662 56.5938,475.2252 C69.9238,475.6752 83.2538,476.1252 96.5838,476.5752 C103.5838,476.8152 110.5838,477.0552 117.5838,477.2852 C120.9138,477.3952 124.2438,477.5162 127.5838,477.6252 C129.2438,477.6862 130.9138,477.7342 132.5738,477.7952 C133.9238,477.8352 136.1238,478.6952 136.2638,477.7052 C136.5138,477.8562 136.7838,477.9842 137.0738,478.0752 C137.3938,478.2452 137.7038,478.4452 138.0038,478.6652 C139.6338,479.7852 142.1038,479.6452 143.7538,478.6652 C143.9038,478.5752 144.0638,478.4752 144.2238,478.3752 C145.4538,477.6452 146.3138,476.5852 146.7938,475.3852 C153.6338,483.6452 165.7438,474.3652 158.7438,465.6252 C154.9838,460.9252 117.5838,345.6952 133.0638,257.9152 L195.1438,249.6952 C202.710467,248.928533 213.5338,247.781867 227.6138,246.2552 C231.060467,235.008533 233.277133,227.5752 234.2638,223.9552 C234.3738,223.5552 234.4838,223.1452 234.6038,222.7452 C236.0838,225.3562 237.5738,227.9552 239.0738,230.5552 L246.7338,246.1252 C322.107133,244.8652 369.0338,244.2952 387.5138,244.4152 C387.9838,244.4152 390.2138,278.1152 389.2038,292.9552 C387.1638,322.7552 384.9938,352.5352 381.9738,382.2552 C380.04628,401.285639 375.400261,419.948515 368.479319,437.488282 C357.546563,465.1952 325.804325,491.530499 294.8538,491.530499 C275.588137,491.530499 232.0538,475.9272 225.7138,472.7762 C219.3738,469.6252 215.59607,478.2252 221.3738,481.6652 C233.077576,488.633506 265.339302,503.4152 294.8538,503.4152 C337.716649,503.4152 370.0738,462.7452 374.0438,456.9152 C413.0738,454.7762 452.9938,455.7652 491.9738,459.6352 C495.2438,459.9552 498.0638,456.0152 497.0138,453.0052 C483.0138,412.9362 472.3638,371.6062 465.6238,329.6952 Z" id="ðŸ–-Ink" fill="#000000"/>
    </g>
</g><g transform="translate(320, 250)"><g>
    <!-- Generator: Sketch 62 (91390) - https://sketch.com -->
    <title>face/Eating Happy</title>
    <desc>Created with Sketch.</desc>
    <g id="face/Eating-Happy" stroke="none" stroke-width="1" fill="none" fill-rule="evenodd">
        <path d="M126.149889,196.292214 C131.744002,187.090211 143.667824,209.632062 144.934713,213.508101 C146.056772,216.941676 146.797464,220.458991 147.173947,224.017014 C151.510872,224.989057 156.01445,224.990851 160.458249,224.139019 C167.062878,222.871873 171.100325,219.321223 176.840498,216.27243 C180.80528,214.165719 185.802087,216.636182 187.863888,220.130132 C190.289134,224.242684 188.744036,228.511189 185.554301,231.577101 C179.505319,237.390824 167.603613,238.726425 159.707644,237.182493 C155.183676,236.298273 151.03744,234.601718 147.375949,232.136142 C147.351679,232.596242 147.335471,233.056465 147.299179,233.515885 L147.229265,234.312833 C146.622587,240.760805 144.850336,248.868644 139.841994,253.064289 C131.627701,259.946669 121.490148,246.710667 129.471775,239.836072 L129.719209,239.629726 C134.680373,235.621175 135.762718,224.866141 135.495556,218.942309 C135.320385,215.075928 134.616096,211.160035 133.395334,207.477648 L133.144299,206.744368 C132.776832,205.704151 128.770187,195.83676 127.322375,197.093402 L127.253261,197.164261 C126.656242,197.877109 125.691416,197.04675 126.149889,196.292214 Z M170.814304,144.367155 C178.365682,148.9572 189.871664,159.660291 181.748119,171.039573 C172.185929,181.073062 158.418535,169.568982 151.634201,164.366134 C145.343449,160.333898 138.275437,170.704507 144.112,175.412823 C193.135736,211.708059 213.030606,145.567387 174.633685,138.970386 C170.406047,138.243425 168.835891,142.947174 170.814304,144.367155 Z M90.1787,101.9403 C97.5587,100.6313 105.1187,102.4663 111.2257,106.7843 L111.688541,107.117181 C117.57206,111.42005 124.154854,118.975479 120.7787,126.3923 C119.4237,129.3703 115.3657,129.8373 112.7907,128.4873 C108.5037,126.2393 107.7267,120.7083 103.9017,117.6473 C100.7647,115.1383 96.5407,113.6163 92.5007,113.9833 C83.0097,114.8453 77.1717,124.2063 74.2237,132.2733 C73.8467,133.3053 72.3317,133.7063 71.7397,132.5983 C64.7887,119.6063 77.0927,104.2623 90.1787,101.9403 Z M208.3893,97.0373 C222.5263,95.8723 239.0733,110.5283 235.3513,125.4503 C233.5663,132.6103 222.9453,132.4053 221.0573,125.4503 C220.0183,121.6233 220.1223,118.2373 217.3673,115.0593 C215.0933,112.4353 211.8623,110.9113 208.3893,111.1453 C204.5613,111.4033 201.0303,113.3163 198.3473,116.0053 C195.9243,118.4333 194.4753,121.9863 191.9653,124.1353 C191.3473,124.6633 190.5203,124.6973 189.9103,124.1353 C185.5903,120.1523 188.1833,111.8603 190.9223,107.7023 C194.8423,101.7523 201.2253,97.6283 208.3893,97.0373 Z M63.2578,75.4751 C72.3268,67.4471 88.8058,59.6941 101.0348,63.6451 C108.0658,65.9161 111.1308,77.2451 103.2818,80.8361 C94.1928,84.9941 83.7138,83.3021 74.4628,87.6121 C70.5778,89.4231 66.9238,91.6861 64.2188,95.0051 C62.0878,97.6211 59.9198,101.0631 56.8378,102.5711 C56.0278,102.9681 54.9308,102.9781 54.2818,102.2421 C47.5258,94.6001 57.3588,80.6961 63.2578,75.4751 Z M192.8016,63.2466 C198.4066,61.6736 204.6246,61.7056 210.3186,62.6936 C216.0106,63.6816 221.7896,66.0406 226.4366,69.4816 L226.976058,69.8845105 C232.049154,73.7073503 238.103014,79.2694621 237.7786,86.0416 C237.5076,91.6966 231.5586,95.5216 226.4226,92.5576 C222.2356,90.1406 220.2656,85.2986 216.7206,82.0746 C213.7956,79.4136 210.3596,77.3156 206.6936,75.8456 C202.6216,74.2126 198.5426,73.4476 194.1726,73.3746 C190.8076,73.3186 187.4226,74.4226 184.1206,74.7756 C184.3926,75.3336 181.7826,75.0736 180.2866,74.5786 C179.1786,74.1066 179.1726,72.7056 179.5566,71.7966 C181.4616,67.2936 188.3926,64.4826 192.8016,63.2466 Z" id="ðŸ–-Ink" fill="#000000"/>
    </g>
</g></g><g transform="translate(210, 310)"><g>
    <!-- Generator: Sketch 62 (91390) - https://sketch.com -->
    <title>accessories/* None</title>
    <desc>Created with Sketch.</desc>
    <g id="accessories/*-None" stroke="none" stroke-width="1" fill="none" fill-rule="evenodd"/>
</g></g>
          </g>
        </g>
      </svg>