<svg id="avatar-svg" transform="translate(-40, 0)" width="32" height="32" class="path1" viewBox="0 0 700 700" fill="none" stroke="black" strokewidth="0.8" strokelinecap="round" strokelinejoin="round" xmlns="http://www.w3.org/2000/svg">
        <style>
          @media (prefers-reduced-motion){.path1{animation:none!important;stroke-dasharray:unset!important}}@media print{.path1{animation:none!important;stroke-dasharray:unset!important}}@keyframes grow{0%{stroke-dashoffset:1px;stroke-dasharray:0 1000px;opacity:0;fill-opacity:0}10%{opacity:1;fill-opacity:0}60%{stroke-dasharray:1000px 0;fill-opacity:1;stroke-opacity:0}to{stroke-dasharray:1000px 0;fill-opacity:1;stroke-opacity:0}}.path1 g g path{stroke-dashoffset:1px;stroke-dasharray:1000px 0;animation:grow 7s linear forwards;transform-origin:center;stroke:#a2a0a0;stroke-width:10px;animation-delay:0s}
        </style>
        <g>
          <g>
            <g transform="translate(0, 550)">
    <!-- Generator: Sketch 62 (91390) - https://sketch.com -->
    <title>body/mono/Tee 2</title>
    <desc>Created with Sketch.</desc>
    <g id="body/mono/Tee-2" stroke="none" stroke-width="1" fill="none" fill-rule="evenodd">
        <path d="M47.9999306,350.796495 L764.472184,407.675144 L765.22239,412.543719 C777.228219,490.733904 783.292388,543.780294 783.414896,571.682888 L783.41679,572.537838 C783.41679,600.204314 791.909995,644.205775 808.896404,704.542222 L809.947,708.2567 L46.9999306,709.585887 L37.9999306,527.974083 L47.9999306,350.796495 Z M472.169667,-38.9088304 C501.301919,-37.471208 530.661837,-24.9820863 532.929602,-17.0000671 C537.980194,0.776878561 546.102366,76.8737371 572.811802,88.5649563 C599.521238,100.256176 656.5428,89.597634 672.846023,117.517312 C689.149246,145.43699 742.689609,259.249605 742.689609,285.769002 C742.689609,303.448601 568.207587,309.585478 219.243541,304.179635 C223.698387,161.777946 242.271009,86.9220349 274.961405,79.611901 L277.879657,78.9669235 C325.155293,68.6399052 353.409726,68.3069576 369.536941,51.659581 C385.993282,34.6724619 388.979547,5.51392428 395.806566,-17.0000671 C399.568188,-29.4050602 436.420784,-40.6729712 472.169667,-38.9088304 Z" id="ðŸŽ¨-Background" fill="#FFFFFF"/>
        <path d="M536.057,5.5967 C536.167,5.51392428 536.278,5.4867 536.397,5.5467 C538.667,6.6367 539.137,8.8167 539.917,11.0867 C541.057,14.4067 542.377,17.6467 543.597,20.9367 C546.028,27.5367 548.347,34.1267 551.057,40.6167 C553.837,47.2967 556.717,53.8567 560.017,60.3067 C561.607,63.4267 563.317,66.4867 565.057,69.5267 C566.257,71.6367 567.377,74.5367 568.957,76.5167 C569.077,75.8867 569.247,75.2867 569.447,74.7267 C569.238,74.8267 569.037,74.9367 568.847,75.0567 C568.447,75.3067 567.967,74.8067 568.207,74.4167 C569.067,72.9967 570.187,72.0367 571.467,71.3867 C575.007,67.4567 653.036,86.2117 674.367,107.2767 C713,145.4277 739.077,192.5967 756.227,242.7767 C765.697,270.4667 774.417,298.4267 783.427,326.2667 C792.947,355.7067 802.887,385.0167 812.427,414.4367 C814.517,420.9067 809.957,426.7867 804.197,428.9167 C793.467,432.8767 782.657,436.6067 771.757,440.0567 C777.047,460.3667 780.747,481.1067 783.407,501.9067 C788.897,544.7967 789.587,588.5567 798.238,630.9967 C800.224214,640.737414 802.73726,650.340169 805.392022,659.917057 L806.007,662.1267 C807.587,667.7467 809.028,673.4167 810.967,678.9167 C812.637,683.6467 814.797,688.4167 815.967,693.2967 C817.337,699.0367 815.317,705.3067 809.947,708.2567 C805.637,710.6267 799.467,709.6467 796.867,705.1967 C796.337,704.2867 796.017,703.2967 795.887,702.2967 C795.497,701.4667 795.137,700.6167 794.817,699.7467 C794.692,699.4117 794.582,699.0642 794.477,698.71545 L794.167,697.6767 C793.407,695.1967 792.707,692.6967 792.007,690.1967 C790.867,686.185271 789.719653,682.188537 788.451606,678.212793 L787.807,676.2267 C784.667,666.6667 781.857,657.0267 779.407,647.2667 C770.639169,612.27009 768.779087,576.036502 766.372029,540.171452 L766.247,538.3167 C764.067,506.1767 762.767,474.1067 765.437,442.0367 L765.072,442.15545 L765.072,442.15545 L764.707,442.2667 C761.238,443.3267 757.757,444.3667 754.267,445.3767 C754.157,445.4167 754.057,445.4567 753.947,445.4867 C751.713667,446.178367 749.417833,446.835311 747.082648,447.445959 L745.677,447.8067 L744.687,448.0767 L743.644832,448.373214 C740.337794,449.332324 736.966048,450.435271 733.537,450.3267 C727.857,451.2367 722.077,451.7867 716.397,451.8067 C718.147,480.4167 720.167,509.0067 722.577,537.5667 C724.997,566.2767 728.207,594.8767 731.537,623.4767 C733.177,637.6067 734.937,651.7067 736.877,665.7867 C737.857,672.9267 738.877,680.0267 740.177,687.1067 C741.517,694.3467 743.887,702.0867 742.457,709.4067 C742.427,709.3967 742.397,709.3867 742.367,709.3867 C741.887,711.5067 740.607,713.4067 738.377,714.7167 C734.287,717.1067 728.567,715.7067 726.217,711.5267 C726.017,711.1767 725.827,710.8167 725.647,710.4467 C723.238,711.4767 720.597,711.8767 717.357,711.9067 L673.417,712.3467 L673.417,712.3467 C653.447,712.5467 633.477,712.7567 613.497,713.0467 C550.768111,713.971144 488.039222,715.037811 425.310333,715.797208 L401.787,716.0667 C366.507,716.4367 331.207,717.1667 295.927,717.1567 C278.278,717.1567 260.647,717.0967 242.997,716.6667 C234.447,716.4567 225.917,716.1267 217.377,715.7767 L215.86927,715.70778 C209.051518,715.371302 201.813207,714.739803 195.147,716.2667 C193.307,719.8467 188.607,720.5867 186.147,716.9267 C180.525364,708.552155 178.99138,696.867801 177.952822,686.632634 L177.587,682.9467 C176.437,671.4767 175.427,660.0067 174.677,648.5167 C172.017,607.8067 171.047,567.0567 172.267,526.2667 C172.887,505.4767 174.797,484.8067 177.057,464.1367 C177.767,457.6867 178.507,451.2467 179.307,444.8167 L179.32075,442.53045 C179.322,441.7992 179.317,441.1017 179.297,440.4467 L179.097625,434.242481 C178.932,429.070997 178.778094,423.896583 178.714031,418.72168 L178.687,415.6167 L178.657,409.8367 C173.717,409.3667 168.447,407.7267 164.187,406.9367 C157.278,405.6467 150.387,404.2567 143.517,402.7867 C129.757,399.8267 116.147,396.3267 102.627,392.4567 L99.7515955,391.6308 C87.2762857,388.036139 74.6291429,384.203129 62.827,378.8267 C58.207,376.7167 53.597,374.3367 49.547,371.2167 C49.307,374.4967 48.937,377.7667 48.717,381.0167 C48.278,387.4467 47.757,393.8567 47.327,400.2867 L46.9157963,406.404617 C46.2403333,416.598367 45.632,426.7817 45.357,437.0067 C44.137,481.6067 43.927,526.3967 46.287,570.9667 C47.457,593.2767 49.127,615.5867 51.537,637.8067 C52.717,648.7367 53.967,659.6967 55.507,670.5867 C57.097,681.7767 59.967,692.8967 60.847,704.1667 C61.687,715.0367 45.067,716.6167 42.337,706.6767 C39.0680714,694.758129 38.2353418,681.900412 36.5122838,669.645767 L36.317,668.2867 C34.407,655.2667 32.877,642.1967 31.557,629.1067 C27.0003804,583.9567 25.817,538.5767 28.207,493.2567 C29.3432963,471.551515 32.0374527,449.929786 35.298291,428.454022 L35.677,425.9767 C37.1614444,416.358922 38.5510741,406.741144 40.2321715,397.165507 L40.877,393.5767 C42.387,385.3467 43.547,376.3967 45.997,368.1667 L45.2687342,367.495139 C43.9071775,366.226759 42.4316154,364.759008 41.357,363.1767 C37.657,362.6767 34.507,360.0167 34.897,355.1867 C36.167,339.3167 41.967,323.1767 47.137,308.1967 C52.327,293.1367 58.347,278.3567 65.167,263.9567 C89.157,213.3467 123.707,167.3967 165.957,130.5867 C188.367,111.0567 212.927,93.7367 240.067,81.4067 C253.447,75.3167 267.287,70.6067 281.787,68.0667 C288.967,66.8067 296.217,65.8267 303.517,65.6167 C309.439321,62.1202714 316.470938,63.5915565 322.205506,67.4252616 L322.517,67.6367 L322.528,67.6367 L323.997,67.9267 L323.997,67.9267 C324.357,67.9967 324.347,68.5667 323.997,68.6467 C323.977,68.6467 323.947,68.6567 323.927,68.6667 C324.867,69.4067 325.757,70.1967 326.587,71.0467 C329.327,73.8467 329.317,77.2267 327.907,79.9567 C336.297,87.7367 341.597,97.7267 347.147,107.7967 C353.097,118.5767 360.887,127.8967 370.367,135.7567 C405.117,164.5767 456.227,177.3267 499.767,163.7167 C531.787,153.7167 559.137,126.6467 566.697,94.0567 C564.907,94.6967 562.967,94.7967 561.127,94.1367 C552.486365,91.0563825 549.191883,81.6129812 545.886947,73.7174982 L545.727,73.3367 C542.497,65.6867 539.787,57.9167 537.647,49.8967 C535.488,41.7967 534.217,33.2467 533.687,24.8867 C533.482455,21.5812455 533.572455,18.2757909 533.743394,14.9703364 L533.895201,12.23718 C534.012004,9.76061111 533.975667,7.23003333 536.057,5.5967 Z M395.4675,-16.6933 C395.5875,-16.9933 396.0575,-17.1533 396.2375,-16.7933 C403.8865,-1.0133 398.8675,20.6067 391.6365,35.6567 C384.0675,51.3967 372.6675,63.3367 359.1575,73.6667 C357.2975,75.0867 355.3865,76.4867 353.4475,77.8567 C342.1765,85.8167 332.1365,64.3567 345.1475,60.2567 C358.7075,53.3667 369.7275,41.0867 377.3865,28.1867 C381.5275,21.2167 385.1975,13.9567 388.0075,6.3367 C390.8075,-1.2633 392.4875,-9.1733 395.4675,-16.6933 Z" id="ðŸ–-Ink" fill="#000000"/>
    </g>
</g><g transform="translate(200, 50)">
    <!-- Generator: Sketch 62 (91390) - https://sketch.com -->
    <title>head/mono/Long</title>
    <desc>Created with Sketch.</desc>
    <g id="head/mono/Long" stroke="none" stroke-width="1" fill="none" fill-rule="evenodd">
        <path d="M431.9006,270.053 C428.1106,207.851 407.9266,137.33 348.5226,106.79 C217.5636,54.232 45.3796,186.588 36.2636,321.8 C33.0856,368.084 58.7836,418.659 105.7446,431.527 C116.1856,445.36 131.9756,453.808 147.5606,461.14 C333.1876,557.447 453.0946,479.16 431.9006,270.053 L431.9006,270.053 Z" id="ðŸŽ¨-Background" fill="#FFFFFF"/>
        <path d="M474.1891,231.3601 C467.6291,213.1401 460.6991,195.0601 453.4091,177.1201 C446.3091,159.6601 439.896026,141.822713 431.0791,125.1901 C378.4191,25.8501 282.6591,25.8501 233.1591,38.8301 C207.4891,27.7701 159.408421,30.8898441 132.6791,40.8701 C89.4071,57.0271 36.6581,120.5851 18.6231,149.1411 C-21.1959,212.1901 -46.0459,296.1071 -19.5959,368.9631 C-16.1389,378.4851 -11.7299,387.3041 -6.7659,395.8031 C-9.8929,400.0411 -13.4919,404.0551 -17.4789,407.9991 C-29.3269,419.7211 -41.1749,431.0571 -51.4099,444.2781 C-61.5809,457.4171 -70.0129,471.3891 -76.2899,486.7941 C-88.1259,515.8461 -88.6959,548.7421 -73.0479,576.4631 C-59.4339,600.5831 -35.3169,618.5441 -8.1459,620.2571 C-6.7509,620.4511 -5.3539,620.6291 -3.9509,620.7701 C-0.3509,626.7001 4.0391,632.1601 9.0491,636.9201 C24.3991,651.5201 60.9891,659.0101 81.8591,659.4901 C82.9291,660.3501 84.0091,661.2101 85.0891,662.0601 C97.8591,672.1101 111.2591,682.2501 125.9191,689.4001 C135.8491,694.2501 148.8691,698.3001 159.2291,694.8001 C163.9291,697.9401 171.6391,697.2801 176.2991,694.7101 C183.9591,690.4901 190.1891,682.8901 193.9791,675.1101 C203.1691,656.2201 200.9591,635.5501 198.5991,615.3701 C195.9991,593.0801 193.4991,570.7801 190.9591,548.4901 C188.9691,531.0601 186.8891,513.3401 181.5891,496.5501 C178.8491,487.8501 175.2591,479.4901 170.6191,471.6301 C170.7391,470.9701 170.7191,470.3101 170.5291,469.6901 C169.0091,464.7501 165.8691,462.1601 162.1491,458.8001 C161.6691,458.3701 161.1891,457.9301 160.7191,457.4801 C158.8591,455.3601 156.8691,453.3901 154.7391,451.7201 C153.9191,450.8901 153.1091,450.0501 152.2991,449.2101 C145.5691,442.1601 139.2091,434.7501 133.5591,426.8101 C128.0791,419.1101 123.1291,411.0701 118.4191,402.8801 C113.6291,394.5501 110.4591,385.3601 105.6791,377.0901 C105.2691,376.3801 104.2291,376.2401 103.6491,376.8301 C102.1691,378.3601 101.2191,380.0601 101.3991,381.8501 L100.6591,381.9601 C100.3791,379.2601 97.8891,377.0601 94.5091,377.6501 C89.4491,378.5301 85.2891,378.8601 80.9091,377.1801 C81.6791,372.0701 82.3891,366.9501 83.0891,361.8201 C84.3691,352.3801 85.5591,342.9101 86.5791,333.4401 C89.0491,334.0301 91.4991,334.8801 93.8991,335.9601 C97.3191,337.4901 100.5491,339.5501 103.3091,342.0801 C106.0291,344.5801 107.9091,347.9501 111.2291,349.6901 C115.0491,351.6801 119.6591,348.3901 118.5391,344.0701 C116.2691,335.3401 103.4191,330.3401 95.4691,328.6901 C92.7391,328.1201 89.9491,327.8801 87.1591,327.9401 C87.7891,321.8601 88.3491,315.7801 88.8091,309.6901 C89.0291,306.8101 89.2291,303.9301 89.4191,301.0401 C95.5991,299.1701 102.2191,298.6101 108.6491,299.4901 C110.7691,301.1801 112.8891,302.8501 114.9391,304.5401 C121.4491,309.9201 127.9291,315.3301 134.3291,320.8401 C134.9091,321.3301 135.4791,321.8201 136.0591,322.3201 C139.8591,325.5901 144.5991,322.3501 143.9591,317.7201 C138.7391,279.7801 161.9791,249.6001 189.1891,226.2201 C219.3091,200.3301 274.0691,197.315396 309.8891,152.4701 C326.3862,155.827691 363.2191,165.8001 378.4191,190.0201 C399.6991,223.9601 396.9191,254.3701 398.5391,292.8701 C400.1591,331.4001 404.2791,371.5901 395.5291,409.5801 C387.4591,444.6101 365.6091,474.5401 331.7091,488.3001 C330.8691,488.6401 330.0191,488.9701 329.1691,489.2901 C311.6391,495.9001 292.5091,497.7701 274.0691,494.2901 C253.6591,490.4301 236.6191,481.0901 219.6391,469.6001 C218.6591,468.9501 217.2291,470.2901 217.9691,471.2701 C240.3491,500.9301 284.3091,510.8401 319.1791,503.0101 C320.8091,502.6401 322.4291,502.2401 324.0391,501.8001 C316.2391,524.2301 317.8091,548.8501 327.9691,570.6901 C334.0791,583.8301 343.3991,595.2001 354.7491,604.1701 C367.2591,614.0501 382.7791,622.0301 391.4591,635.9001 C399.4091,648.6101 397.0491,662.8901 383.4391,670.2301 C380.0091,672.0901 378.6891,678.1001 382.0891,680.7401 C383.3891,681.7401 384.6891,682.7601 386.0191,683.7601 C393.6391,689.5101 414.5691,700.3101 417.9591,700.7101 C448.0591,704.2801 468.2991,682.1801 481.2691,656.1101 C496.4991,625.5101 492.5391,588.2201 475.7591,559.0801 C462.2991,535.7001 435.7891,512.6601 446.3291,483.0701 C450.0891,472.5001 457.7791,463.4901 465.2491,455.3501 C473.7691,446.0801 482.9291,437.4001 491.0991,427.8001 C499.2191,418.2701 506.4191,407.9001 510.4391,395.9401 C516.3091,378.4601 513.3891,359.5601 508.9791,342.1101 C499.5291,304.6501 487.2591,267.6901 474.1891,231.3601 Z" id="ðŸ–-Ink" fill="#000000"/>
    </g>
</g><g transform="translate(320, 250)"><g>
    <!-- Generator: Sketch 62 (91390) - https://sketch.com -->
    <title>face/Smile Teeth Gap</title>
    <desc>Created with Sketch.</desc>
    <g id="face/Smile-Teeth-Gap" stroke="none" stroke-width="1" fill="none" fill-rule="evenodd">
        <path d="M170.814304,144.367155 C178.365682,148.9572 189.871664,159.660291 181.748119,171.039573 C172.185929,181.073062 158.418535,169.568982 151.634201,164.366134 C145.343449,160.333898 138.275437,170.704507 144.112,175.412823 C193.135736,211.708059 213.030606,145.567387 174.633685,138.970386 C170.406047,138.243425 168.835891,142.947174 170.814304,144.367155 Z M102.5879,56.8305 L104.465271,56.501905 L105.42752,56.3387999 C111.05159,55.4089332 117.7185,54.7869836 121.6029,59.2015 C123.7819,61.6775 124.5319,66.2795 121.6029,68.6495 C116.4509,72.8195 110.7549,71.2035 104.5809,71.5565 C99.4929,71.8485 94.6029,72.6905 89.7019,74.0915 C78.9499,77.1645 70.1889,82.7745 61.0059,88.9345 C59.8009,89.7425 58.5709,88.2015 59.1459,87.0745 C64.4469,76.6915 74.7199,68.1625 85.0099,62.9635 C90.5019,60.1885 96.5119,57.8865 102.5879,56.8305 Z M152.3251,200.2709 C168.7571,201.4639 204.3671,193.6199 219.1531,205.3859 C274.8801,274.9729 53.9501,292.8639 77.8101,215.8769 C93.0071,190.9839 127.9621,200.9889 152.3251,200.2709 Z M149.5081,242.2799 C145.4441,241.9489 140.5121,245.1679 139.3191,247.6549 C138.1261,250.1429 138.5871,255.3999 138.6231,256.3109 C145.7281,257.0269 152.8951,257.1359 160.0201,256.6689 C158.1691,250.5459 158.1091,243.2069 149.5081,242.2799 Z M182.3141,252.5519 C181.1721,244.9519 175.7361,243.1519 171.3361,244.2929 C166.8351,245.4589 164.1931,250.6399 164.4791,255.2529 C164.4981,255.5709 164.3141,255.8409 164.1931,256.0969 C170.3111,255.3739 176.3721,254.1839 182.3141,252.5519 Z M131.9201,243.6559 C129.3581,239.7579 123.2361,237.8769 119.3151,238.5639 C112.9121,239.9119 112.1541,248.0479 112.1541,249.7059 C118.0571,251.9559 124.3241,253.4499 130.3161,254.6399 C131.5191,254.8779 132.7251,255.0909 133.9331,255.2919 L134.011748,254.304092 C134.15754,252.1871 134.2657,247.2239 131.9201,243.6559 Z M204.3491,243.0129 C197.7841,232.8559 183.6721,240.1279 184.8381,251.2239 C186.0921,250.8289 187.3401,250.4159 188.5821,249.9829 C193.7401,248.1849 199.3981,246.0479 204.3491,243.0129 Z M152.6641,208.0169 C143.8321,207.2219 136.5871,207.4899 130.8271,208.5579 L130.652379,210.482006 C130.015019,217.153056 129.192942,223.71197 132.6961,226.3959 C135.5411,228.5759 144.9841,228.3679 151.3161,226.7899 C152.8801,226.3959 154.9131,212.5599 152.6641,208.0169 Z M166.3211,207.2219 C164.905471,213.79653 164.239607,221.779589 167.081976,224.150651 C170.083082,226.654129 179.744529,226.314877 182.27115,224.647162 C184.482348,223.187644 184.425998,216.473745 183.6051,208.9359 C178.7121,207.7829 170.1921,207.2219 166.3211,207.2219 Z M126.9211,208.6239 L124.0291,208.6499 L122.392162,208.671764 C118.252917,208.745333 113.787276,208.983724 109.5661,209.9049 C101.17981,228.02784 131.80542,231.15623 127.075335,209.29405 L126.9211,208.6239 Z M187.5011,209.0609 L187.447712,210.087554 C187.196335,215.178372 187.36295,221.882059 190.183224,223.691942 C194.333161,226.355124 202.125997,225.841302 206.347453,213.522759 C204.950453,209.847759 190.1341,209.3299 187.5011,209.0609 Z M106.2238,101.0002 C107.996997,101.0002 109.692946,101.602067 111.237462,102.715752 C112.757587,103.81185 114.13373,105.411583 115.279905,107.406824 C117.448889,111.182554 118.8048,116.395834 118.8048,122.1602 C118.8048,127.924566 117.448889,133.137846 115.279905,136.913576 C114.13373,138.908817 112.757587,140.50855 111.237462,141.604648 C109.692946,142.718333 107.996997,143.3202 106.2238,143.3202 C104.450603,143.3202 102.754654,142.718333 101.210138,141.604648 C99.6900132,140.50855 98.3138701,138.908817 97.1676955,136.913576 C94.9987108,133.137846 93.6428,127.924566 93.6428,122.1602 C93.6428,116.395834 94.9987108,111.182554 97.1676955,107.406824 C98.3138701,105.411583 99.6900132,103.81185 101.210138,102.715752 C102.754654,101.602067 104.450603,101.0002 106.2238,101.0002 Z M218.464,101.0002 C220.237197,101.0002 221.933146,101.602067 223.477662,102.715752 C224.997787,103.81185 226.37393,105.411583 227.520105,107.406824 C229.689089,111.182554 231.045,116.395834 231.045,122.1602 C231.045,127.924566 229.689089,133.137846 227.520105,136.913576 C226.37393,138.908817 224.997787,140.50855 223.477662,141.604648 C221.933146,142.718333 220.237197,143.3202 218.464,143.3202 C216.690803,143.3202 214.994854,142.718333 213.450338,141.604648 C211.930213,140.50855 210.55407,138.908817 209.407895,136.913576 C207.238911,133.137846 205.883,127.924566 205.883,122.1602 C205.883,116.395834 207.238911,111.182554 209.407895,107.406824 C210.55407,105.411583 211.930213,103.81185 213.450338,102.715752 C214.994854,101.602067 216.690803,101.0002 218.464,101.0002 Z M203.192876,52.1793876 L204.629806,52.4734684 L205.583101,52.6756041 C221.082639,56.0094915 240.733069,62.5816831 247.988459,77.6308459 C248.270623,79.8027272 247.97249,80.2682047 247.730054,80.5723213 L247.649336,80.6735209 C247.449568,80.9332186 247.290169,81.2912104 246.348782,81.5868073 C246.087547,81.5245653 245.823712,81.4586426 245.557082,81.3887687 C242.162766,80.499243 239.477205,79.2737961 236.877298,78.0022488 L234.058339,76.6134493 C230.787784,75.0098309 227.488352,73.4645766 223.991711,72.3238115 C216.52958,69.8898666 208.854137,68.1753043 201.059777,67.259767 C199.37041,67.0615005 197.743655,66.4913394 196.460262,65.5141761 C195.242065,64.5866523 194.311441,63.3024737 193.887128,61.5955207 C193.33722,59.3864508 193.495251,57.7140037 194.680513,55.7210991 C195.571756,54.2244705 196.846982,53.1871113 198.311265,52.5914244 C199.804038,51.9841473 201.503545,51.840982 203.192876,52.1793876 Z" id="ðŸ–-Ink" fill="#000000"/>
    </g>
</g></g><g transform="translate(210, 310)"><g>
    <!-- Generator: Sketch 62 (91390) - https://sketch.com -->
    <title>accessories/* None</title>
    <desc>Created with Sketch.</desc>
    <g id="accessories/*-None" stroke="none" stroke-width="1" fill="none" fill-rule="evenodd"/>
</g></g>
          </g>
        </g>
      </svg>